<svg width="142" height="31" fill="none" xmlns="http://www.w3.org/2000/svg"><path d="m22.659 4.857 1.45 3.916-2.821 1.661-.765-.62L6.68 20.56l20.672.343L3.925 24.62.629 20.348l22.03-15.49Zm5.946 13.659 1.41-7.924 2.465 3.626-3.071 15.069-2.373-1.912 1.344-7.58-4.799 3.388-1.99-3.244 1.727-9.505 4.548-3.784-3.454 12.947 4.193-1.081Zm7.606-3.441-.843 4.298 2.834 3.045 2.637-8.543-4.628 1.2Zm-3.836 3.348 3.388-15.069 2.373 1.912-1.714 8.728 5.38-3.705 1.858 3.243-1.99 8.543-4.549 3.784-4.746-7.436Zm14.792-.5 4.35-3.086v-1.516l-2.966-.54-1.384 5.141Zm-.158.566-.699 2.597 8.714 4.43-9.769-1.45-1.858-2.544 2.201-10.68 8.266-.408.198 6.473-7.053 1.582Zm11.14-4.324-2.465 14.08-1.912-7.41 2.584-11.904 2.373 1.912-.37 2.083 3.877-3.322 2.122 3.11-3.427 3.086.342-2.742-3.124 1.107ZM82.01 4.857l1.45 3.916-2.82 1.661-.766-.62-13.84 10.746 20.672.343-23.428 3.718-3.296-4.272 22.03-15.49Zm8.978 12.077-4.35 3.085v1.516l2.966.54 1.384-5.141Zm1.846 5.721 1.041.185-1.12.184-.198.99-3.863 1.436.501-1.832-4.904.804-.198-6.473 7.053-1.582.7-2.598-8.715-4.43L92.9 10.79l1.859 2.545-1.925 9.32ZM99.9 11.489l-2.584 15.939-2.254-6.592 1.7-8.517-6.46 1.688 6.75-3.151 1.49-7.502 2.374 1.912-.66 4.1 8.029-3.757-2.755 4.403-5.63 1.477Zm11.251 8.585 5.117-4.659-.191-1.028-3.923.063-1.003 5.624Zm-.089.533-1.574 8.798-2.615-4.469 3.314-13.14 8.797.268.686 4.037-8.608 4.506Zm14.624-2.412-4.189 2.971v1.46l2.856.52 1.333-4.95Zm1.778 5.51 1.003.178-1.079.178-.191.952-3.72 1.383.483-1.764-4.723.774-.19-6.233 6.792-1.524.673-2.5-8.392-4.266 9.407 1.396 1.79 2.45-1.853 8.976Zm9.673-3.986 1.358-7.63 2.374 3.491-2.958 14.51-2.285-1.84 1.295-7.3-4.621 3.263-1.917-3.123 1.663-9.153 4.38-3.644L133.1 20.76l4.037-1.041Z" fill="#FFF500"/></svg>