<svg width="296" height="95" fill="none" xmlns="http://www.w3.org/2000/svg"><path d="M11.14 94h-3.5c-1.5 0-2.36-.6-3-1.9L2.8 88.38c-.34-.68-.54-1.32-.54-2.1 0-.88.16-1.42.56-2.22l1.84-3.7c.68-1.38 1.54-1.92 3.08-1.92h3.4c.44 0 1 .24 1 1 0 .72-.54 1-1 1H7.8c-.86 0-1 .08-1.38.84l-1.74 3.48c-.26.54-.42.9-.42 1.52 0 .56.18.9.42 1.38l1.7 3.46c.4.82.6.88 1.5.88h3.26c.44 0 1 .24 1 1 0 .72-.54 1-1 1Zm5.314-1 3.92-13.54c.16-.54.38-1.02 1.02-1.02.66 0 .9.5 1.04 1.02L26.294 93c.14.48-.4 1-.96 1-.62 0-.94-.52-1.08-1l-.74-2.4h-4.26l-.76 2.4c-.14.48-.46 1-1.08 1-.56 0-1.1-.52-.96-1Zm6.5-4.4-1.54-5.42h-.04l-1.56 5.42h3.14Zm9.695-3.04V93c0 .64-.28 1-1 1s-1-.36-1-1V78.44h6.72c1.58 0 3.16 1.12 3.16 2.9v1.38c0 1.88-1.56 2.84-3.16 2.84h-1.84l4.5 6.44c.22.3.5.68.5 1.06 0 .56-.46.94-1.02.94-.4 0-.66-.24-.88-.56l-5.52-7.88h-.46Zm0-5.12v3.12h4.44c.56 0 1.44-.04 1.44-.84v-1.38c0-.8-.82-.9-1.42-.9h-4.46ZM46.804 92V80.44h-.74c-.66 0-1.22-.24-1.22-1 0-.72.54-1 1.16-1h3.34c1.56 0 2.34.64 3.02 2l1.76 3.52c.4.82.6 1.4.6 2.32 0 .8-.22 1.48-.58 2.2l-1.82 3.64c-.7 1.42-1.6 1.88-3.16 1.88h-3.32c-.52 0-1-.28-1-1s.48-1 1-1h.96Zm2-11.56V92h.38c.84 0 1.04-.1 1.4-.84l1.76-3.56c.22-.46.38-.8.38-1.3 0-.68-.22-1.06-.5-1.64l-1.66-3.38c-.42-.86-.6-.84-1.52-.84h-.24Zm18.114 6.78h-5.88V93c0 .64-.28 1-1 1s-1-.36-1-1V79.44c0-.64.28-1 1-1s1 .36 1 1v5.78h5.88v-5.78c0-.64.28-1 1-1s1 .36 1 1V93c0 .64-.28 1-1 1s-1-.36-1-1v-5.78Zm13.675-7.14 2 3.98c.38.78.52 1.36.52 2.22 0 .96-.26 1.56-.66 2.38l-1.84 3.68c-.48.96-1.28 1.66-2.44 1.66s-1.96-.7-2.44-1.66l-1.84-3.68c-.4-.82-.66-1.42-.66-2.38 0-.86.14-1.44.52-2.22l2-3.98c.48-.94 1.3-1.64 2.42-1.64 1.12 0 1.94.7 2.42 1.64Zm.06 4.58-1.8-3.62c-.16-.32-.26-.6-.68-.6-.42 0-.52.28-.68.6l-1.8 3.62c-.3.58-.46.96-.46 1.62 0 .52.12.88.34 1.32l1.92 3.8c.14.28.28.6.68.6s.54-.32.68-.6l1.92-3.8c.22-.44.34-.8.34-1.32 0-.66-.16-1.04-.46-1.62ZM89.427 92h6.88c.52 0 1 .28 1 1s-.48 1-1 1h-8.88V79.44c0-.64.28-1 1-1s1 .36 1 1V92Zm14.155 0V80.44h-.74c-.66 0-1.22-.24-1.22-1 0-.72.54-1 1.16-1h3.34c1.56 0 2.34.64 3.02 2l1.76 3.52c.4.82.6 1.4.6 2.32 0 .8-.22 1.48-.58 2.2l-1.82 3.64c-.7 1.42-1.6 1.88-3.16 1.88h-3.32c-.52 0-1-.28-1-1s.48-1 1-1h.96Zm2-11.56V92h.38c.84 0 1.04-.1 1.4-.84l1.76-3.56c.22-.46.38-.8.38-1.3 0-.68-.22-1.06-.5-1.64l-1.66-3.38c-.42-.86-.6-.84-1.52-.84h-.24ZM117.816 92h6.88c.52 0 1 .28 1 1s-.48 1-1 1h-8.88V78.44h8.88c.52 0 1 .28 1 1s-.48 1-1 1h-6.88v4.78h2.94c.52 0 1 .28 1 1s-.48 1-1 1h-2.94V92Zm14.195-6.44V93c0 .64-.28 1-1 1s-1-.36-1-1V78.44h6.72c1.58 0 3.16 1.12 3.16 2.9v1.38c0 1.88-1.56 2.84-3.16 2.84h-1.84l4.5 6.44c.22.3.5.68.5 1.06 0 .56-.46.94-1.02.94-.4 0-.66-.24-.88-.56l-5.52-7.88h-.46Zm0-5.12v3.12h4.44c.56 0 1.44-.04 1.44-.84v-1.38c0-.8-.82-.9-1.42-.9h-4.46Zm34.269 10.14.02-11.12c0-.64.28-1 1-1s1 .36 1 1v14.56h-2.64l-5.22-12V82h-.04v11c0 .64-.28 1-1 1s-1-.36-1-1V78.44h2.64l5.22 12.14h-.02.04Zm6.314 2.42 3.92-13.54c.16-.54.38-1.02 1.02-1.02.66 0 .9.5 1.04 1.02l3.86 13.54c.14.48-.4 1-.96 1-.62 0-.94-.52-1.08-1l-.74-2.4h-4.26l-.76 2.4c-.14.48-.46 1-1.08 1-.56 0-1.1-.52-.96-1Zm6.5-4.4-1.54-5.42h-.04l-1.56 5.42h3.14Zm12.635-6.64 2.44-3.52h2.5V93c0 .64-.28 1-1 1s-1-.36-1-1V81.2h-.04l-1.9 2.82v.32c0 .62-.24 1.2-1 1.2-.72 0-1-.58-1-1.2v-.32l-1.9-2.82h-.04V93c0 .64-.28 1-1 1s-1-.36-1-1V78.44h2.5l2.44 3.52ZM202.983 92h6.88c.52 0 1 .28 1 1s-.48 1-1 1h-8.88V78.44h8.88c.52 0 1 .28 1 1s-.48 1-1 1h-6.88v4.78h2.94c.52 0 1 .28 1 1s-.48 1-1 1h-2.94V92ZM5.613 4.728v7.776h8.016c1.2 0 1.44.504 1.44 1.608v5.376c0 1.128-.48 1.512-1.56 1.512H4.773c-1.128 0-1.56-.408-1.56-1.512V3.528c0-.552.192-1.2 1.032-1.2h1.44c.624 0 1.128.576 1.128 1.2 0 .72-.504 1.2-1.2 1.2Zm7.056 10.176H5.613V18.6h7.056v-3.696Zm10.698-4.44h2.256V4.728h-2.256v5.736Zm-1.2-8.136h4.656c.816 0 1.2.576 1.2 1.2v6.936c.744 0 1.32.264 1.752.672.432.408.648 1.008.648 1.752V18.6c0 1.464-.912 2.4-2.4 2.4h-7.056c-1.488 0-2.4-.936-2.4-2.4v-5.712c0-.744.216-1.344.648-1.752.432-.408 1.008-.672 1.752-.672V3.528c0-.624.384-1.2 1.2-1.2Zm-1.2 16.272h7.056v-5.736h-7.056V18.6Zm20.081 0h2.328v-4.848c0-.696.312-1.2 1.2-1.2.888 0 1.2.504 1.2 1.2V19.8c0 .864-.576 1.2-1.2 1.2H35.12c-.624 0-1.2-.336-1.2-1.2 0-.864.576-1.2 1.2-1.2h3.528V4.728H35.12c-.624 0-1.2-.336-1.2-1.2 0-.864.576-1.2 1.2-1.2h5.928V18.6Zm15.353 0h2.328v-4.848c0-.696.313-1.2 1.2-1.2.889 0 1.2.504 1.2 1.2V19.8c0 .864-.575 1.2-1.2 1.2h-9.456c-.623 0-1.2-.336-1.2-1.2 0-.864.576-1.2 1.2-1.2h3.529V4.728h-3.529c-.623 0-1.2-.336-1.2-1.2 0-.864.576-1.2 1.2-1.2h5.928V18.6ZM84.757 4.728v5.736h4.416c.768 0 1.344.12 1.92.672.672.624.744 1.2.744 2.04v5.136c0 .744-.072 1.272-.576 1.872-.6.72-1.224.816-2.088.816h-5.328c-.624 0-.984-.168-1.584-.432l-.912-.408c-.648-.288-1.368-.504-1.368-1.344 0-.624.528-1.2 1.152-1.2.288 0 .504.072.768.192l.72.312c.336.144.888.48 1.272.48h5.544v-5.736h-7.08V2.328h8.28c.624 0 1.2.336 1.2 1.2 0 .864-.576 1.2-1.2 1.2h-5.88Zm12.978 0v7.776h8.016c1.2 0 1.44.504 1.44 1.608v5.376c0 1.128-.48 1.512-1.56 1.512h-8.736c-1.128 0-1.56-.408-1.56-1.512V3.528c0-.552.192-1.2 1.032-1.2h1.44c.624 0 1.128.576 1.128 1.2 0 .72-.504 1.2-1.2 1.2Zm7.056 10.176h-7.056V18.6h7.056v-3.696Zm15.353-10.176h-7.056c0 .528-.432 1.2-1.2 1.2s-1.2-.672-1.2-1.2v-1.2c0-.528.432-1.2 1.2-1.2h10.656v6.96c0 .84.024.936-.648 1.512l-3.36 2.904c-.624.552-.672.6-.672 1.44V19.8c0 .768-.336 1.2-1.2 1.2-.864 0-1.2-.432-1.2-1.2v-5.784c0-.792.024-.864.624-1.392l3.312-2.856c.792-.696.744-.672.744-1.728V4.728Zm10.698 5.736h2.256V4.728h-2.256v5.736Zm-1.2-8.136h4.656c.816 0 1.2.576 1.2 1.2v6.936c.744 0 1.32.264 1.752.672.432.408.648 1.008.648 1.752V18.6c0 1.464-.912 2.4-2.4 2.4h-7.056c-1.488 0-2.4-.936-2.4-2.4v-5.712c0-.744.216-1.344.648-1.752.432-.408 1.008-.672 1.752-.672V3.528c0-.624.384-1.2 1.2-1.2Zm-1.2 16.272h7.056v-5.736h-7.056V18.6Zm37.763 0v-7.728h-8.256c-.672 0-1.2-.576-1.2-1.2V3.528c0-.624.528-1.2 1.2-1.2h9.456c.672 0 1.2.576 1.2 1.2V19.8c0 .648-.48 1.2-1.2 1.2h-1.2c-.72 0-1.2-.552-1.2-1.2 0-.72.504-1.2 1.2-1.2Zm-7.056-10.128h7.056V4.728h-7.056v3.744Zm20.08 10.128h2.328v-4.848c0-.696.312-1.2 1.2-1.2.888 0 1.2.504 1.2 1.2V19.8c0 .864-.576 1.2-1.2 1.2h-9.456c-.624 0-1.2-.336-1.2-1.2 0-.864.576-1.2 1.2-1.2h3.528V4.728h-3.528c-.624 0-1.2-.336-1.2-1.2 0-.864.576-1.2 1.2-1.2h5.928V18.6Zm10.625-16.272h7.056c1.32 0 2.4 1.08 2.4 2.4V18.6c0 1.344-1.032 2.4-2.4 2.4h-7.056c-1.368 0-2.4-1.056-2.4-2.4V4.728c0-1.32 1.08-2.4 2.4-2.4Zm0 16.272h7.056V4.728h-7.056V18.6Zm20.082 0h2.328v-4.848c0-.696.312-1.2 1.2-1.2.888 0 1.2.504 1.2 1.2V19.8c0 .864-.576 1.2-1.2 1.2h-9.456c-.624 0-1.2-.336-1.2-1.2 0-.864.576-1.2 1.2-1.2h3.528V4.728h-3.528c-.624 0-1.2-.336-1.2-1.2 0-.864.576-1.2 1.2-1.2h5.928V18.6Zm25.979-5.736V18.6h8.256c.624 0 1.2.336 1.2 1.2 0 .864-.576 1.2-1.2 1.2h-10.656v-7.824c0-1.8.912-2.712 2.712-2.712h6.744V4.728h-8.256c-.624 0-1.2-.336-1.2-1.2 0-.864.576-1.2 1.2-1.2h7.968c.792 0 1.344.12 1.944.672.672.624.744 1.272.744 2.136v4.92c0 .864-.072 1.512-.744 2.136-.6.552-1.152.672-1.944.672h-6.768Zm20.081 5.736h2.328v-4.848c0-.696.312-1.2 1.2-1.2.888 0 1.2.504 1.2 1.2V19.8c0 .864-.576 1.2-1.2 1.2h-9.456c-.624 0-1.2-.336-1.2-1.2 0-.864.576-1.2 1.2-1.2h3.528V4.728h-3.528c-.624 0-1.2-.336-1.2-1.2 0-.864.576-1.2 1.2-1.2h5.928V18.6Zm17.682-13.872h-8.256c-.624 0-1.2-.336-1.2-1.2 0-.864.576-1.2 1.2-1.2h8.256c1.368 0 2.4 1.032 2.4 2.4v4.608c0 .96-.192 1.656-.936 2.328.744.672.936 1.368.936 2.328V18.6c0 1.368-1.032 2.4-2.4 2.4h-8.256c-.624 0-1.2-.336-1.2-1.2 0-.864.576-1.2 1.2-1.2h8.256v-3.984c0-1.344-.528-1.752-1.2-1.752h-4.704c-.624 0-1.2-.336-1.2-1.2 0-.864.576-1.2 1.2-1.2h4.704c.672 0 1.2-.408 1.2-1.752V4.728ZM286.703 18.6h2.328v-4.848c0-.696.312-1.2 1.2-1.2.888 0 1.2.504 1.2 1.2V19.8c0 .864-.576 1.2-1.2 1.2h-9.456c-.624 0-1.2-.336-1.2-1.2 0-.864.576-1.2 1.2-1.2h3.528V4.728h-3.528c-.624 0-1.2-.336-1.2-1.2 0-.864.576-1.2 1.2-1.2h5.928V18.6Z" fill="#FFF500"/></svg>