<svg width="34" height="34" viewBox="0 0 34 34" fill="none" xmlns="http://www.w3.org/2000/svg">
<rect width="34" height="34" rx="9" fill="#5662F6"/>
<path d="M25.4427 27.9167L23.3156 26.0417L22.1167 24.9271L20.849 23.75L21.3698 25.5823H10.1531C9.02982 25.5783 8.12213 24.665 8.12501 23.5417V10.1635C8.12328 9.04103 9.03064 8.12902 10.1531 8.125H23.4146C24.5371 8.12902 25.4445 9.04103 25.4427 10.1635V27.9167ZM20.7292 19.0708C20.29 19.6599 19.6576 20.0758 18.9427 20.2458C19.2365 20.6208 19.5906 21.0448 19.5938 21.049C20.7887 21.0742 21.9201 20.5122 22.6219 19.5448C22.5859 17.5393 22.0989 15.5676 21.1969 13.776C20.4028 13.1529 19.4361 12.7892 18.4281 12.7344H18.4167L18.2781 12.8927C19.1785 13.1345 20.0181 13.5625 20.7427 14.149C19.8207 13.6421 18.8088 13.3194 17.7636 13.199C17.0992 13.1252 16.4284 13.1318 15.7656 13.2188C15.7188 13.2197 15.6721 13.2246 15.6261 13.2333H15.5969C14.8202 13.3228 14.0623 13.5337 13.3511 13.8583C12.9948 14.0219 12.7761 14.1406 12.7667 14.1448C12.7573 14.149 12.7667 14.1448 12.7667 14.1375C13.5353 13.533 14.4221 13.0961 15.3698 12.8552L15.2656 12.7365H15.2594C14.2515 12.7914 13.2848 13.1551 12.4906 13.7781C11.5853 15.5685 11.0981 17.5409 11.0656 19.5469C11.7587 20.5207 12.8917 21.0849 14.0865 21.051C14.0865 21.051 14.4594 20.5969 14.75 20.2292C14.0531 20.054 13.4391 19.6415 13.0136 19.0625C13.0208 19.0677 13.124 19.1375 13.2906 19.2292C13.3018 19.2423 13.3157 19.253 13.3313 19.2604C13.3445 19.2695 13.3584 19.2776 13.3729 19.2844C13.3894 19.2919 13.4051 19.3009 13.4198 19.3115C13.6522 19.4396 13.8934 19.551 14.1417 19.6448C14.6136 19.8317 15.1018 19.9746 15.6 20.0719C16.0362 20.1541 16.4791 20.196 16.9229 20.1969C17.3391 20.1968 17.7544 20.1585 18.1636 20.0823C18.6563 19.9958 19.1376 19.8532 19.5979 19.6573C19.9956 19.5043 20.375 19.3077 20.7292 19.0708ZM18.6063 18.626C18.1531 18.6656 17.7221 18.4228 17.521 18.0148C17.3198 17.6067 17.3898 17.1171 17.6972 16.7817C18.0046 16.4464 18.4863 16.3341 18.9103 16.499C19.3343 16.6639 19.6136 17.0722 19.6136 17.5271C19.6365 18.1082 19.1862 18.599 18.6052 18.626H18.6063ZM14.9938 18.626C14.4238 18.5764 13.9864 18.0992 13.9864 17.5271C13.9864 16.955 14.4238 16.4778 14.9938 16.4281C15.2563 16.4289 15.5073 16.536 15.6896 16.725C15.8964 16.9397 16.0089 17.228 16.0021 17.526C16.0262 18.1082 15.5748 18.6001 14.9927 18.626H14.9938Z" fill="white"/>
</svg>
