<svg width="18" height="18" viewBox="0 0 18 18" fill="none" xmlns="http://www.w3.org/2000/svg">
<path d="M9.00146 15.7809C7.15646 15.7809 6.93896 15.7712 6.21896 15.7397C5.65749 15.7212 5.10329 15.6071 4.58021 15.4022C3.6752 15.05 2.95957 14.3341 2.60771 13.4289C2.41069 12.9039 2.30443 12.3493 2.29346 11.7887C2.25146 11.0702 2.25146 10.8347 2.25146 9.00391C2.25146 7.15366 2.26121 6.93766 2.29346 6.22141C2.30467 5.66155 2.41093 5.10766 2.60771 4.58341C2.95919 3.67705 3.67598 2.96054 4.58246 2.60941C5.10645 2.41156 5.66047 2.30501 6.22047 2.29441C6.93672 2.25391 7.17221 2.25391 9.00146 2.25391C10.8615 2.25391 11.0752 2.26366 11.784 2.29441C12.3454 2.30511 12.9009 2.41164 13.4265 2.60941C14.3327 2.96093 15.0493 3.67731 15.4012 4.58341C15.6016 5.1153 15.7084 5.67785 15.717 6.24616C15.759 6.96466 15.759 7.19941 15.759 9.02941C15.759 10.8594 15.7485 11.0994 15.717 11.8097C15.7058 12.3708 15.5993 12.926 15.402 13.4514C15.0492 14.3572 14.3325 15.0733 13.4265 15.4254C12.9016 15.622 12.3473 15.7283 11.787 15.7397C11.0707 15.7809 10.836 15.7809 9.00146 15.7809ZM8.97597 3.44116C7.14147 3.44116 6.95097 3.45016 6.23472 3.48241C5.8072 3.48807 5.38382 3.56696 4.98296 3.71566C4.39103 3.94216 3.92263 4.40865 3.69371 4.99966C3.54387 5.40488 3.46497 5.83289 3.46046 6.26491C3.42071 6.99166 3.42071 7.18216 3.42071 9.00391C3.42071 10.8039 3.42746 11.0222 3.46046 11.7444C3.46718 12.1721 3.54604 12.5955 3.69371 12.9969C3.92297 13.5875 4.39129 14.0537 4.98296 14.2802C5.38355 14.4298 5.8071 14.5088 6.23472 14.5134C6.96072 14.5554 7.15197 14.5554 8.97597 14.5554C10.8157 14.5554 11.0062 14.5464 11.7165 14.5134C12.1443 14.5082 12.568 14.4293 12.969 14.2802C13.5573 14.0517 14.0227 13.5866 14.2515 12.9984C14.401 12.5928 14.4799 12.1646 14.4847 11.7324H14.493C14.5252 11.0154 14.5252 10.8242 14.5252 8.99191C14.5252 7.15966 14.517 6.96691 14.4847 6.25066C14.478 5.82349 14.3991 5.40054 14.2515 4.99966C14.0232 4.41059 13.5578 3.94463 12.969 3.71566C12.5681 3.56621 12.1443 3.4873 11.7165 3.48241C10.9912 3.44116 10.8015 3.44116 8.97597 3.44116ZM9.00146 12.4682C7.59896 12.4691 6.33403 11.625 5.79661 10.3295C5.25919 9.03404 5.55514 7.5424 6.54644 6.55025C7.53773 5.5581 9.02911 5.26086 10.325 5.79716C11.621 6.33345 12.4662 7.59765 12.4665 9.00016C12.4644 10.9135 10.9148 12.4644 9.00146 12.4682ZM9.00146 6.74866C7.75882 6.74866 6.75146 7.75602 6.75146 8.99866C6.75146 10.2413 7.75882 11.2487 9.00146 11.2487C10.2441 11.2487 11.2515 10.2413 11.2515 8.99866C11.2486 7.75721 10.2429 6.75154 9.00146 6.74866ZM12.6015 6.21391C12.1555 6.21225 11.7951 5.84985 11.796 5.40391C11.7968 4.95798 12.1585 4.59691 12.6045 4.59691C13.0504 4.59691 13.4121 4.95797 13.413 5.40391C13.4132 5.61905 13.3277 5.82542 13.1754 5.97741C13.0231 6.12941 12.8166 6.2145 12.6015 6.21391Z" fill="#2B2B2B"/>
</svg>
