<svg width="13" height="12" viewBox="0 0 13 12" fill="none" xmlns="http://www.w3.org/2000/svg">
<path fill-rule="evenodd" clip-rule="evenodd" d="M6.39575 2.69414C5.84868 2.70017 4.95668 2.90749 4.55058 3.10706C4.30526 2.72065 3.8399 1.82857 3.66744 1.45483C3.27535 0.605115 1.63621 -0.554134 0.488124 0.298628C-0.266622 0.859229 0.0154895 1.75251 0.268114 2.55242C0.399772 2.9693 0.52342 3.36082 0.48812 3.66668C0.385087 4.55941 0.37037 5.55874 0.914975 5.90518C1.09684 6.02086 1.29187 6.16843 1.47201 6.31533C1.84168 6.61676 1.91982 7.12815 1.88608 7.60395C1.86583 7.88949 1.90269 8.18426 2.06306 8.39684C2.19807 8.5758 2.32992 8.71329 2.4467 8.83508C2.68644 9.08507 2.86271 9.2689 2.87261 9.60936C2.88733 10.1157 3.52025 10.7686 4.2562 10.8619C4.58442 10.9035 4.85116 11.0564 5.13475 11.2189C5.48192 11.4179 5.85435 11.6314 6.39575 11.6729V11.6746C6.39978 11.6744 6.40381 11.6741 6.40783 11.6738C6.41184 11.6741 6.41587 11.6744 6.41991 11.6746V11.6729C6.9613 11.6314 7.33373 11.4179 7.6809 11.2189C7.9645 11.0564 8.23124 10.9035 8.55945 10.8619C9.2954 10.7686 9.92832 10.1157 9.94304 9.60936C9.95294 9.2689 10.1292 9.08507 10.3689 8.83508C10.4857 8.71329 10.6176 8.5758 10.7526 8.39684C10.913 8.18426 10.9498 7.88949 10.9296 7.60395C10.8958 7.12815 10.974 6.61676 11.3436 6.31533C11.5238 6.16843 11.7188 6.02086 11.9007 5.90518C12.4453 5.55874 12.4306 4.55941 12.3275 3.66668C12.2922 3.36082 12.4159 2.9693 12.5475 2.55242C12.8002 1.75251 13.0823 0.859229 12.3275 0.298628C11.1794 -0.554134 9.54031 0.605115 9.14821 1.45483C8.97576 1.82857 8.51039 2.72065 8.26507 3.10706C7.85897 2.90749 6.96697 2.70017 6.41991 2.69414V2.694C6.4159 2.694 6.41187 2.69401 6.40783 2.69404C6.40378 2.69401 6.39975 2.694 6.39575 2.694V2.69414Z" fill="#FF42CA"/>
</svg>
