<svg width="36" height="33" viewBox="0 0 36 33" fill="none" xmlns="http://www.w3.org/2000/svg">
<path fill-rule="evenodd" clip-rule="evenodd" d="M17.559 8.23444C16.0571 8.25099 13.6082 8.82019 12.4933 9.36808C11.8198 8.30723 10.5421 5.85808 10.0687 4.83202C8.9922 2.49919 4.49209 -0.68344 1.34011 1.65775C-0.73199 3.19684 0.0425253 5.64926 0.736087 7.84536C1.09754 8.98987 1.43701 10.0648 1.3401 10.9045C1.05723 13.3554 1.01682 16.099 2.51199 17.0501C3.40038 17.6152 4.4032 18.4575 5.08668 19.0733C5.44105 19.3925 5.54026 19.8987 5.41498 20.359C5.1258 21.4213 4.95386 22.9495 5.66398 23.8908C6.03463 24.3821 6.3966 24.7595 6.71723 25.0939C7.3754 25.7802 7.85936 26.2849 7.88653 27.2196C7.92694 28.6097 9.66457 30.4022 11.6851 30.6583C12.5862 30.7725 13.3185 31.1922 14.0971 31.6385C15.0502 32.1849 16.0727 32.771 17.559 32.885V32.8897C17.5701 32.889 17.5811 32.8882 17.5922 32.8874C17.6032 32.8882 17.6143 32.889 17.6253 32.8897V32.885C19.1117 32.771 20.1342 32.1849 21.0873 31.6385C21.8659 31.1922 22.5982 30.7725 23.4993 30.6583C25.5198 30.4022 27.2574 28.6097 27.2978 27.2196C27.325 26.2849 27.809 25.7802 28.4671 25.0939C28.7878 24.7595 29.1497 24.3821 29.5204 23.8908C30.2305 22.9495 30.0586 21.4213 29.7694 20.359C29.6441 19.8987 29.7433 19.3925 30.0977 19.0733C30.7812 18.4575 31.784 17.6152 32.6724 17.0501C34.1676 16.099 34.1271 13.3554 33.8443 10.9045C33.7474 10.0648 34.0868 8.98987 34.4483 7.84536C35.1418 5.64926 35.9164 3.19684 33.8443 1.65775C30.6923 -0.68344 26.1922 2.49919 25.1157 4.83202C24.6422 5.85808 23.3646 8.30723 22.6911 9.36808C21.5762 8.82019 19.1273 8.25099 17.6253 8.23444V8.23407C17.6143 8.23407 17.6033 8.2341 17.5922 8.23416C17.5811 8.2341 17.57 8.23407 17.559 8.23407V8.23444Z" fill="#060807"/>
<path d="M22.5217 19.8264C21.4824 17.7766 18.7558 17.2235 17.5223 17.2031V23.4562C19.5693 23.6392 18.254 27.7385 23.8207 28.2146C26.3717 28.4329 26.8518 26.3235 26.0645 25.4084C25.2772 24.4933 23.8207 22.3886 22.5217 19.8264Z" fill="white"/>
<path d="M12.5949 19.8264C13.6341 17.7766 16.3608 17.2235 17.5942 17.2031V23.4562C15.5473 23.6392 16.8626 27.7385 11.2959 28.2146C8.74485 28.4329 8.26479 26.3235 9.05209 25.4084C9.83938 24.4933 11.2959 22.3886 12.5949 19.8264Z" fill="white"/>
<path fill-rule="evenodd" clip-rule="evenodd" d="M17.4907 18.186C17.0603 18.0878 16.169 17.9343 15.7708 18.0481C15.2587 18.1944 13.832 19.9869 14.5271 20.8283C14.8647 21.237 15.2645 21.3877 15.5919 21.4211C15.8603 21.4485 16.1547 21.627 16.339 21.824C16.5428 22.0419 16.8922 22.2382 17.4535 22.2539V22.2552C17.4688 22.2552 17.484 22.2551 17.499 22.2548C17.5082 22.2549 17.5174 22.2549 17.5267 22.2549V22.2542C18.088 22.2384 18.4375 22.0421 18.6413 21.8242C18.8256 21.6273 19.12 21.4487 19.3883 21.4213C19.7158 21.3879 20.1155 21.2373 20.4532 20.8285C21.1482 19.9872 19.7216 18.1946 19.2094 18.0483C18.8115 17.9346 17.9214 18.0878 17.4907 18.186Z" fill="#060807"/>
</svg>
