<svg width="11" height="10" viewBox="0 0 11 10" fill="none" xmlns="http://www.w3.org/2000/svg">
<path fill-rule="evenodd" clip-rule="evenodd" d="M5.29997 2.5578C4.84661 2.56282 4.10752 2.73462 3.77102 2.89998C3.56772 2.57977 3.18208 1.84051 3.03916 1.5308C2.71424 0.826647 1.35591 -0.134009 0.404503 0.572665C-0.220947 1.03723 0.012836 1.77748 0.222183 2.44036C0.331286 2.78582 0.433753 3.11027 0.4045 3.36373C0.319117 4.10353 0.306921 4.93166 0.758229 5.21875C0.873974 5.29238 0.996155 5.38159 1.11424 5.47416C1.48963 5.76845 1.5525 6.28469 1.55891 6.76163C1.56148 6.95346 1.60198 7.14085 1.70964 7.28356C1.82151 7.43186 1.93078 7.5458 2.02756 7.64672C2.22622 7.85389 2.3723 8.00623 2.3805 8.28836C2.3927 8.70795 2.91719 9.249 3.52707 9.32629C3.79905 9.36076 4.0201 9.48747 4.25511 9.62218C4.54278 9.78709 4.85138 9.96398 5.29997 9.9984V9.99984C5.30334 9.99962 5.30669 9.99938 5.31004 9.99915C5.31339 9.99938 5.31674 9.99962 5.3201 9.99984V9.9984C5.76869 9.96398 6.0773 9.78709 6.36497 9.62218C6.59998 9.48747 6.82102 9.36076 7.09301 9.32629C7.70288 9.249 8.22738 8.70795 8.23957 8.28836C8.24778 8.00623 8.39386 7.85389 8.59252 7.64672C8.6893 7.5458 8.79856 7.43186 8.91044 7.28356C9.0181 7.14085 9.05859 6.95346 9.06117 6.76163C9.06757 6.28469 9.13045 5.76845 9.50583 5.47416C9.62392 5.38159 9.7461 5.29238 9.86185 5.21875C10.3132 4.93166 10.301 4.10353 10.2156 3.36373C10.1863 3.11027 10.2888 2.78582 10.3979 2.44036C10.6072 1.77748 10.841 1.03723 10.2156 0.572665C9.26417 -0.134009 7.90583 0.826647 7.58091 1.5308C7.438 1.84051 7.05235 2.57977 6.84906 2.89998C6.51256 2.73462 5.77346 2.56282 5.3201 2.5578V2.55769C5.31676 2.55769 5.31341 2.55769 5.31004 2.55771C5.30667 2.55769 5.30331 2.55769 5.29997 2.55769V2.5578Z" fill="#060807"/>
</svg>
