<svg width="17" height="17" viewBox="0 0 17 17" fill="none" xmlns="http://www.w3.org/2000/svg">
<path d="M17 8.5C17 13.1942 13.1942 17 8.5 17C3.80584 17 0 13.1942 0 8.5C0 3.80584 3.80584 0 8.5 0C13.1951 0 17 3.80584 17 8.5Z" fill="#2B2B2B"/>
<path d="M4.19379 8.78567L4.23046 8.72803L6.44165 5.2689C6.47396 5.21826 6.54994 5.22349 6.57438 5.2785C6.94379 6.10639 7.26254 7.13601 7.11321 7.77701C7.04946 8.04075 6.87481 8.39792 6.6783 8.72803C6.65299 8.77607 6.62504 8.82323 6.59534 8.86863C6.58137 8.88959 6.55779 8.90182 6.53246 8.90182H4.2584C4.19727 8.90182 4.16147 8.83545 4.19379 8.78567Z" fill="white"/>
<path d="M14.0499 9.42827V9.97582C14.0499 10.0073 14.0306 10.0352 14.0027 10.0474C13.8315 10.1208 13.2456 10.3898 13.0019 10.7286C12.3801 11.594 11.9051 12.8315 10.8431 12.8315H6.41288C4.84271 12.8315 3.57031 11.5548 3.57031 9.97931V9.92867C3.57031 9.88674 3.60436 9.85269 3.64629 9.85269H6.11598C6.16487 9.85269 6.20067 9.8981 6.19632 9.94613C6.17884 10.1068 6.20854 10.271 6.28452 10.4203C6.43123 10.7181 6.73513 10.9041 7.06349 10.9041H8.28611V9.94963H7.07746C7.01546 9.94963 6.9788 9.87801 7.0146 9.82736C7.02769 9.80727 7.04255 9.78633 7.05825 9.76275C7.17266 9.60031 7.33597 9.34793 7.4984 9.06061C7.60931 8.86674 7.71671 8.65977 7.80318 8.45193C7.82065 8.41437 7.83461 8.37594 7.84858 8.33839C7.87216 8.27202 7.89663 8.21002 7.91408 8.14802C7.93156 8.09561 7.94552 8.0406 7.95949 7.98907C8.00055 7.81266 8.018 7.62578 8.018 7.43191C8.018 7.35594 8.01452 7.27646 8.00753 7.20049C8.00403 7.11753 7.99356 7.03455 7.98307 6.95159C7.97608 6.87824 7.96299 6.80575 7.94902 6.72978C7.93156 6.61887 7.9071 6.50884 7.87915 6.39792L7.86954 6.35602C7.84858 6.28003 7.83112 6.20755 7.80668 6.13158C7.73768 5.89316 7.65822 5.66087 7.57437 5.44342C7.54381 5.35696 7.50887 5.274 7.47394 5.19104C7.42243 5.06616 7.37002 4.95263 7.32199 4.84521C7.29754 4.7963 7.27658 4.75176 7.25562 4.70635C7.23204 4.65483 7.2076 4.6033 7.18314 4.55441C7.16568 4.51685 7.14558 4.48192 7.13161 4.44698L6.98228 4.17102C6.96132 4.13347 6.99625 4.08893 7.03729 4.10029L7.97173 4.35353H7.97435C7.97608 4.35353 7.97697 4.35442 7.97783 4.35442L8.10097 4.38847L8.23634 4.42691L8.28611 4.44086V3.88546C8.28611 3.61735 8.50094 3.3999 8.76643 3.3999C8.89917 3.3999 9.01968 3.45405 9.10614 3.54224C9.19259 3.63046 9.24673 3.75097 9.24673 3.88546V4.70985L9.3463 4.73779C9.35415 4.74042 9.36201 4.74391 9.369 4.74914C9.39346 4.76748 9.42838 4.79455 9.47292 4.82775C9.50785 4.85568 9.5454 4.88975 9.59081 4.92468C9.68076 4.99715 9.78818 5.0906 9.90608 5.19803C9.93751 5.22509 9.96808 5.25304 9.99602 5.28099C10.148 5.42246 10.3183 5.58838 10.4807 5.77178C10.5261 5.8233 10.5707 5.8757 10.6161 5.93071C10.6615 5.98661 10.7095 6.04162 10.7514 6.09665C10.8064 6.17 10.8658 6.24597 10.9174 6.32545C10.9418 6.363 10.9697 6.40142 10.9933 6.43898C11.0597 6.53939 11.1182 6.64333 11.1741 6.74725C11.1977 6.79528 11.2221 6.84767 11.2431 6.8992C11.3051 7.03805 11.354 7.17953 11.3854 7.321C11.395 7.35157 11.402 7.38475 11.4055 7.41445V7.42144C11.416 7.46334 11.4195 7.50788 11.423 7.55329C11.437 7.69827 11.43 7.84323 11.3985 7.98907C11.3854 8.05108 11.368 8.10958 11.347 8.1716C11.3261 8.23098 11.3051 8.29298 11.278 8.35149C11.2256 8.47287 11.1636 8.59427 11.0903 8.7078C11.0667 8.74972 11.0387 8.79426 11.0108 8.83618C10.9802 8.8807 10.9488 8.92262 10.9208 8.96368C10.8824 9.01607 10.8414 9.07108 10.7995 9.11999C10.7619 9.17152 10.7235 9.22305 10.6816 9.26846C10.6231 9.33744 10.5672 9.40294 10.5086 9.46583C10.4737 9.50686 10.4362 9.54878 10.3977 9.58634C10.3602 9.62824 10.3218 9.6658 10.2868 9.70073C10.2283 9.75924 10.1794 9.80465 10.1384 9.84221L10.0423 9.93042C10.0283 9.94264 10.01 9.94963 9.99079 9.94963H9.24673V10.9041H10.1829C10.3925 10.9041 10.5916 10.8299 10.7523 10.6937C10.8073 10.6456 11.0475 10.4378 11.3313 10.1243C11.3409 10.1138 11.3531 10.1059 11.3671 10.1025L13.9529 9.35492C14.001 9.34094 14.0499 9.37761 14.0499 9.42827Z" fill="white"/>
</svg>
