<svg width="15" height="15" viewBox="0 0 15 15" fill="none" xmlns="http://www.w3.org/2000/svg">
<path d="M15 7.5C15 11.6419 11.6419 15 7.5 15C3.3581 15 0 11.6419 0 7.5C0 3.3581 3.3581 0 7.5 0C11.6428 0 15 3.3581 15 7.5Z" fill="white"/>
<path d="M3.70017 7.75209L3.73252 7.70123L5.68357 4.64906C5.71209 4.60437 5.77912 4.60899 5.80069 4.65753C6.12664 5.38802 6.4079 6.29651 6.27614 6.8621C6.21989 7.09481 6.06578 7.40996 5.89239 7.70123C5.87006 7.74362 5.8454 7.78523 5.81919 7.82529C5.80686 7.84379 5.78606 7.85457 5.76371 7.85457H3.75718C3.70324 7.85457 3.67165 7.79601 3.70017 7.75209Z" fill="#1F1F1F"/>
<path d="M12.397 8.31915V8.80228C12.397 8.83002 12.3801 8.85468 12.3554 8.86546C12.2044 8.93019 11.6874 9.16752 11.4724 9.4665C10.9237 10.2301 10.5046 11.322 9.56757 11.322H5.65854C4.2731 11.322 3.15039 10.1955 3.15039 8.80536V8.76067C3.15039 8.72368 3.18044 8.69364 3.21743 8.69364H5.39657C5.43971 8.69364 5.4713 8.7337 5.46746 8.77608C5.45204 8.91786 5.47824 9.06273 5.54528 9.19449C5.67473 9.45726 5.94288 9.62139 6.2326 9.62139H7.31139V8.77917H6.24494C6.19023 8.77917 6.15788 8.71597 6.18947 8.67129C6.20102 8.65356 6.21413 8.63508 6.22799 8.61427C6.32894 8.47095 6.47303 8.24826 6.61635 7.99474C6.71421 7.82368 6.80898 7.64106 6.88527 7.45767C6.90069 7.42453 6.91301 7.39062 6.92534 7.35748C6.94614 7.29892 6.96773 7.24422 6.98313 7.18951C6.99855 7.14327 7.01086 7.09473 7.02319 7.04926C7.05942 6.89361 7.07482 6.72871 7.07482 6.55765C7.07482 6.49062 7.07175 6.42049 7.06558 6.35346C7.06249 6.28026 7.05326 6.20704 7.044 6.13384C7.03784 6.06912 7.02628 6.00516 7.01395 5.93812C6.99855 5.84026 6.97696 5.74318 6.95231 5.64531L6.94383 5.60833C6.92534 5.54128 6.90993 5.47734 6.88836 5.4103C6.82748 5.19993 6.75736 4.99497 6.68338 4.8031C6.65641 4.72681 6.62559 4.65361 6.59477 4.58041C6.54932 4.47022 6.50307 4.37005 6.4607 4.27527C6.43912 4.23211 6.42063 4.19281 6.40213 4.15275C6.38133 4.10728 6.35976 4.06182 6.33818 4.01868C6.32277 3.98554 6.30504 3.95472 6.29271 3.92389L6.16095 3.6804C6.14246 3.64726 6.17328 3.60796 6.20949 3.61798L7.034 3.84144H7.03631C7.03784 3.84144 7.03862 3.84222 7.03938 3.84222L7.14803 3.87226L7.26747 3.90618L7.31139 3.91849V3.42843C7.31139 3.19186 7.50094 3 7.7352 3C7.85232 3 7.95865 3.04777 8.03495 3.12559C8.11122 3.20343 8.159 3.30976 8.159 3.42843V4.15584L8.24685 4.18048C8.25378 4.18281 8.26071 4.18588 8.26687 4.1905C8.28846 4.20669 8.31927 4.23057 8.35857 4.25986C8.38939 4.28451 8.42253 4.31457 8.46259 4.34539C8.54196 4.40934 8.63674 4.49179 8.74077 4.58658C8.7685 4.61046 8.79548 4.63512 8.82014 4.65978C8.95422 4.78461 9.10447 4.93101 9.2478 5.09283C9.28786 5.13829 9.32716 5.18452 9.36723 5.23306C9.40729 5.28238 9.44968 5.33092 9.48666 5.37948C9.53521 5.4442 9.58761 5.51124 9.63308 5.58136C9.65464 5.6145 9.67931 5.6484 9.70011 5.68153C9.75867 5.77014 9.8103 5.86185 9.85962 5.95354C9.88042 5.99592 9.902 6.04215 9.92049 6.08761C9.97519 6.21013 10.0183 6.33496 10.0461 6.45979C10.0546 6.48676 10.0607 6.51604 10.0638 6.54225V6.54841C10.0731 6.58539 10.0761 6.62469 10.0792 6.66475C10.0915 6.79267 10.0854 6.92058 10.0576 7.04926C10.0461 7.10398 10.0307 7.1556 10.0122 7.21032C9.99369 7.26271 9.97519 7.31742 9.95131 7.36905C9.90508 7.47615 9.85036 7.58326 9.78564 7.68343C9.76483 7.72042 9.74017 7.75972 9.71551 7.79671C9.68854 7.836 9.66081 7.87299 9.63615 7.90921C9.60225 7.95544 9.56604 8.00398 9.52905 8.04714C9.49591 8.0926 9.46201 8.13807 9.42502 8.17813C9.37339 8.239 9.32407 8.2968 9.27244 8.35228C9.24163 8.38849 9.2085 8.42548 9.17458 8.45862C9.14146 8.49559 9.10755 8.52873 9.07672 8.55955C9.02511 8.61118 8.98196 8.65125 8.94573 8.68438L8.86098 8.76222C8.84865 8.773 8.83247 8.77917 8.81552 8.77917H8.159V9.62139H8.98503C9.16996 9.62139 9.34566 9.55588 9.48744 9.43567C9.53598 9.3933 9.74788 9.20991 9.99831 8.93328C10.0068 8.92402 10.0176 8.91709 10.0299 8.91402L12.3115 8.25442C12.3539 8.24209 12.397 8.27445 12.397 8.31915Z" fill="#1F1F1F"/>
</svg>
