<svg width="455" height="313" viewBox="0 0 455 313" fill="none" xmlns="http://www.w3.org/2000/svg">
<path d="M55.1172 239.549C55.1172 240.408 54.8359 241.107 54.2734 241.646C53.707 242.186 52.9512 242.455 52.0059 242.455L51.8066 242.455C51.1777 242.455 50.6172 242.336 50.125 242.098C49.6289 241.855 49.2422 241.52 48.9648 241.09C48.6836 240.656 48.543 240.187 48.543 239.684C48.543 238.859 48.8145 238.219 49.3574 237.762C49.9004 237.305 50.6777 237.076 51.6895 237.076L52.1406 237.076L52.1406 241.371C52.7656 241.355 53.2715 241.174 53.6582 240.826C54.041 240.475 54.2324 240.029 54.2324 239.49C54.2324 239.107 54.1543 238.783 53.998 238.518C53.8418 238.252 53.6348 238.02 53.377 237.82L53.8926 237.158C54.709 237.689 55.1172 238.486 55.1172 239.549ZM49.4336 239.684C49.4336 240.121 49.5937 240.488 49.9141 240.785C50.2305 241.082 50.6758 241.266 51.25 241.336L51.25 238.16L51.168 238.16C50.6172 238.191 50.1914 238.34 49.8906 238.605C49.5859 238.871 49.4336 239.23 49.4336 239.684ZM53.5293 233.807L48.6602 232.236L48.6602 231.129L55 233.402L55 234.229L48.6602 236.525L48.6602 235.418L53.5293 233.807ZM55.1172 227.537C55.1172 228.396 54.8359 229.096 54.2734 229.635C53.707 230.174 52.9512 230.443 52.0059 230.443L51.8066 230.443C51.1777 230.443 50.6172 230.324 50.125 230.086C49.6289 229.844 49.2422 229.508 48.9648 229.078C48.6836 228.645 48.543 228.176 48.543 227.672C48.543 226.848 48.8145 226.207 49.3574 225.75C49.9004 225.293 50.6777 225.064 51.6895 225.064L52.1406 225.064L52.1406 229.359C52.7656 229.344 53.2715 229.162 53.6582 228.814C54.041 228.463 54.2324 228.018 54.2324 227.479C54.2324 227.096 54.1543 226.771 53.998 226.506C53.8418 226.24 53.6348 226.008 53.377 225.809L53.8926 225.146C54.709 225.678 55.1172 226.475 55.1172 227.537ZM49.4336 227.672C49.4336 228.109 49.5937 228.477 49.9141 228.773C50.2305 229.07 50.6758 229.254 51.25 229.324L51.25 226.148L51.168 226.148C50.6172 226.18 50.1914 226.328 49.8906 226.594C49.5859 226.859 49.4336 227.219 49.4336 227.672ZM49.6328 220.74C49.6055 220.904 49.5918 221.082 49.5918 221.273C49.5918 221.984 49.8945 222.467 50.5 222.721L55 222.721L55 223.805L48.6602 223.805L48.6602 222.75L49.3926 222.732C48.8262 222.377 48.543 221.873 48.543 221.221C48.543 221.01 48.5703 220.85 48.625 220.74L49.6328 220.74ZM53.4121 217.559L48.6602 216.082L48.6602 214.922L55.9785 217.471C57.0332 217.865 57.5605 218.492 57.5605 219.352L57.543 219.557L57.4668 219.961L56.5879 219.961L56.6113 219.668C56.6113 219.301 56.5371 219.016 56.3887 218.812C56.2402 218.605 55.9687 218.436 55.5742 218.303L54.9297 218.062L48.6602 220.324L48.6602 219.141L53.4121 217.559ZM49.6328 207.908C49.6055 208.072 49.5918 208.25 49.5918 208.441C49.5918 209.152 49.8945 209.635 50.5 209.889L55 209.889L55 210.973L48.6602 210.973L48.6602 209.918L49.3926 209.9C48.8262 209.545 48.543 209.041 48.543 208.389C48.543 208.178 48.5703 208.018 48.625 207.908L49.6328 207.908ZM55.1172 204.393C55.1172 205.252 54.8359 205.951 54.2734 206.49C53.707 207.029 52.9512 207.299 52.0059 207.299L51.8066 207.299C51.1777 207.299 50.6172 207.18 50.125 206.941C49.6289 206.699 49.2422 206.363 48.9648 205.934C48.6836 205.5 48.543 205.031 48.543 204.527C48.543 203.703 48.8145 203.062 49.3574 202.605C49.9004 202.148 50.6777 201.92 51.6895 201.92L52.1406 201.92L52.1406 206.215C52.7656 206.199 53.2715 206.018 53.6582 205.67C54.041 205.318 54.2324 204.873 54.2324 204.334C54.2324 203.951 54.1543 203.627 53.998 203.361C53.8418 203.096 53.6348 202.863 53.377 202.664L53.8926 202.002C54.709 202.533 55.1172 203.33 55.1172 204.393ZM49.4336 204.527C49.4336 204.965 49.5937 205.332 49.9141 205.629C50.2305 205.926 50.6758 206.109 51.25 206.18L51.25 203.004L51.168 203.004C50.6172 203.035 50.1914 203.184 49.8906 203.449C49.5859 203.715 49.4336 204.074 49.4336 204.527ZM55 200.127L49.498 200.127L49.498 201.129L48.6602 201.129L48.6602 200.127L48.0098 200.127C47.3301 200.127 46.8047 199.945 46.4336 199.582C46.0625 199.219 45.877 198.705 45.877 198.041C45.877 197.791 45.9102 197.543 45.9766 197.297L46.8555 197.355C46.8203 197.539 46.8027 197.734 46.8027 197.941C46.8027 198.293 46.9062 198.564 47.1133 198.756C47.3164 198.947 47.6094 199.043 47.9922 199.043L48.6602 199.043L48.6602 197.689L49.498 197.689L49.498 199.043L55 199.043L55 200.127ZM55.1172 193.998C55.1172 194.857 54.8359 195.557 54.2734 196.096C53.707 196.635 52.9512 196.904 52.0059 196.904L51.8066 196.904C51.1777 196.904 50.6172 196.785 50.125 196.547C49.6289 196.305 49.2422 195.969 48.9648 195.539C48.6836 195.105 48.543 194.637 48.543 194.133C48.543 193.309 48.8145 192.668 49.3574 192.211C49.9004 191.754 50.6777 191.525 51.6895 191.525L52.1406 191.525L52.1406 195.82C52.7656 195.805 53.2715 195.623 53.6582 195.275C54.041 194.924 54.2324 194.479 54.2324 193.939C54.2324 193.557 54.1543 193.232 53.998 192.967C53.8418 192.701 53.6348 192.469 53.377 192.27L53.8926 191.607C54.709 192.139 55.1172 192.936 55.1172 193.998ZM49.4336 194.133C49.4336 194.57 49.5937 194.937 49.9141 195.234C50.2305 195.531 50.6758 195.715 51.25 195.785L51.25 192.609L51.168 192.609C50.6172 192.641 50.1914 192.789 49.8906 193.055C49.5859 193.32 49.4336 193.68 49.4336 194.133ZM49.6328 187.201C49.6055 187.365 49.5918 187.543 49.5918 187.734C49.5918 188.445 49.8945 188.928 50.5 189.182L55 189.182L55 190.266L48.6602 190.266L48.6602 189.211L49.3926 189.193C48.8262 188.838 48.543 188.334 48.543 187.682C48.543 187.471 48.5703 187.311 48.625 187.201L49.6328 187.201ZM49.6328 183.135C49.6055 183.299 49.5918 183.477 49.5918 183.668C49.5918 184.379 49.8945 184.861 50.5 185.115L55 185.115L55 186.199L48.6602 186.199L48.6602 185.145L49.3926 185.127C48.8262 184.771 48.543 184.268 48.543 183.615C48.543 183.404 48.5703 183.244 48.625 183.135L49.6328 183.135ZM55.1172 179.619C55.1172 180.479 54.8359 181.178 54.2734 181.717C53.707 182.256 52.9512 182.525 52.0059 182.525L51.8066 182.525C51.1777 182.525 50.6172 182.406 50.125 182.168C49.6289 181.926 49.2422 181.59 48.9648 181.16C48.6836 180.727 48.543 180.258 48.543 179.754C48.543 178.93 48.8145 178.289 49.3574 177.832C49.9004 177.375 50.6777 177.146 51.6895 177.146L52.1406 177.146L52.1406 181.441C52.7656 181.426 53.2715 181.244 53.6582 180.896C54.041 180.545 54.2324 180.1 54.2324 179.561C54.2324 179.178 54.1543 178.854 53.998 178.588C53.8418 178.322 53.6348 178.09 53.377 177.891L53.8926 177.229C54.709 177.76 55.1172 178.557 55.1172 179.619ZM49.4336 179.754C49.4336 180.191 49.5937 180.559 49.9141 180.855C50.2305 181.152 50.6758 181.336 51.25 181.406L51.25 178.23L51.168 178.23C50.6172 178.262 50.1914 178.41 49.8906 178.676C49.5859 178.941 49.4336 179.301 49.4336 179.754ZM51.7773 176.15C50.8047 176.15 50.0234 175.92 49.4336 175.459C48.8398 174.998 48.543 174.395 48.543 173.648C48.543 172.906 48.7969 172.318 49.3047 171.885L46 171.885L46 170.801L55 170.801L55 171.797L54.3203 171.85C54.8516 172.283 55.1172 172.887 55.1172 173.66C55.1172 174.395 54.8164 174.994 54.2148 175.459C53.6133 175.92 52.8281 176.15 51.8594 176.15L51.7773 176.15ZM51.9004 175.066C52.6191 175.066 53.1816 174.918 53.5879 174.621C53.9941 174.324 54.1973 173.914 54.1973 173.391C54.1973 172.703 53.8887 172.201 53.2715 171.885L50.3594 171.885C49.7617 172.209 49.4629 172.707 49.4629 173.379C49.4629 173.91 49.668 174.324 50.0781 174.621C50.4883 174.918 51.0957 175.066 51.9004 175.066ZM55 159.41L55 160.541L48.4258 164.836L55 164.836L55 165.967L46.4687 165.967L46.4687 164.836L53.0723 160.529L46.4687 160.529L46.4687 159.41L55 159.41ZM51.2324 152.707L51.2324 156.287L55 156.287L55 157.412L46.4687 157.412L46.4687 152.127L47.3945 152.127L47.3945 156.287L50.3125 156.287L50.3125 152.707L51.2324 152.707ZM47.3945 144.768L47.3945 147.51L55 147.51L55 148.629L47.3945 148.629L47.3945 151.365L46.4687 151.365L46.4687 144.768L47.3945 144.768ZM48.6602 139.91L49.3633 139.881C48.8164 139.416 48.543 138.789 48.543 138C48.543 137.113 48.8828 136.51 49.5625 136.189C49.2578 135.979 49.0117 135.705 48.8242 135.369C48.6367 135.029 48.543 134.629 48.543 134.168C48.543 132.777 49.2793 132.07 50.7519 132.047L55 132.047L55 133.131L50.8164 133.131C50.3633 133.131 50.0254 133.234 49.8027 133.441C49.5762 133.648 49.4629 133.996 49.4629 134.484C49.4629 134.887 49.584 135.221 49.8262 135.486C50.0644 135.752 50.3867 135.906 50.793 135.949L55 135.949L55 137.039L50.8457 137.039C49.9238 137.039 49.4629 137.49 49.4629 138.393C49.4629 139.104 49.7656 139.59 50.3711 139.852L55 139.852L55 140.936L48.6602 140.936L48.6602 139.91ZM55 129.229L55 130.312L48.6602 130.312L48.6602 129.229L55 129.229ZM46.9785 130.4C46.8027 130.4 46.6543 130.348 46.5332 130.242C46.4121 130.133 46.3516 129.973 46.3516 129.762C46.3516 129.551 46.4121 129.391 46.5332 129.281C46.6543 129.172 46.8027 129.117 46.9785 129.117C47.1543 129.117 47.3008 129.172 47.418 129.281C47.5352 129.391 47.5937 129.551 47.5937 129.762C47.5937 129.973 47.5352 130.133 47.418 130.242C47.3008 130.348 47.1543 130.4 46.9785 130.4ZM48.6602 126.463L49.457 126.428C48.8477 125.943 48.543 125.311 48.543 124.529C48.543 123.189 49.2988 122.514 50.8105 122.502L55 122.502L55 123.586L50.8047 123.586C50.3477 123.59 50.0098 123.695 49.791 123.902C49.5723 124.105 49.4629 124.424 49.4629 124.857C49.4629 125.209 49.5566 125.518 49.7441 125.783C49.9316 126.049 50.1777 126.256 50.4824 126.404L55 126.404L55 127.488L48.6602 127.488L48.6602 126.463ZM47.125 119.396L48.6602 119.396L48.6602 118.213L49.498 118.213L49.498 119.396L53.4297 119.396C53.6836 119.396 53.875 119.344 54.0039 119.238C54.1289 119.133 54.1914 118.953 54.1914 118.699C54.1914 118.574 54.168 118.402 54.1211 118.184L55 118.184C55.0781 118.469 55.1172 118.746 55.1172 119.016C55.1172 119.5 54.9707 119.865 54.6777 120.111C54.3848 120.357 53.9687 120.48 53.4297 120.48L49.498 120.48L49.498 121.635L48.6602 121.635L48.6602 120.48L47.125 120.48L47.125 119.396Z" fill="#131313"/>
<path d="M155.361 136.941C156.631 136.941 157.574 137.158 158.191 137.592C158.809 138.025 159.117 138.703 159.117 139.625C159.117 140.535 158.816 141.209 158.215 141.646C157.609 142.084 156.707 142.311 155.508 142.326L154.061 142.326C152.807 142.326 151.875 142.109 151.266 141.676C150.656 141.242 150.352 140.562 150.352 139.637C150.352 138.719 150.646 138.043 151.236 137.609C151.822 137.176 152.729 136.953 153.955 136.941L155.361 136.941ZM153.879 138.025C152.961 138.025 152.293 138.154 151.875 138.412C151.453 138.67 151.242 139.078 151.242 139.637C151.242 140.191 151.451 140.596 151.869 140.85C152.287 141.104 152.93 141.234 153.797 141.242L155.531 141.242C156.453 141.242 157.135 141.109 157.576 140.844C158.014 140.574 158.232 140.168 158.232 139.625C158.232 139.09 158.025 138.693 157.611 138.436C157.197 138.174 156.545 138.037 155.654 138.025L153.879 138.025ZM160.699 135.477L160.277 136.092C159.766 135.725 159.238 135.533 158.695 135.518L157.717 135.518L157.717 134.457L158.566 134.457C158.961 134.457 159.355 134.555 159.75 134.75C160.145 134.941 160.461 135.184 160.699 135.477ZM155.361 127.848C156.631 127.848 157.574 128.064 158.191 128.498C158.809 128.932 159.117 129.609 159.117 130.531C159.117 131.441 158.816 132.115 158.215 132.553C157.609 132.99 156.707 133.217 155.508 133.232L154.061 133.232C152.807 133.232 151.875 133.016 151.266 132.582C150.656 132.148 150.352 131.469 150.352 130.543C150.352 129.625 150.646 128.949 151.236 128.516C151.822 128.082 152.729 127.859 153.955 127.848L155.361 127.848ZM153.879 128.932C152.961 128.932 152.293 129.061 151.875 129.318C151.453 129.576 151.242 129.984 151.242 130.543C151.242 131.098 151.451 131.502 151.869 131.756C152.287 132.01 152.93 132.141 153.797 132.148L155.531 132.148C156.453 132.148 157.135 132.016 157.576 131.75C158.014 131.48 158.232 131.074 158.232 130.531C158.232 129.996 158.025 129.6 157.611 129.342C157.197 129.08 156.545 128.943 155.654 128.932L153.879 128.932ZM154.723 125.961L150.469 125.527L150.469 121.156L151.471 121.156L151.471 124.607L153.797 124.865C153.551 124.447 153.428 123.973 153.428 123.441C153.428 122.664 153.686 122.047 154.201 121.59C154.713 121.133 155.406 120.904 156.281 120.904C157.16 120.904 157.854 121.143 158.361 121.619C158.865 122.092 159.117 122.754 159.117 123.605C159.117 124.359 158.908 124.975 158.49 125.451C158.072 125.928 157.494 126.199 156.756 126.266L156.756 125.24C157.244 125.174 157.613 125 157.863 124.719C158.109 124.437 158.232 124.066 158.232 123.605C158.232 123.102 158.061 122.707 157.717 122.422C157.373 122.133 156.898 121.988 156.293 121.988C155.723 121.988 155.266 122.145 154.922 122.457C154.574 122.766 154.4 123.178 154.4 123.693C154.4 124.166 154.504 124.537 154.711 124.807L154.945 125.094L154.723 125.961ZM155.057 111.641L155.057 115.338L158.08 115.338L158.08 111.043L159 111.043L159 116.463L150.469 116.463L150.469 111.102L151.395 111.102L151.395 115.338L154.137 115.338L154.137 111.641L155.057 111.641ZM151.395 103.631L151.395 106.373L159 106.373L159 107.492L151.395 107.492L151.395 110.229L150.469 110.229L150.469 103.631L151.395 103.631ZM159 95.8086L159 96.9395L155.057 96.9395L155.057 101.24L159 101.24L159 102.365L150.469 102.365L150.469 101.24L154.137 101.24L154.137 96.9395L150.469 96.9395L150.469 95.8086L159 95.8086ZM159 90.4707L153.498 90.4707L153.498 91.4727L152.66 91.4727L152.66 90.4707L152.01 90.4707C151.33 90.4707 150.805 90.2891 150.434 89.9258C150.062 89.5625 149.877 89.0488 149.877 88.3848C149.877 88.1348 149.91 87.8867 149.977 87.6406L150.855 87.6992C150.82 87.8828 150.803 88.0781 150.803 88.2852C150.803 88.6367 150.906 88.9082 151.113 89.0996C151.316 89.291 151.609 89.3867 151.992 89.3867L152.66 89.3867L152.66 88.0332L153.498 88.0332L153.498 89.3867L159 89.3867L159 90.4707ZM155.771 87.1191C155.15 87.1191 154.592 86.998 154.096 86.7559C153.6 86.5098 153.217 86.1699 152.947 85.7363C152.678 85.2988 152.543 84.8008 152.543 84.2422C152.543 83.3789 152.842 82.6816 153.439 82.1504C154.037 81.6152 154.832 81.3477 155.824 81.3477L155.9 81.3477C156.518 81.3477 157.072 81.4668 157.564 81.7051C158.053 81.9395 158.434 82.2773 158.707 82.7187C158.98 83.1562 159.117 83.6602 159.117 84.2305C159.117 85.0898 158.818 85.7871 158.221 86.3223C157.623 86.8535 156.832 87.1191 155.848 87.1191L155.771 87.1191ZM155.9 86.0293C156.604 86.0293 157.168 85.8672 157.594 85.543C158.02 85.2148 158.232 84.7773 158.232 84.2305C158.232 83.6797 158.018 83.2422 157.588 82.918C157.154 82.5937 156.549 82.4316 155.771 82.4316C155.076 82.4316 154.514 82.5977 154.084 82.9297C153.65 83.2578 153.434 83.6953 153.434 84.2422C153.434 84.7773 153.646 85.209 154.072 85.5371C154.498 85.8652 155.107 86.0293 155.9 86.0293ZM153.633 76.9238C153.605 77.0879 153.592 77.2656 153.592 77.457C153.592 78.168 153.895 78.6504 154.5 78.9043L159 78.9043L159 79.9883L152.66 79.9883L152.66 78.9336L153.393 78.916C152.826 78.5605 152.543 78.0566 152.543 77.4043C152.543 77.1934 152.57 77.0332 152.625 76.9238L153.633 76.9238ZM157.412 70.8711L152.66 69.3945L152.66 68.2344L159.979 70.7832C161.033 71.1777 161.561 71.8047 161.561 72.6641L161.543 72.8691L161.467 73.2734L160.588 73.2734L160.611 72.9805C160.611 72.6133 160.537 72.3281 160.389 72.125C160.24 71.918 159.969 71.748 159.574 71.6152L158.93 71.375L152.66 73.6367L152.66 72.4531L157.412 70.8711ZM155.771 67.6426C155.15 67.6426 154.592 67.5215 154.096 67.2793C153.6 67.0332 153.217 66.6934 152.947 66.2598C152.678 65.8223 152.543 65.3242 152.543 64.7656C152.543 63.9023 152.842 63.2051 153.439 62.6738C154.037 62.1387 154.832 61.8711 155.824 61.8711L155.9 61.8711C156.518 61.8711 157.072 61.9902 157.564 62.2285C158.053 62.4629 158.434 62.8008 158.707 63.2422C158.98 63.6797 159.117 64.1836 159.117 64.7539C159.117 65.6133 158.818 66.3105 158.221 66.8457C157.623 67.377 156.832 67.6426 155.848 67.6426L155.771 67.6426ZM155.9 66.5527C156.604 66.5527 157.168 66.3906 157.594 66.0664C158.02 65.7383 158.232 65.3008 158.232 64.7539C158.232 64.2031 158.018 63.7656 157.588 63.4414C157.154 63.1172 156.549 62.9551 155.771 62.9551C155.076 62.9551 154.514 63.1211 154.084 63.4531C153.65 63.7812 153.434 64.2187 153.434 64.7656C153.434 65.3008 153.646 65.7324 154.072 66.0605C154.498 66.3887 155.107 66.5527 155.9 66.5527ZM158.373 56.5977C158.869 57.0195 159.117 57.6387 159.117 58.4551C159.117 59.1309 158.922 59.6465 158.531 60.002C158.137 60.3535 157.555 60.5312 156.785 60.5352L152.66 60.5352L152.66 59.4512L156.756 59.4512C157.717 59.4512 158.197 59.0605 158.197 58.2793C158.197 57.4512 157.889 56.9004 157.271 56.627L152.66 56.627L152.66 55.543L159 55.543L159 56.5742L158.373 56.5977Z" fill="#131313"/>
<path d="M301.117 139.549C301.117 140.408 300.836 141.107 300.273 141.646C299.707 142.186 298.951 142.455 298.006 142.455L297.807 142.455C297.178 142.455 296.617 142.336 296.125 142.098C295.629 141.855 295.242 141.52 294.965 141.09C294.684 140.656 294.543 140.187 294.543 139.684C294.543 138.859 294.814 138.219 295.357 137.762C295.9 137.305 296.678 137.076 297.689 137.076L298.141 137.076L298.141 141.371C298.766 141.355 299.271 141.174 299.658 140.826C300.041 140.475 300.232 140.029 300.232 139.49C300.232 139.107 300.154 138.783 299.998 138.518C299.842 138.252 299.635 138.02 299.377 137.82L299.893 137.158C300.709 137.689 301.117 138.486 301.117 139.549ZM295.434 139.684C295.434 140.121 295.594 140.488 295.914 140.785C296.23 141.082 296.676 141.266 297.25 141.336L297.25 138.16L297.168 138.16C296.617 138.191 296.191 138.34 295.891 138.605C295.586 138.871 295.434 139.23 295.434 139.684ZM299.529 133.807L294.66 132.236L294.66 131.129L301 133.402L301 134.229L294.66 136.525L294.66 135.418L299.529 133.807ZM301.117 127.537C301.117 128.396 300.836 129.096 300.273 129.635C299.707 130.174 298.951 130.443 298.006 130.443L297.807 130.443C297.178 130.443 296.617 130.324 296.125 130.086C295.629 129.844 295.242 129.508 294.965 129.078C294.684 128.645 294.543 128.176 294.543 127.672C294.543 126.848 294.814 126.207 295.357 125.75C295.9 125.293 296.678 125.064 297.689 125.064L298.141 125.064L298.141 129.359C298.766 129.344 299.271 129.162 299.658 128.814C300.041 128.463 300.232 128.018 300.232 127.479C300.232 127.096 300.154 126.771 299.998 126.506C299.842 126.24 299.635 126.008 299.377 125.809L299.893 125.146C300.709 125.678 301.117 126.475 301.117 127.537ZM295.434 127.672C295.434 128.109 295.594 128.477 295.914 128.773C296.23 129.07 296.676 129.254 297.25 129.324L297.25 126.148L297.168 126.148C296.617 126.18 296.191 126.328 295.891 126.594C295.586 126.859 295.434 127.219 295.434 127.672ZM295.633 120.74C295.605 120.904 295.592 121.082 295.592 121.273C295.592 121.984 295.895 122.467 296.5 122.721L301 122.721L301 123.805L294.66 123.805L294.66 122.75L295.393 122.732C294.826 122.377 294.543 121.873 294.543 121.221C294.543 121.01 294.57 120.85 294.625 120.74L295.633 120.74ZM299.412 117.559L294.66 116.082L294.66 114.922L301.979 117.471C303.033 117.865 303.561 118.492 303.561 119.352L303.543 119.557L303.467 119.961L302.588 119.961L302.611 119.668C302.611 119.301 302.537 119.016 302.389 118.812C302.24 118.605 301.969 118.436 301.574 118.303L300.93 118.062L294.66 120.324L294.66 119.141L299.412 117.559ZM301 107.521L301 108.611L293.775 108.611L294.578 110.797L293.594 110.797L292.428 107.691L292.428 107.521L301 107.521ZM297.361 98.9961C298.631 98.9961 299.574 99.2129 300.191 99.6465C300.809 100.08 301.117 100.758 301.117 101.68C301.117 102.59 300.816 103.264 300.215 103.701C299.609 104.139 298.707 104.365 297.508 104.381L296.061 104.381C294.807 104.381 293.875 104.164 293.266 103.73C292.656 103.297 292.352 102.617 292.352 101.691C292.352 100.773 292.646 100.098 293.236 99.6641C293.822 99.2305 294.729 99.0078 295.955 98.9961L297.361 98.9961ZM295.879 100.08C294.961 100.08 294.293 100.209 293.875 100.467C293.453 100.725 293.242 101.133 293.242 101.691C293.242 102.246 293.451 102.65 293.869 102.904C294.287 103.158 294.93 103.289 295.797 103.297L297.531 103.297C298.453 103.297 299.135 103.164 299.576 102.898C300.014 102.629 300.232 102.223 300.232 101.68C300.232 101.145 300.025 100.748 299.611 100.49C299.197 100.229 298.545 100.092 297.654 100.08L295.879 100.08ZM297.361 92.2578C298.631 92.2578 299.574 92.4746 300.191 92.9082C300.809 93.3418 301.117 94.0195 301.117 94.9414C301.117 95.8516 300.816 96.5254 300.215 96.9629C299.609 97.4004 298.707 97.627 297.508 97.6426L296.061 97.6426C294.807 97.6426 293.875 97.4258 293.266 96.9922C292.656 96.5586 292.352 95.8789 292.352 94.9531C292.352 94.0352 292.646 93.3594 293.236 92.9258C293.822 92.4922 294.729 92.2695 295.955 92.2578L297.361 92.2578ZM295.879 93.3418C294.961 93.3418 294.293 93.4707 293.875 93.7285C293.453 93.9863 293.242 94.3945 293.242 94.9531C293.242 95.5078 293.451 95.9121 293.869 96.166C294.287 96.4199 294.93 96.5508 295.797 96.5586L297.531 96.5586C298.453 96.5586 299.135 96.4258 299.576 96.1602C300.014 95.8906 300.232 95.4844 300.232 94.9414C300.232 94.4062 300.025 94.0098 299.611 93.752C299.197 93.4902 298.545 93.3535 297.654 93.3418L295.879 93.3418ZM295.633 81.7402C295.605 81.9043 295.592 82.082 295.592 82.2734C295.592 82.9844 295.895 83.4668 296.5 83.7207L301 83.7207L301 84.8047L294.66 84.8047L294.66 83.75L295.393 83.7324C294.826 83.377 294.543 82.873 294.543 82.2207C294.543 82.0098 294.57 81.8496 294.625 81.7402L295.633 81.7402ZM301.117 78.2246C301.117 79.084 300.836 79.7832 300.273 80.3223C299.707 80.8613 298.951 81.1309 298.006 81.1309L297.807 81.1309C297.178 81.1309 296.617 81.0117 296.125 80.7734C295.629 80.5312 295.242 80.1953 294.965 79.7656C294.684 79.332 294.543 78.8633 294.543 78.3594C294.543 77.5352 294.814 76.8945 295.357 76.4375C295.9 75.9805 296.678 75.752 297.689 75.752L298.141 75.752L298.141 80.0469C298.766 80.0312 299.271 79.8496 299.658 79.502C300.041 79.1504 300.232 78.7051 300.232 78.166C300.232 77.7832 300.154 77.459 299.998 77.1934C299.842 76.9277 299.635 76.6953 299.377 76.4961L299.893 75.834C300.709 76.3652 301.117 77.1621 301.117 78.2246ZM295.434 78.3594C295.434 78.7969 295.594 79.1641 295.914 79.4609C296.23 79.7578 296.676 79.9414 297.25 80.0117L297.25 76.8359L297.168 76.8359C296.617 76.8672 296.191 77.0156 295.891 77.2812C295.586 77.5469 295.434 77.9062 295.434 78.3594ZM301 73.959L295.498 73.959L295.498 74.9609L294.66 74.9609L294.66 73.959L294.01 73.959C293.33 73.959 292.805 73.7773 292.434 73.4141C292.062 73.0508 291.877 72.5371 291.877 71.873C291.877 71.623 291.91 71.375 291.977 71.1289L292.855 71.1875C292.82 71.3711 292.803 71.5664 292.803 71.7734C292.803 72.125 292.906 72.3965 293.113 72.5879C293.316 72.7793 293.609 72.875 293.992 72.875L294.66 72.875L294.66 71.5215L295.498 71.5215L295.498 72.875L301 72.875L301 73.959ZM301.117 67.8301C301.117 68.6895 300.836 69.3887 300.273 69.9277C299.707 70.4668 298.951 70.7363 298.006 70.7363L297.807 70.7363C297.178 70.7363 296.617 70.6172 296.125 70.3789C295.629 70.1367 295.242 69.8008 294.965 69.3711C294.684 68.9375 294.543 68.4687 294.543 67.9648C294.543 67.1406 294.814 66.5 295.357 66.043C295.9 65.5859 296.678 65.3574 297.689 65.3574L298.141 65.3574L298.141 69.6523C298.766 69.6367 299.271 69.4551 299.658 69.1074C300.041 68.7559 300.232 68.3105 300.232 67.7715C300.232 67.3887 300.154 67.0645 299.998 66.7988C299.842 66.5332 299.635 66.3008 299.377 66.1016L299.893 65.4395C300.709 65.9707 301.117 66.7676 301.117 67.8301ZM295.434 67.9648C295.434 68.4023 295.594 68.7695 295.914 69.0664C296.23 69.3633 296.676 69.5469 297.25 69.6172L297.25 66.4414L297.168 66.4414C296.617 66.4727 296.191 66.6211 295.891 66.8867C295.586 67.1523 295.434 67.5117 295.434 67.9648ZM295.633 61.0332C295.605 61.1973 295.592 61.375 295.592 61.5664C295.592 62.2773 295.895 62.7598 296.5 63.0137L301 63.0137L301 64.0977L294.66 64.0977L294.66 63.043L295.393 63.0254C294.826 62.6699 294.543 62.166 294.543 61.5137C294.543 61.3027 294.57 61.1426 294.625 61.0332L295.633 61.0332ZM295.633 56.9668C295.605 57.1309 295.592 57.3086 295.592 57.5C295.592 58.2109 295.895 58.6934 296.5 58.9473L301 58.9473L301 60.0312L294.66 60.0312L294.66 58.9766L295.393 58.959C294.826 58.6035 294.543 58.0996 294.543 57.4473C294.543 57.2363 294.57 57.0762 294.625 56.9668L295.633 56.9668ZM301.117 53.4512C301.117 54.3105 300.836 55.0098 300.273 55.5488C299.707 56.0879 298.951 56.3574 298.006 56.3574L297.807 56.3574C297.178 56.3574 296.617 56.2383 296.125 56C295.629 55.7578 295.242 55.4219 294.965 54.9922C294.684 54.5586 294.543 54.0898 294.543 53.5859C294.543 52.7617 294.814 52.1211 295.357 51.6641C295.9 51.207 296.678 50.9785 297.689 50.9785L298.141 50.9785L298.141 55.2734C298.766 55.2578 299.271 55.0762 299.658 54.7285C300.041 54.377 300.232 53.9316 300.232 53.3926C300.232 53.0098 300.154 52.6855 299.998 52.4199C299.842 52.1543 299.635 51.9219 299.377 51.7227L299.893 51.0605C300.709 51.5918 301.117 52.3887 301.117 53.4512ZM295.434 53.5859C295.434 54.0234 295.594 54.3906 295.914 54.6875C296.23 54.9844 296.676 55.168 297.25 55.2383L297.25 52.0625L297.168 52.0625C296.617 52.0937 296.191 52.2422 295.891 52.5078C295.586 52.7734 295.434 53.1328 295.434 53.5859ZM297.777 49.9824C296.805 49.9824 296.023 49.752 295.434 49.291C294.84 48.8301 294.543 48.2266 294.543 47.4805C294.543 46.7383 294.797 46.1504 295.305 45.7168L292 45.7168L292 44.6328L301 44.6328L301 45.6289L300.32 45.6816C300.852 46.1152 301.117 46.7187 301.117 47.4922C301.117 48.2266 300.816 48.8262 300.215 49.291C299.613 49.752 298.828 49.9824 297.859 49.9824L297.777 49.9824ZM297.9 48.8984C298.619 48.8984 299.182 48.75 299.588 48.4531C299.994 48.1562 300.197 47.7461 300.197 47.2227C300.197 46.5352 299.889 46.0332 299.271 45.7168L296.359 45.7168C295.762 46.041 295.463 46.5391 295.463 47.2109C295.463 47.7422 295.668 48.1562 296.078 48.4531C296.488 48.75 297.096 48.8984 297.9 48.8984ZM294.66 38.9492L295.363 38.9199C294.816 38.4551 294.543 37.8281 294.543 37.0391C294.543 36.1523 294.883 35.5488 295.562 35.2285C295.258 35.0176 295.012 34.7441 294.824 34.4082C294.637 34.0684 294.543 33.668 294.543 33.207C294.543 31.8164 295.279 31.1094 296.752 31.0859L301 31.0859L301 32.1699L296.816 32.1699C296.363 32.1699 296.025 32.2734 295.803 32.4805C295.576 32.6875 295.463 33.0352 295.463 33.5234C295.463 33.9258 295.584 34.2598 295.826 34.5254C296.064 34.791 296.387 34.9453 296.793 34.9883L301 34.9883L301 36.0781L296.846 36.0781C295.924 36.0781 295.463 36.5293 295.463 37.4316C295.463 38.1426 295.766 38.6289 296.371 38.8906L301 38.8906L301 39.9746L294.66 39.9746L294.66 38.9492ZM301 28.2676L301 29.3516L294.66 29.3516L294.66 28.2676L301 28.2676ZM292.979 29.4395C292.803 29.4395 292.654 29.3867 292.533 29.2812C292.412 29.1719 292.352 29.0117 292.352 28.8008C292.352 28.5898 292.412 28.4297 292.533 28.3203C292.654 28.2109 292.803 28.1562 292.979 28.1562C293.154 28.1562 293.301 28.2109 293.418 28.3203C293.535 28.4297 293.594 28.5898 293.594 28.8008C293.594 29.0117 293.535 29.1719 293.418 29.2812C293.301 29.3867 293.154 29.4395 292.979 29.4395ZM294.66 25.502L295.457 25.4668C294.848 24.9824 294.543 24.3496 294.543 23.5684C294.543 22.2285 295.299 21.5527 296.811 21.541L301 21.541L301 22.625L296.805 22.625C296.348 22.6289 296.01 22.7344 295.791 22.9414C295.572 23.1445 295.463 23.4629 295.463 23.8965C295.463 24.248 295.557 24.5566 295.744 24.8223C295.932 25.0879 296.178 25.2949 296.482 25.4434L301 25.4434L301 26.5273L294.66 26.5273L294.66 25.502ZM293.125 18.4355L294.66 18.4355L294.66 17.252L295.498 17.252L295.498 18.4355L299.43 18.4355C299.684 18.4355 299.875 18.3828 300.004 18.2773C300.129 18.1719 300.191 17.9922 300.191 17.7383C300.191 17.6133 300.168 17.4414 300.121 17.2227L301 17.2227C301.078 17.5078 301.117 17.7852 301.117 18.0547C301.117 18.5391 300.971 18.9043 300.678 19.1504C300.385 19.3965 299.969 19.5195 299.43 19.5195L295.498 19.5195L295.498 20.6738L294.66 20.6738L294.66 19.5195L293.125 19.5195L293.125 18.4355ZM301.117 13.3496C301.117 14.209 300.836 14.9082 300.273 15.4473C299.707 15.9863 298.951 16.2559 298.006 16.2559L297.807 16.2559C297.178 16.2559 296.617 16.1367 296.125 15.8984C295.629 15.6562 295.242 15.3203 294.965 14.8906C294.684 14.457 294.543 13.9883 294.543 13.4844C294.543 12.6602 294.814 12.0195 295.357 11.5625C295.9 11.1055 296.678 10.877 297.689 10.877L298.141 10.877L298.141 15.1719C298.766 15.1562 299.271 14.9746 299.658 14.627C300.041 14.2754 300.232 13.8301 300.232 13.291C300.232 12.9082 300.154 12.584 299.998 12.3184C299.842 12.0527 299.635 11.8203 299.377 11.6211L299.893 10.959C300.709 11.4902 301.117 12.2871 301.117 13.3496ZM295.434 13.4844C295.434 13.9219 295.594 14.2891 295.914 14.5859C296.23 14.8828 296.676 15.0664 297.25 15.1367L297.25 11.9609L297.168 11.9609C296.617 11.9922 296.191 12.1406 295.891 12.4062C295.586 12.6719 295.434 13.0312 295.434 13.4844ZM295.633 6.55273C295.605 6.7168 295.592 6.89453 295.592 7.08594C295.592 7.79687 295.895 8.2793 296.5 8.5332L301 8.5332L301 9.61719L294.66 9.61719L294.66 8.5625L295.393 8.54492C294.826 8.18945 294.543 7.68555 294.543 7.0332C294.543 6.82227 294.57 6.66211 294.625 6.55273L295.633 6.55273ZM299.318 1.85937C299.025 1.85937 298.799 1.9707 298.639 2.19336C298.475 2.41211 298.334 2.79687 298.217 3.34766C298.1 3.89453 297.959 4.33008 297.795 4.6543C297.631 4.97461 297.436 5.21289 297.209 5.36914C296.982 5.52148 296.713 5.59766 296.4 5.59766C295.881 5.59766 295.441 5.37891 295.082 4.94141C294.723 4.5 294.543 3.9375 294.543 3.25391C294.543 2.53516 294.729 1.95312 295.1 1.50781C295.471 1.05859 295.945 0.833984 296.523 0.833984L296.523 1.92383C296.227 1.92383 295.971 2.05078 295.756 2.30469C295.541 2.55469 295.434 2.87109 295.434 3.25391C295.434 3.64844 295.52 3.95703 295.691 4.17969C295.863 4.40234 296.088 4.51367 296.365 4.51367C296.627 4.51367 296.824 4.41016 296.957 4.20312C297.09 3.99609 297.217 3.62305 297.338 3.08398C297.459 2.54102 297.604 2.10156 297.771 1.76562C297.939 1.42969 298.143 1.18164 298.381 1.02148C298.615 0.857421 298.902 0.77539 299.242 0.77539C299.809 0.77539 300.264 1.00195 300.607 1.45508C300.947 1.9082 301.117 2.49609 301.117 3.21875C301.117 3.72656 301.027 4.17578 300.848 4.56641C300.668 4.95703 300.418 5.26367 300.098 5.48633C299.773 5.70508 299.424 5.81445 299.049 5.81445L299.049 4.73047C299.412 4.71094 299.701 4.56641 299.916 4.29687C300.127 4.02344 300.232 3.66406 300.232 3.21875C300.232 2.80859 300.15 2.48047 299.986 2.23437C299.818 1.98437 299.596 1.85937 299.318 1.85937Z" fill="#131313"/>
<path d="M10.05 251.795L12.2831 254.328L10.4832 255.915L3.90143 248.449L6.88077 245.822C7.45168 245.319 8.04936 244.981 8.67378 244.807C9.29862 244.627 9.90246 244.626 10.4853 244.805C11.0686 244.977 11.5772 245.309 12.0112 245.802C12.653 246.53 12.9053 247.343 12.768 248.242C12.6311 249.134 12.108 249.981 11.1986 250.783L10.05 251.795ZM8.82495 250.406L10.0044 249.366C10.3531 249.058 10.5412 248.738 10.5687 248.404C10.5996 248.067 10.4749 247.739 10.1946 247.421C9.88725 247.072 9.54763 246.877 9.17578 246.834C8.80392 246.791 8.4541 246.911 8.12632 247.194L6.92638 248.252L8.82495 250.406ZM20.4914 240.732C21.1333 241.46 21.5663 242.224 21.7904 243.022C22.0146 243.821 22.0112 244.592 21.7803 245.337C21.5498 246.075 21.1166 246.724 20.4808 247.284C19.8449 247.845 19.1527 248.197 18.4043 248.34C17.6529 248.48 16.8991 248.4 16.143 248.101C15.3904 247.798 14.6968 247.301 14.0623 246.609L13.6916 246.188C13.0467 245.457 12.612 244.695 12.3874 243.903C12.1633 243.104 12.1666 242.332 12.3976 241.588C12.6319 240.841 13.0687 240.185 13.708 239.622C14.3404 239.064 15.0371 238.717 15.798 238.581C16.5589 238.445 17.3217 238.535 18.0864 238.851C18.8515 239.161 19.5522 239.673 20.1885 240.388L20.4914 240.732ZM18.3849 242.033C17.731 241.291 17.1105 240.839 16.5234 240.676C15.9367 240.506 15.4126 240.625 14.9511 241.032C14.0486 241.828 14.1684 242.925 15.3105 244.324L15.789 244.877C16.4339 245.609 17.051 246.064 17.6403 246.243C18.2296 246.422 18.7636 246.301 19.2422 245.879C19.6969 245.478 19.877 244.976 19.7826 244.373C19.6882 243.77 19.3233 243.104 18.6878 242.376L18.3849 242.033ZM26.4926 241.802L24.6978 243.385L18.1161 235.918L19.9109 234.336L26.4926 241.802ZM28.0946 229.592L25.8536 231.567L31.2103 237.644L29.4104 239.23L24.0537 233.154L21.8538 235.093L20.6288 233.703L26.8695 228.202L28.0946 229.592Z" fill="#EDEDED"/>
<path d="M59.3263 223.375L57.4217 226.164L55.4403 224.811L61.0538 216.592L64.3336 218.832C64.962 219.261 65.4374 219.757 65.7598 220.319C66.0885 220.88 66.238 221.465 66.2084 222.074C66.1852 222.682 65.9885 223.257 65.6184 223.799C65.0709 224.6 64.3448 225.045 63.44 225.134C62.5416 225.221 61.5918 224.923 60.5908 224.239L59.3263 223.375ZM60.3711 221.846L61.6695 222.732C62.0533 222.995 62.4105 223.098 62.7411 223.042C63.0754 222.989 63.362 222.787 63.6011 222.437C63.8632 222.054 63.9692 221.676 63.919 221.305C63.8688 220.934 63.6663 220.625 63.3113 220.377L61.9904 219.475L60.3711 221.846ZM72.6221 230.767C72.0746 231.569 71.4414 232.177 70.7226 232.591C70.0038 233.005 69.2553 233.192 68.4771 233.152C67.7052 233.11 66.9693 232.85 66.2693 232.372C65.5693 231.894 65.0576 231.31 64.7342 230.62C64.4133 229.926 64.3048 229.176 64.4086 228.37C64.5163 227.566 64.8273 226.771 65.3417 225.985L65.6578 225.523C66.2079 224.717 66.8392 224.108 67.5516 223.695C68.2705 223.281 69.019 223.094 69.7972 223.134C70.5792 223.177 71.322 223.439 72.0257 223.92C72.722 224.395 73.2298 224.985 73.5493 225.689C73.8688 226.393 73.9696 227.154 73.8517 227.973C73.7402 228.791 73.4164 229.596 72.8804 230.389L72.6221 230.767ZM70.842 229.047C71.3997 228.23 71.6852 227.517 71.6983 226.908C71.7178 226.298 71.4735 225.819 70.9655 225.472C69.972 224.794 68.9381 225.18 67.8638 226.632L67.4456 227.232C66.8956 228.037 66.6064 228.748 66.578 229.363C66.5496 229.978 66.7988 230.466 67.3257 230.826C67.8262 231.167 68.3572 231.218 68.9186 230.978C69.48 230.738 70.035 230.22 70.5837 229.425L70.842 229.047ZM73.0639 236.847L71.0882 235.498L76.7017 227.279L78.6774 228.628L73.0639 236.847ZM85.2928 235.39L82.826 233.705L78.2573 240.394L76.2759 239.041L80.8446 232.352L78.4229 230.698L79.4677 229.168L86.3377 233.86L85.2928 235.39Z" fill="#EDEDED"/>
<path d="M161.326 134.375L159.422 137.164L157.44 135.811L163.054 127.592L166.334 129.832C166.962 130.261 167.437 130.757 167.76 131.319C168.088 131.88 168.238 132.465 168.208 133.074C168.185 133.682 167.989 134.257 167.618 134.799C167.071 135.6 166.345 136.045 165.44 136.134C164.542 136.221 163.592 135.923 162.591 135.239L161.326 134.375ZM162.371 132.846L163.669 133.732C164.053 133.995 164.411 134.098 164.741 134.042C165.075 133.989 165.362 133.787 165.601 133.437C165.863 133.054 165.969 132.676 165.919 132.305C165.869 131.934 165.666 131.625 165.311 131.377L163.99 130.475L162.371 132.846ZM174.622 141.767C174.075 142.569 173.441 143.177 172.723 143.591C172.004 144.005 171.255 144.192 170.477 144.152C169.705 144.11 168.969 143.85 168.269 143.372C167.569 142.894 167.058 142.31 166.734 141.62C166.413 140.926 166.305 140.176 166.409 139.37C166.516 138.566 166.827 137.771 167.342 136.985L167.658 136.523C168.208 135.717 168.839 135.108 169.552 134.695C170.27 134.281 171.019 134.094 171.797 134.134C172.579 134.177 173.322 134.439 174.026 134.92C174.722 135.395 175.23 135.985 175.549 136.689C175.869 137.393 175.97 138.154 175.852 138.973C175.74 139.791 175.416 140.596 174.88 141.389L174.622 141.767ZM172.842 140.047C173.4 139.23 173.685 138.517 173.698 137.908C173.718 137.298 173.474 136.819 172.965 136.472C171.972 135.794 170.938 136.18 169.864 137.632L169.446 138.232C168.896 139.037 168.606 139.748 168.578 140.363C168.55 140.978 168.799 141.466 169.326 141.826C169.826 142.167 170.357 142.218 170.919 141.978C171.48 141.738 172.035 141.22 172.584 140.425L172.842 140.047ZM175.064 147.847L173.088 146.498L178.702 138.279L180.677 139.628L175.064 147.847ZM187.293 146.39L184.826 144.705L180.257 151.394L178.276 150.041L182.845 143.352L180.423 141.698L181.468 140.168L188.338 144.86L187.293 146.39Z" fill="#EDEDED"/>
<path d="M115.658 171.333L117.455 173.13L116.178 174.406L110.882 169.11L112.995 166.996C113.4 166.591 113.833 166.309 114.294 166.149C114.755 165.984 115.208 165.955 115.654 166.062C116.101 166.163 116.498 166.389 116.848 166.738C117.364 167.255 117.592 167.854 117.532 168.535C117.471 169.212 117.118 169.873 116.473 170.518L115.658 171.333ZM114.672 170.347L115.509 169.51C115.756 169.263 115.882 169.013 115.887 168.761C115.895 168.506 115.785 168.266 115.56 168.04C115.313 167.793 115.048 167.662 114.767 167.648C114.486 167.633 114.229 167.74 113.996 167.968L113.145 168.819L114.672 170.347ZM122.977 162.529C123.494 163.046 123.855 163.599 124.061 164.188C124.267 164.777 124.301 165.357 124.163 165.927C124.025 166.492 123.73 167 123.279 167.451C122.828 167.902 122.325 168.199 121.769 168.342C121.212 168.483 120.642 168.459 120.06 168.27C119.48 168.078 118.936 167.737 118.426 167.247L118.128 166.949C117.609 166.43 117.247 165.878 117.04 165.294C116.834 164.705 116.8 164.125 116.939 163.555C117.079 162.983 117.376 162.47 117.83 162.016C118.278 161.568 118.785 161.274 119.35 161.136C119.915 160.998 120.493 161.029 121.082 161.231C121.671 161.427 122.222 161.779 122.733 162.286L122.977 162.529ZM121.457 163.606C120.93 163.08 120.443 162.769 119.994 162.675C119.546 162.575 119.158 162.689 118.83 163.017C118.19 163.657 118.332 164.476 119.256 165.472L119.641 165.865C120.16 166.384 120.645 166.697 121.096 166.804C121.548 166.91 121.943 166.794 122.282 166.454C122.605 166.132 122.716 165.746 122.617 165.298C122.518 164.849 122.212 164.366 121.7 163.85L121.457 163.606ZM127.535 163.05L126.262 164.323L120.965 159.026L122.239 157.753L127.535 163.05ZM128.161 153.803L126.571 155.392L130.882 159.703L129.605 160.98L125.294 156.669L123.734 158.23L122.748 157.244L127.175 152.817L128.161 153.803Z" fill="#EDEDED"/>
<path d="M109.126 276.146L108.963 278.682L107.161 278.566L107.642 271.092L110.625 271.283C111.197 271.32 111.695 271.459 112.119 271.699C112.547 271.936 112.868 272.258 113.083 272.663C113.301 273.066 113.394 273.513 113.362 274.006C113.316 274.735 113.016 275.302 112.464 275.706C111.916 276.107 111.187 276.279 110.276 276.22L109.126 276.146ZM109.216 274.755L110.397 274.831C110.746 274.853 111.017 274.783 111.209 274.62C111.405 274.458 111.514 274.217 111.534 273.899C111.557 273.55 111.48 273.265 111.306 273.044C111.131 272.823 110.881 272.7 110.556 272.676L109.355 272.599L109.216 274.755ZM120.57 275.831C120.524 276.56 120.347 277.196 120.04 277.74C119.734 278.284 119.321 278.692 118.802 278.965C118.286 279.234 117.71 279.348 117.073 279.307C116.437 279.266 115.881 279.084 115.407 278.762C114.933 278.436 114.575 277.992 114.333 277.43C114.094 276.868 113.991 276.234 114.022 275.528L114.049 275.107C114.097 274.375 114.271 273.738 114.574 273.197C114.881 272.653 115.294 272.245 115.813 271.973C116.336 271.701 116.917 271.585 117.557 271.626C118.19 271.667 118.745 271.854 119.222 272.187C119.699 272.52 120.056 272.974 120.294 273.55C120.536 274.122 120.635 274.768 120.593 275.487L120.57 275.831ZM118.758 275.4C118.806 274.657 118.717 274.086 118.492 273.686C118.27 273.284 117.928 273.068 117.466 273.038C116.563 272.98 116.042 273.627 115.903 274.979L115.863 275.528C115.816 276.26 115.901 276.831 116.119 277.24C116.336 277.649 116.685 277.87 117.164 277.9C117.619 277.93 117.982 277.759 118.254 277.388C118.525 277.017 118.686 276.469 118.736 275.744L118.758 275.4ZM123.189 279.597L121.392 279.482L121.873 272.007L123.67 272.122L123.189 279.597ZM130.547 273.962L128.304 273.817L127.912 279.901L126.11 279.785L126.502 273.702L124.299 273.56L124.389 272.169L130.637 272.571L130.547 273.962Z" fill="#EDEDED"/>
<path d="M308.151 127.316L306.647 129.365L305.191 128.296L309.622 122.257L312.032 124.025C312.494 124.364 312.839 124.749 313.067 125.18C313.3 125.611 313.398 126.055 313.36 126.512C313.327 126.968 313.164 127.396 312.872 127.794C312.44 128.383 311.883 128.699 311.2 128.743C310.522 128.785 309.815 128.537 309.08 127.997L308.151 127.316ZM308.975 126.192L309.929 126.891C310.211 127.098 310.477 127.185 310.727 127.152C310.98 127.12 311.201 126.976 311.39 126.719C311.596 126.437 311.686 126.156 311.657 125.875C311.629 125.595 311.485 125.357 311.224 125.162L310.253 124.449L308.975 126.192ZM317.963 133.213C317.531 133.802 317.039 134.243 316.488 134.537C315.937 134.83 315.369 134.951 314.785 134.901C314.205 134.85 313.658 134.636 313.144 134.259C312.63 133.882 312.26 133.429 312.034 132.902C311.81 132.372 311.748 131.805 311.846 131.201C311.948 130.599 312.202 130.009 312.609 129.432L312.858 129.091C313.292 128.5 313.783 128.058 314.329 127.765C314.88 127.472 315.448 127.35 316.032 127.4C316.619 127.453 317.171 127.668 317.688 128.048C318.2 128.423 318.567 128.88 318.789 129.417C319.012 129.955 319.068 130.53 318.959 131.143C318.854 131.755 318.59 132.353 318.167 132.935L317.963 133.213ZM316.668 131.874C317.108 131.274 317.341 130.745 317.366 130.287C317.396 129.829 317.225 129.462 316.851 129.188C316.121 128.653 315.334 128.917 314.489 129.982L314.159 130.423C313.725 131.014 313.49 131.541 313.453 132.003C313.416 132.465 313.591 132.838 313.978 133.122C314.346 133.392 314.744 133.444 315.172 133.278C315.6 133.111 316.031 132.736 316.464 132.152L316.668 131.874ZM318.141 137.797L316.689 136.732L321.12 130.693L322.572 131.758L318.141 137.797ZM327.375 137.012L325.563 135.682L321.957 140.597L320.501 139.529L324.107 134.614L322.328 133.308L323.152 132.184L328.2 135.888L327.375 137.012Z" fill="#EDEDED"/>
<path d="M431.812 106.223L430.308 108.272L428.852 107.204L433.283 101.164L435.693 102.933C436.155 103.271 436.5 103.656 436.728 104.088C436.961 104.518 437.059 104.962 437.021 105.419C436.988 105.876 436.826 106.303 436.533 106.701C436.101 107.29 435.544 107.606 434.861 107.65C434.183 107.693 433.476 107.444 432.741 106.905L431.812 106.223ZM432.636 105.099L433.59 105.799C433.872 106.006 434.138 106.092 434.388 106.059C434.641 106.027 434.862 105.883 435.051 105.626C435.258 105.344 435.347 105.063 435.319 104.782C435.29 104.502 435.146 104.264 434.885 104.069L433.915 103.357L432.636 105.099ZM441.624 112.12C441.192 112.709 440.7 113.151 440.149 113.444C439.598 113.737 439.03 113.859 438.446 113.808C437.866 113.758 437.319 113.543 436.805 113.166C436.291 112.789 435.921 112.336 435.695 111.809C435.471 111.279 435.409 110.712 435.507 110.108C435.609 109.506 435.863 108.917 436.27 108.339L436.519 107.999C436.953 107.407 437.444 106.965 437.99 106.672C438.541 106.379 439.109 106.258 439.693 106.308C440.28 106.36 440.832 106.576 441.349 106.955C441.861 107.33 442.228 107.787 442.45 108.324C442.673 108.862 442.729 109.437 442.62 110.05C442.515 110.662 442.251 111.26 441.828 111.843L441.624 112.12ZM440.329 110.781C440.769 110.181 441.002 109.652 441.027 109.194C441.057 108.736 440.886 108.37 440.513 108.096C439.783 107.56 438.995 107.824 438.15 108.889L437.82 109.33C437.386 109.922 437.151 110.448 437.114 110.911C437.077 111.373 437.252 111.746 437.639 112.03C438.007 112.299 438.405 112.351 438.833 112.185C439.261 112.018 439.692 111.643 440.125 111.059L440.329 110.781ZM441.802 116.705L440.35 115.639L444.781 109.6L446.233 110.665L441.802 116.705ZM451.037 115.919L449.224 114.589L445.618 119.504L444.162 118.436L447.768 113.521L445.989 112.216L446.813 111.092L451.861 114.795L451.037 115.919Z" fill="#EDEDED"/>
<path d="M262.704 171.45L264.433 173.313L263.109 174.541L258.015 169.049L260.207 167.017C260.627 166.627 261.07 166.361 261.537 166.219C262.003 166.071 262.457 166.059 262.899 166.183C263.341 166.301 263.73 166.541 264.066 166.904C264.563 167.439 264.768 168.046 264.682 168.725C264.596 169.399 264.218 170.046 263.549 170.666L262.704 171.45ZM261.756 170.428L262.624 169.623C262.881 169.385 263.016 169.14 263.03 168.889C263.047 168.634 262.947 168.39 262.73 168.156C262.492 167.9 262.233 167.759 261.953 167.734C261.672 167.709 261.411 167.806 261.17 168.025L260.287 168.843L261.756 170.428ZM270.35 162.929C270.847 163.464 271.187 164.03 271.371 164.627C271.554 165.224 271.566 165.804 271.407 166.368C271.247 166.928 270.934 167.425 270.466 167.858C269.998 168.292 269.484 168.57 268.924 168.692C268.361 168.812 267.793 168.766 267.218 168.555C266.646 168.342 266.115 167.981 265.625 167.472L265.338 167.163C264.839 166.624 264.497 166.06 264.313 165.468C264.129 164.871 264.117 164.291 264.277 163.726C264.439 163.16 264.755 162.658 265.225 162.222C265.691 161.791 266.208 161.517 266.778 161.4C267.348 161.283 267.924 161.336 268.505 161.56C269.086 161.778 269.623 162.15 270.115 162.676L270.35 162.929ZM268.79 163.947C268.284 163.402 267.808 163.073 267.364 162.962C266.919 162.845 266.527 162.945 266.187 163.26C265.524 163.875 265.634 164.698 266.52 165.729L266.891 166.136C267.39 166.675 267.863 167.005 268.309 167.129C268.756 167.253 269.156 167.151 269.508 166.825C269.842 166.515 269.968 166.133 269.886 165.681C269.803 165.229 269.516 164.736 269.024 164.2L268.79 163.947ZM274.885 163.62L273.565 164.844L268.472 159.352L269.792 158.128L274.885 163.62ZM275.858 154.403L274.21 155.932L278.355 160.402L277.031 161.63L272.886 157.16L271.268 158.66L270.32 157.638L274.91 153.381L275.858 154.403Z" fill="#EDEDED"/>
<path d="M47.2078 271V267.568H50.3278V257.632H47.4478V254.2H54.2638V267.568H57.0718V271H47.2078Z" fill="#313131"/>
<path d="M151.548 170C150.492 170 149.644 169.68 149.004 169.04C148.38 168.4 148.068 167.616 148.068 166.688C148.068 166.144 148.204 165.616 148.476 165.104C148.764 164.592 149.14 164.168 149.604 163.832L154.644 160.232C155.3 159.768 155.628 159.176 155.628 158.456C155.628 157.896 155.444 157.456 155.076 157.136C154.708 156.8 154.22 156.632 153.612 156.632H148.884V153.2H153.996C155.1 153.2 156.06 153.44 156.876 153.92C157.708 154.384 158.348 155.016 158.796 155.816C159.26 156.6 159.492 157.48 159.492 158.456C159.492 159.416 159.292 160.272 158.892 161.024C158.508 161.76 157.876 162.416 156.996 162.992L152.484 166.016C152.372 166.096 152.316 166.192 152.316 166.304C152.316 166.48 152.428 166.568 152.652 166.568H159.9V170H151.548Z" fill="#313131"/>
<path d="M293.213 170V166.568H298.973C299.469 166.568 299.885 166.408 300.221 166.088C300.573 165.768 300.749 165.36 300.749 164.864C300.749 164.384 300.573 163.976 300.221 163.64C299.885 163.304 299.469 163.136 298.973 163.136H294.029V159.848H299.093C299.557 159.848 299.949 159.696 300.269 159.392C300.589 159.088 300.749 158.704 300.749 158.24C300.749 157.776 300.589 157.392 300.269 157.088C299.949 156.784 299.557 156.632 299.093 156.632H293.213V153.2H299.717C300.661 153.2 301.501 153.416 302.237 153.848C302.989 154.28 303.581 154.864 304.013 155.6C304.461 156.32 304.685 157.112 304.685 157.976C304.685 158.632 304.533 159.264 304.229 159.872C303.941 160.48 303.533 161.008 303.005 161.456C303.549 161.904 303.973 162.432 304.277 163.04C304.581 163.648 304.733 164.296 304.733 164.984C304.733 165.928 304.501 166.784 304.037 167.552C303.589 168.304 302.981 168.904 302.213 169.352C301.445 169.784 300.581 170 299.621 170H293.213Z" fill="#313131"/>
<path d="M345.523 80V63.2H353.203C354.339 63.2 355.371 63.448 356.299 63.944C357.227 64.44 357.971 65.128 358.531 66.008C359.091 66.888 359.371 67.904 359.371 69.056C359.371 70.128 359.115 71.096 358.603 71.96C358.091 72.824 357.419 73.512 356.587 74.024L357.931 76.304C358.091 76.544 358.323 76.664 358.627 76.664H360.115V80H357.763C357.043 80 356.387 79.824 355.795 79.472C355.203 79.12 354.739 78.672 354.403 78.128L352.603 74.936H349.555V80H345.523ZM349.555 71.6H352.747C353.451 71.6 354.059 71.384 354.571 70.952C355.083 70.504 355.339 69.88 355.339 69.08C355.339 68.296 355.083 67.68 354.571 67.232C354.059 66.784 353.451 66.56 352.747 66.56H349.555V71.6ZM366.417 80C365.473 80 364.617 79.784 363.849 79.352C363.081 78.904 362.465 78.312 362.001 77.576C361.553 76.824 361.329 75.976 361.329 75.032C361.329 74.328 361.481 73.672 361.785 73.064C362.105 72.44 362.529 71.904 363.057 71.456C362.561 71.024 362.161 70.512 361.857 69.92C361.553 69.328 361.401 68.704 361.401 68.048C361.401 67.136 361.625 66.312 362.073 65.576C362.521 64.84 363.121 64.264 363.873 63.848C364.625 63.416 365.457 63.2 366.369 63.2H373.449V66.584L366.993 66.56C366.529 66.56 366.129 66.72 365.793 67.04C365.473 67.344 365.313 67.728 365.313 68.192C365.313 68.656 365.473 69.04 365.793 69.344C366.129 69.648 366.529 69.8 366.993 69.8H372.633V73.16H367.113C366.601 73.16 366.169 73.328 365.817 73.664C365.481 74 365.313 74.416 365.313 74.912C365.313 75.408 365.481 75.816 365.817 76.136C366.169 76.456 366.601 76.616 367.113 76.616H373.449V80H366.417ZM375.851 80V63.2H383.075C384.195 63.2 385.219 63.456 386.147 63.968C387.091 64.48 387.843 65.192 388.403 66.104C388.963 67 389.243 68.04 389.243 69.224C389.243 70.424 388.963 71.48 388.403 72.392C387.843 73.304 387.091 74.016 386.147 74.528C385.219 75.04 384.195 75.296 383.075 75.296H379.883V80H375.851ZM379.883 71.912H382.619C383.323 71.912 383.931 71.68 384.443 71.216C384.955 70.752 385.211 70.096 385.211 69.248C385.211 68.4 384.955 67.744 384.443 67.28C383.931 66.8 383.323 66.56 382.619 66.56H379.883V71.912ZM395.784 80C394.84 80 393.984 79.784 393.216 79.352C392.448 78.904 391.832 78.312 391.368 77.576C390.92 76.824 390.696 75.976 390.696 75.032C390.696 74.328 390.848 73.672 391.152 73.064C391.472 72.44 391.896 71.904 392.424 71.456C391.928 71.024 391.528 70.512 391.224 69.92C390.92 69.328 390.768 68.704 390.768 68.048C390.768 67.136 390.992 66.312 391.44 65.576C391.888 64.84 392.488 64.264 393.24 63.848C393.992 63.416 394.824 63.2 395.736 63.2H402.816V66.584L396.36 66.56C395.896 66.56 395.496 66.72 395.16 67.04C394.84 67.344 394.68 67.728 394.68 68.192C394.68 68.656 394.84 69.04 395.16 69.344C395.496 69.648 395.896 69.8 396.36 69.8H402V73.16H396.48C395.968 73.16 395.536 73.328 395.184 73.664C394.848 74 394.68 74.416 394.68 74.912C394.68 75.408 394.848 75.816 395.184 76.136C395.536 76.456 395.968 76.616 396.48 76.616H402.816V80H395.784ZM403.754 80L409.202 65.144C409.474 64.408 409.922 63.856 410.546 63.488C411.17 63.104 411.874 62.912 412.658 62.912C413.442 62.912 414.146 63.096 414.77 63.464C415.394 63.816 415.842 64.368 416.114 65.12L421.586 80H417.242L416.186 76.76H409.058L407.954 80H403.754ZM410.09 73.424H415.154L413.018 66.728C412.954 66.552 412.842 66.464 412.682 66.464C412.522 66.464 412.418 66.552 412.37 66.728L410.09 73.424ZM429.303 80C428.279 80 427.375 79.776 426.591 79.328C425.823 78.864 425.215 78.248 424.767 77.48C424.335 76.712 424.119 75.856 424.119 74.912V66.56H419.559V63.2H432.687V66.56H428.151V75.272C428.151 75.64 428.279 75.96 428.535 76.232C428.791 76.504 429.111 76.64 429.495 76.64H430.815V80H429.303ZM434.683 74.192V63.2H438.331V74.192H434.683ZM436.507 80.288C435.867 80.288 435.315 80.064 434.851 79.616C434.403 79.152 434.179 78.608 434.179 77.984C434.179 77.344 434.403 76.8 434.851 76.352C435.315 75.888 435.867 75.656 436.507 75.656C437.131 75.656 437.667 75.888 438.115 76.352C438.579 76.8 438.811 77.344 438.811 77.984C438.811 78.608 438.579 79.152 438.115 79.616C437.667 80.064 437.131 80.288 436.507 80.288Z" fill="#313131"/>
<path d="M392 110L392 298.09" stroke="#C7C7C7" stroke-dasharray="2 2"/>
<path d="M156 187L156 298" stroke="#C7C7C7" stroke-dasharray="2 2"/>
<path d="M300 180L300 298" stroke="#C7C7C7" stroke-dasharray="2 2"/>
<path d="M53 298H393" stroke="#C7C7C7"/>
<path d="M53 298L154 197H299.5L392 104.5" stroke="#C9C9C9" stroke-width="10"/>
<path d="M53 298L154 197H299.5" stroke="#4F4F4F" stroke-width="10"/>
<circle cx="53" cy="297" r="15.5" fill="#FF9142" stroke="black"/>
<circle cx="392" cy="108" r="15.5" fill="#CE42FF" stroke="black"/>
<circle cx="156" cy="196" r="15.5" fill="#4255FF" stroke="black"/>
<circle cx="299" cy="196" r="15.5" fill="#A8E626" stroke="black"/>
<circle cx="393" cy="298" r="3" fill="#565656"/>
</svg>
