<svg width="53" height="41" viewBox="0 0 53 41" fill="none" xmlns="http://www.w3.org/2000/svg">
<path d="M38.1232 40.7031C38.1232 40.7031 38.6612 35.1883 39.0648 30.6151C39.3338 27.2524 42.0239 24.5623 45.3866 24.1588C48.7492 23.7553 52.2464 23.3518 52.2464 23.3518C52.2464 23.3518 48.6147 22.9482 45.3866 22.5447C42.0239 22.1412 39.4683 19.4511 39.0648 16.0884C38.6612 11.5152 38.1232 6.0004 38.1232 6.0004C38.1232 6.0004 37.5852 11.5152 37.1817 16.0884C36.9127 19.4511 34.2225 22.1412 30.8598 22.5447C27.4972 22.9482 24 23.3518 24 23.3518C24 23.3518 27.6317 23.7553 30.8598 24.1588C34.2225 24.5623 36.7781 27.2524 37.1817 30.6151C37.5852 35.1883 38.1232 40.7031 38.1232 40.7031Z" fill="#FFBB1D"/>
<path d="M9.5 23C9.5 23 9.8619 19.345 10.1333 16.314C10.3143 14.0853 12.1238 12.3023 14.3857 12.0349C16.6476 11.7674 19 11.5 19 11.5C19 11.5 16.5571 11.2326 14.3857 10.9651C12.1238 10.6977 10.4048 8.91473 10.1333 6.68605C9.8619 3.65504 9.5 3.30908e-07 9.5 3.30908e-07C9.5 3.30908e-07 9.1381 3.65504 8.86667 6.68605C8.68572 8.91473 6.87618 10.6977 4.61428 10.9651C2.35237 11.2326 0 11.5 0 11.5C0 11.5 2.44285 11.7674 4.61428 12.0349C6.87618 12.3023 8.59524 14.0853 8.86667 16.314C9.1381 19.345 9.5 23 9.5 23Z" fill="#FFBB1D"/>
</svg>
