<svg width="303" height="278" viewBox="0 0 303 278" fill="none" xmlns="http://www.w3.org/2000/svg">
<path fill-rule="evenodd" clip-rule="evenodd" d="M147.434 68.3211C159.723 67.7863 180.003 71.3484 189.365 75.3313C194.4 66.3556 203.755 45.7573 207.169 37.1553C214.931 17.598 250.311 -10.4362 277.131 7.30277C294.763 18.9643 289.523 39.3649 284.832 57.6331C282.386 67.1538 280.09 76.0953 281.257 82.9188C284.664 102.835 286.219 125.253 274.416 133.698C268.257 138.105 261.472 144.299 256.311 149.36C252.278 153.315 251.464 159.37 252.998 164.807C255.342 173.119 256.525 183.855 251.692 191.045C248.881 195.228 246.089 198.477 243.616 201.354C238.54 207.26 234.808 211.603 235.003 219.259C235.292 230.645 221.882 246.078 205.474 249.074C198.156 250.41 192.355 254.169 186.187 258.166C178.636 263.06 170.537 268.309 158.432 269.904L158.435 269.943C158.344 269.942 158.253 269.94 158.162 269.939C158.072 269.95 157.982 269.961 157.892 269.972L157.89 269.933C145.684 269.665 137.061 265.328 129.023 261.285C122.457 257.983 116.281 254.877 108.862 254.345C92.2244 253.153 77.215 239.27 76.2643 227.92C75.625 220.289 71.4422 216.377 65.7538 211.059C62.9826 208.467 59.854 205.542 56.6038 201.69C51.0172 195.068 51.0255 184.267 52.4516 175.749C53.3843 170.178 51.917 164.247 47.4774 160.754C41.7964 156.285 34.3776 150.866 27.7758 147.156C15.1245 140.045 14.2308 117.591 15.4504 97.4219C15.8682 90.5118 12.6126 81.8733 9.1461 72.6752C2.49454 55.0258 -4.9334 35.3164 11.3247 21.8058C36.0558 1.25403 74.2761 25.2724 84.1198 43.8692C88.4495 52.0486 99.9903 71.5068 105.971 79.8815C114.844 74.9036 134.616 69.1562 146.891 68.3507L146.891 68.3477C146.981 68.3428 147.071 68.3381 147.162 68.3336C147.253 68.3282 147.344 68.323 147.433 68.3181L147.434 68.3211Z" fill="#FAFAFA"/>
<path d="M189.365 75.3313L189.169 75.7914L189.582 75.9669L189.801 75.5759L189.365 75.3313ZM147.434 68.3211L146.934 68.3483L146.961 68.8421L147.455 68.8206L147.434 68.3211ZM207.169 37.1553L207.633 37.3398L207.633 37.3398L207.169 37.1553ZM277.131 7.30277L277.407 6.88574L277.407 6.88574L277.131 7.30277ZM284.832 57.6331L285.316 57.7575L285.316 57.7575L284.832 57.6331ZM281.257 82.9188L281.75 82.8345L281.75 82.8345L281.257 82.9188ZM274.416 133.698L274.707 134.105L274.707 134.105L274.416 133.698ZM256.311 149.36L256.661 149.717L256.661 149.717L256.311 149.36ZM252.998 164.807L252.516 164.943L252.516 164.943L252.998 164.807ZM251.692 191.045L252.107 191.324L252.107 191.324L251.692 191.045ZM243.616 201.354L243.237 201.028L243.237 201.028L243.616 201.354ZM235.003 219.259L235.502 219.246L235.502 219.246L235.003 219.259ZM205.474 249.074L205.384 248.582L205.384 248.582L205.474 249.074ZM186.187 258.166L185.915 257.747L185.915 257.747L186.187 258.166ZM158.432 269.904L158.367 269.408L157.908 269.469L157.933 269.931L158.432 269.904ZM158.435 269.943L158.429 270.443L158.963 270.449L158.934 269.915L158.435 269.943ZM158.162 269.939L158.171 269.439L158.135 269.438L158.1 269.443L158.162 269.939ZM157.892 269.972L157.393 269.999L157.422 270.533L157.952 270.469L157.892 269.972ZM157.89 269.933L158.389 269.906L158.364 269.444L157.901 269.433L157.89 269.933ZM129.023 261.285L128.799 261.732L128.799 261.732L129.023 261.285ZM108.862 254.345L108.826 254.844L108.826 254.844L108.862 254.345ZM76.2643 227.92L75.766 227.962L75.766 227.962L76.2643 227.92ZM65.7538 211.059L66.0953 210.693L66.0953 210.693L65.7538 211.059ZM56.6038 201.69L56.986 201.367L56.986 201.367L56.6038 201.69ZM52.4516 175.749L52.9447 175.832L52.9447 175.832L52.4516 175.749ZM47.4774 160.754L47.1682 161.147L47.1682 161.147L47.4774 160.754ZM27.7758 147.156L27.5309 147.591L27.5309 147.591L27.7758 147.156ZM15.4504 97.4219L14.9513 97.3917L14.9513 97.3917L15.4504 97.4219ZM9.1461 72.6752L8.67822 72.8515L8.67822 72.8515L9.1461 72.6752ZM11.3247 21.8058L11.0051 21.4212L11.0051 21.4212L11.3247 21.8058ZM84.1198 43.8692L84.5618 43.6353L84.5618 43.6353L84.1198 43.8692ZM105.971 79.8815L105.564 80.1721L105.825 80.5369L106.216 80.3176L105.971 79.8815ZM146.891 68.3507L146.924 68.8496L147.417 68.8172L147.39 68.3235L146.891 68.3507ZM146.891 68.3477L146.864 67.8484L146.365 67.8757L146.392 68.3749L146.891 68.3477ZM147.162 68.3336L147.187 68.8331L147.192 68.8327L147.162 68.3336ZM147.433 68.3181L147.933 68.2908L147.905 67.7916L147.406 67.8188L147.433 68.3181ZM189.561 74.8712C184.827 72.8574 177.373 70.9632 169.581 69.6391C161.786 68.3145 153.605 67.5521 147.412 67.8216L147.455 68.8206C153.551 68.5554 161.656 69.3066 169.414 70.625C177.175 71.944 184.541 73.8223 189.169 75.7914L189.561 74.8712ZM206.704 36.9709C203.295 45.5601 193.949 66.1366 188.929 75.0867L189.801 75.5759C194.85 66.5746 204.214 45.9546 207.633 37.3398L206.704 36.9709ZM277.407 6.88574C263.782 -2.12619 248.018 0.520769 234.762 7.80473C221.515 15.0841 210.637 27.0624 206.704 36.9709L207.633 37.3398C211.463 27.6909 222.155 15.8734 235.244 8.68113C248.324 1.4934 263.661 -1.00725 276.855 7.71981L277.407 6.88574ZM285.316 57.7575C287.657 48.641 290.163 38.9002 289.852 29.973C289.54 21.0076 286.386 12.8245 277.407 6.88574L276.855 7.71981C285.508 13.4425 288.55 21.2905 288.853 30.0078C289.158 38.7634 286.698 48.357 284.347 57.5088L285.316 57.7575ZM281.75 82.8345C281.18 79.505 281.452 75.6289 282.183 71.3719C282.912 67.1175 284.092 62.5227 285.316 57.7575L284.347 57.5088C283.126 62.2643 281.935 66.9005 281.197 71.2029C280.459 75.5027 280.167 79.5091 280.764 83.0031L281.75 82.8345ZM274.707 134.105C280.794 129.75 283.375 121.84 284.039 112.646C284.704 103.435 283.455 92.8029 281.75 82.8345L280.764 83.0031C282.466 92.9513 283.698 103.487 283.041 112.574C282.384 121.68 279.84 129.202 274.125 133.292L274.707 134.105ZM256.661 149.717C261.816 144.662 268.579 138.489 274.707 134.105L274.125 133.292C267.935 137.721 261.128 143.936 255.961 149.003L256.661 149.717ZM253.479 164.671C251.979 159.355 252.795 153.508 256.661 149.717L255.961 149.003C251.76 153.122 250.949 159.386 252.516 164.943L253.479 164.671ZM252.107 191.324C254.598 187.618 255.521 183.028 255.537 178.349C255.552 173.666 254.659 168.856 253.479 164.671L252.516 164.943C253.68 169.07 254.552 173.784 254.537 178.345C254.522 182.91 253.62 187.282 251.277 190.766L252.107 191.324ZM243.995 201.68C246.468 198.803 249.277 195.534 252.107 191.324L251.277 190.766C248.484 194.922 245.71 198.15 243.237 201.028L243.995 201.68ZM235.502 219.246C235.313 211.806 238.908 207.6 243.995 201.68L243.237 201.028C238.173 206.921 234.302 211.4 234.503 219.272L235.502 219.246ZM205.564 249.566C213.889 248.046 221.435 243.376 226.863 237.657C232.279 231.949 235.652 225.122 235.502 219.246L234.503 219.272C234.643 224.782 231.455 231.364 226.137 236.969C220.83 242.561 213.467 247.106 205.384 248.582L205.564 249.566ZM186.459 258.586C192.639 254.581 198.359 250.881 205.564 249.566L205.384 248.582C197.953 249.939 192.071 253.758 185.915 257.747L186.459 258.586ZM158.498 270.399C170.724 268.788 178.907 263.48 186.459 258.586L185.915 257.747C178.365 262.639 170.349 267.829 158.367 269.408L158.498 270.399ZM157.933 269.931L157.935 269.97L158.934 269.915L158.932 269.877L157.933 269.931ZM158.441 269.443C158.35 269.442 158.261 269.44 158.171 269.439L158.154 270.439C158.245 270.44 158.337 270.441 158.429 270.443L158.441 269.443ZM157.952 270.469C158.044 270.457 158.134 270.446 158.225 270.435L158.1 269.443C158.01 269.454 157.921 269.465 157.832 269.476L157.952 270.469ZM157.391 269.961L157.393 269.999L158.391 269.945L158.389 269.906L157.391 269.961ZM157.901 269.433C145.818 269.168 137.285 264.881 129.248 260.839L128.799 261.732C136.838 265.775 145.55 270.162 157.879 270.433L157.901 269.433ZM129.248 260.839C122.695 257.543 116.432 254.386 108.897 253.846L108.826 254.844C116.131 255.367 122.22 258.423 128.799 261.732L129.248 260.839ZM108.897 253.846C100.702 253.259 92.8877 249.542 87.0036 244.56C81.1074 239.568 77.2226 233.371 76.7625 227.879L75.766 227.962C76.2567 233.819 80.352 240.238 86.3574 245.323C92.375 250.418 100.384 254.239 108.826 254.844L108.897 253.846ZM76.7625 227.879C76.1053 220.032 71.7706 216 66.0953 210.693L65.4123 211.424C71.1138 216.755 75.1448 220.545 75.766 227.962L76.7625 227.879ZM66.0953 210.693C63.3238 208.102 60.215 205.194 56.986 201.367L56.2216 202.012C59.493 205.889 62.6414 208.833 65.4123 211.424L66.0953 210.693ZM56.986 201.367C54.2787 198.158 52.9064 193.91 52.3948 189.375C51.8836 184.842 52.2366 180.061 52.9447 175.832L51.9585 175.667C51.2404 179.955 50.8763 184.834 51.4011 189.487C51.9255 194.136 53.3423 198.599 56.2216 202.012L56.986 201.367ZM52.9447 175.832C53.8981 170.137 52.4101 163.999 47.7865 160.361L47.1682 161.147C51.4239 164.495 52.8706 170.219 51.9585 175.667L52.9447 175.832ZM47.7865 160.361C42.0987 155.887 34.6561 150.449 28.0208 146.72L27.5309 147.591C34.099 151.283 41.4941 156.684 47.1682 161.147L47.7865 160.361ZM28.0208 146.72C21.8943 143.276 18.5478 136.076 16.9033 127.096C15.2621 118.133 15.3403 107.526 15.9495 97.452L14.9513 97.3917C14.3409 107.486 14.2561 118.191 15.9197 127.276C17.58 136.343 21.006 143.924 27.5309 147.591L28.0208 146.72ZM15.9495 97.452C16.1634 93.9137 15.4365 89.9629 14.2356 85.7689C13.0339 81.5724 11.3455 77.0932 9.61397 72.4988L8.67822 72.8515C10.4132 77.4552 12.0859 81.8944 13.2742 86.0442C14.4632 90.1965 15.1552 94.0199 14.9513 97.3917L15.9495 97.452ZM9.61397 72.4988C6.28179 63.6572 2.7927 54.3881 2.1429 45.6514C1.49594 36.9528 3.66584 28.8205 11.6443 22.1903L11.0051 21.4212C2.72545 28.3017 0.480275 36.7793 1.14565 45.7255C1.80819 54.6334 5.35884 64.0438 8.67822 72.8515L9.61397 72.4988ZM11.6443 22.1903C23.8112 12.0795 39.3287 12.8967 53.1133 18.6186C66.9067 24.3441 78.8214 34.9282 83.6779 44.1031L84.5618 43.6353C79.5745 34.2134 67.4572 23.4899 53.4967 17.695C39.5275 11.8965 23.5693 10.9803 11.0051 21.4212L11.6443 22.1903ZM83.6779 44.1031C88.014 52.2947 99.5664 71.7735 105.564 80.1721L106.378 79.5909C100.414 71.24 88.8849 51.8025 84.5618 43.6353L83.6779 44.1031ZM106.216 80.3176C110.602 77.8566 117.721 75.1879 125.292 73.0324C132.861 70.8777 140.835 69.2492 146.924 68.8496L146.858 67.8518C140.672 68.2577 132.623 69.9057 125.019 72.0706C117.417 74.2345 110.213 76.9285 105.727 79.4454L106.216 80.3176ZM146.392 68.3749L146.392 68.3779L147.39 68.3235L147.39 68.3204L146.392 68.3749ZM147.138 67.8342C147.046 67.8387 146.955 67.8435 146.864 67.8484L146.918 68.8469C147.007 68.8421 147.097 68.8374 147.187 68.833L147.138 67.8342ZM147.192 68.8327C147.282 68.8273 147.372 68.8222 147.461 68.8173L147.406 67.8188C147.315 67.8238 147.224 67.829 147.132 67.8345L147.192 68.8327ZM146.934 68.3453L146.934 68.3483L147.933 68.2939L147.933 68.2908L146.934 68.3453Z" fill="#D0D0D0"/>
<mask id="path-3-inside-1_411_1011" fill="white">
</mask>
<path d="M192.454 160.934L192.887 160.684L192.454 160.934ZM223.917 205.001L224.278 204.655L223.917 205.001ZM206.82 228.951L206.836 228.451L206.82 228.951ZM150.42 142.213C155.413 142.023 163.51 142.747 171.519 145.54C179.529 148.333 187.396 153.176 192.021 161.184L192.887 160.684C188.1 152.394 179.988 147.434 171.848 144.595C163.708 141.756 155.485 141.019 150.382 141.213L150.42 142.213ZM192.021 161.184C203.803 181.584 216.676 198.18 223.556 205.347L224.278 204.655C217.465 197.558 204.638 181.031 192.887 160.684L192.021 161.184ZM223.556 205.347C226.822 208.749 227.772 214.669 225.346 219.674C222.94 224.636 217.164 228.769 206.836 228.451L206.805 229.45C217.435 229.778 223.631 225.503 226.245 220.111C228.839 214.762 227.858 208.385 224.278 204.655L223.556 205.347ZM206.836 228.451C195.465 228.1 187.533 225.719 181.763 222.365C175.995 219.012 172.351 214.665 169.585 210.321C168.199 208.145 167.037 205.974 165.933 203.919C164.834 201.872 163.788 199.932 162.649 198.256C160.359 194.885 157.637 192.502 153.209 192.349L153.174 193.348C157.156 193.486 159.626 195.585 161.822 198.818C162.926 200.443 163.947 202.336 165.052 204.392C166.153 206.442 167.333 208.646 168.741 210.858C171.563 215.29 175.313 219.772 181.26 223.229C187.205 226.685 195.308 229.096 206.805 229.45L206.836 228.451Z" fill="#D0D0D0" mask="url(#path-3-inside-1_411_1011)"/>
<mask id="path-5-inside-2_411_1011" fill="white">
</mask>
<path d="M111.468 165.353L111.011 165.151L111.468 165.353ZM84.9872 212.581L84.591 212.276L84.9872 212.581ZM104.588 234.529L104.519 234.034L104.588 234.529ZM151.216 142.169C146.232 142.524 138.262 144.124 130.604 147.772C122.946 151.42 115.653 157.09 111.926 165.554L111.011 165.151C114.868 156.39 122.392 150.577 130.174 146.869C137.958 143.161 146.052 141.534 151.145 141.172L151.216 142.169ZM111.926 165.554C102.434 187.115 91.443 205.013 85.3835 212.886L84.591 212.276C90.5912 204.48 101.544 186.656 111.011 165.151L111.926 165.554ZM85.3835 212.886C82.5071 216.624 82.2064 222.612 85.1635 227.323C88.0946 231.993 94.286 235.474 104.519 234.034L104.658 235.024C94.1265 236.506 87.5024 232.931 84.3165 227.855C81.1566 222.82 81.4375 216.374 84.591 212.276L85.3835 212.886ZM104.519 234.034C115.784 232.448 123.409 229.218 128.78 225.255C134.149 221.295 137.299 216.578 139.576 211.958C140.716 209.645 141.635 207.36 142.509 205.197C143.379 203.043 144.208 201.001 145.157 199.21C147.067 195.611 149.514 192.945 153.899 192.311L154.042 193.301C150.099 193.871 147.872 196.226 146.041 199.679C145.12 201.415 144.311 203.407 143.436 205.572C142.565 207.729 141.632 210.048 140.473 212.4C138.15 217.113 134.91 221.976 129.374 226.06C123.84 230.142 116.048 233.421 104.658 235.024L104.519 234.034Z" fill="#D0D0D0" mask="url(#path-5-inside-2_411_1011)"/>
<path fill-rule="evenodd" clip-rule="evenodd" d="M150.764 149.755C154.24 148.759 161.458 147.107 164.764 147.859C169.018 148.828 181.484 162.849 176.176 170.04C174.165 172.764 171.775 174.221 169.557 174.93C166.515 175.902 162.955 178.3 160.462 180.298C158.805 181.627 156.367 182.716 152.88 183.004L152.881 183.014C152.766 183.02 152.653 183.025 152.54 183.029C152.455 183.035 152.369 183.04 152.282 183.045L152.282 183.038C148.784 183.131 146.243 182.314 144.451 181.173C141.756 179.458 137.956 177.462 134.826 176.826C132.544 176.363 130.01 175.174 127.714 172.685C121.655 166.115 132.522 150.82 136.645 149.395C139.849 148.287 147.198 149.143 150.764 149.755Z" fill="#FAFAFA"/>
<path d="M164.764 147.859L164.875 147.372L164.875 147.372L164.764 147.859ZM150.764 149.755L150.679 150.247L150.792 150.267L150.901 150.235L150.764 149.755ZM176.176 170.04L175.774 169.743L175.774 169.743L176.176 170.04ZM169.557 174.93L169.71 175.406L169.71 175.406L169.557 174.93ZM160.462 180.298L160.15 179.908L160.15 179.908L160.462 180.298ZM152.88 183.004L152.839 182.506L152.355 182.546L152.381 183.031L152.88 183.004ZM152.881 183.014L152.908 183.513L153.407 183.486L153.38 182.986L152.881 183.014ZM152.54 183.029L152.52 182.53L152.507 182.531L152.54 183.029ZM152.282 183.045L151.783 183.072L151.81 183.572L152.31 183.544L152.282 183.045ZM152.282 183.038L152.781 183.011L152.755 182.525L152.269 182.538L152.282 183.038ZM144.451 181.173L144.719 180.751L144.719 180.751L144.451 181.173ZM134.826 176.826L134.726 177.316L134.726 177.316L134.826 176.826ZM127.714 172.685L127.347 173.024L127.347 173.024L127.714 172.685ZM136.645 149.395L136.482 148.922L136.482 148.922L136.645 149.395ZM164.875 147.372C163.115 146.971 160.394 147.215 157.745 147.658C155.07 148.105 152.378 148.772 150.626 149.274L150.901 150.235C152.625 149.741 155.28 149.084 157.91 148.645C160.565 148.201 163.107 147.995 164.653 148.347L164.875 147.372ZM176.578 170.337C178.017 168.388 178.227 166.003 177.72 163.575C177.214 161.151 175.986 158.634 174.473 156.341C172.958 154.044 171.141 151.946 169.428 150.356C168.572 149.561 167.736 148.888 166.97 148.379C166.213 147.876 165.494 147.513 164.875 147.372L164.653 148.347C165.098 148.448 165.699 148.735 166.417 149.212C167.127 149.684 167.921 150.321 168.748 151.089C170.403 152.625 172.168 154.663 173.638 156.892C175.111 159.124 176.27 161.522 176.741 163.779C177.212 166.033 176.989 168.097 175.774 169.743L176.578 170.337ZM169.71 175.406C172.022 174.668 174.501 173.15 176.578 170.337L175.774 169.743C173.828 172.378 171.528 173.775 169.405 174.454L169.71 175.406ZM160.775 180.688C163.255 178.7 166.757 176.35 169.71 175.406L169.405 174.454C166.272 175.455 162.655 177.9 160.15 179.908L160.775 180.688ZM152.922 183.502C156.496 183.207 159.031 182.087 160.775 180.688L160.15 179.908C158.579 181.167 156.239 182.225 152.839 182.506L152.922 183.502ZM152.381 183.031L152.382 183.041L153.38 182.986L153.38 182.977L152.381 183.031ZM152.854 182.514C152.742 182.52 152.631 182.526 152.52 182.53L152.559 183.529C152.675 183.525 152.791 183.519 152.908 183.513L152.854 182.514ZM152.31 183.544C152.398 183.539 152.486 183.534 152.573 183.528L152.507 182.531C152.423 182.536 152.34 182.541 152.255 182.546L152.31 183.544ZM151.783 183.065L151.783 183.072L152.782 183.018L152.781 183.011L151.783 183.065ZM152.269 182.538C148.859 182.628 146.418 181.832 144.719 180.751L144.182 181.595C146.069 182.795 148.71 183.633 152.295 183.538L152.269 182.538ZM144.719 180.751C142.011 179.028 138.148 176.99 134.925 176.336L134.726 177.316C137.764 177.933 141.501 179.888 144.182 181.595L144.719 180.751ZM134.925 176.336C132.741 175.893 130.302 174.754 128.082 172.346L127.347 173.024C129.718 175.595 132.347 176.833 134.726 177.316L134.925 176.336ZM128.082 172.346C126.695 170.842 126.249 168.815 126.471 166.523C126.694 164.228 127.586 161.718 128.806 159.339C130.025 156.963 131.558 154.746 133.036 153.039C133.775 152.185 134.495 151.465 135.149 150.919C135.811 150.367 136.377 150.017 136.808 149.867L136.482 148.922C135.882 149.13 135.207 149.569 134.509 150.151C133.803 150.74 133.045 151.501 132.28 152.384C130.751 154.151 129.172 156.435 127.917 158.882C126.663 161.326 125.716 163.962 125.476 166.426C125.236 168.895 125.704 171.243 127.347 173.024L128.082 172.346ZM136.808 149.867C138.307 149.35 140.854 149.277 143.54 149.429C146.201 149.58 148.911 149.944 150.679 150.247L150.848 149.262C149.051 148.954 146.303 148.584 143.597 148.431C140.916 148.279 138.187 148.333 136.482 148.922L136.808 149.867Z" fill="#D0D0D0"/>
</svg>
