<svg width="221" height="212" viewBox="0 0 221 212" fill="none" xmlns="http://www.w3.org/2000/svg">
<path fill-rule="evenodd" clip-rule="evenodd" d="M126.273 66.4506C133.118 69.3037 143.275 76.4377 147.366 81.0074C152.41 77.3967 162.788 68.5481 166.853 64.7268C176.094 56.0386 202.579 49.7915 212.678 66.337C219.317 77.2139 211.237 87.0079 204.001 95.7781C200.23 100.349 196.688 104.641 195.579 108.664C192.342 120.407 187.453 133.04 178.85 134.629C175.563 135.237 171.848 136.281 168.479 137.362C163.101 139.089 159.909 144.308 158.409 149.754C157.268 153.898 155.227 158.041 151.772 160.114C149.167 161.678 146.812 162.737 144.726 163.674C140.444 165.599 137.296 167.014 135.443 171.243C132.687 177.531 121.418 182.523 111.696 179.959C107.36 178.816 103.232 179.383 98.8423 179.986C93.469 180.725 87.7047 181.517 80.6901 179.29L80.6812 179.312C80.6314 179.288 80.5818 179.264 80.5323 179.239C80.4808 179.223 80.4293 179.206 80.3777 179.189L80.3864 179.168C73.7932 175.897 70.1965 171.324 66.8439 167.06C64.1051 163.577 61.5292 160.302 57.6156 158.113C48.8401 153.204 44.2006 141.786 46.5861 135.348C48.1902 131.019 46.9081 127.814 45.1645 123.455C44.315 121.332 43.3561 118.934 42.5679 116C41.5227 112.108 42.9322 107.711 44.9896 103.937C47.6935 98.9772 49.0218 93.0053 46.352 88.0272C44.6799 84.9095 42.7322 81.5776 40.7891 78.8577C35.7037 71.7391 40.962 59.2549 46.7891 48.5587C48.7855 44.8941 49.2192 39.346 49.681 33.4385C50.5672 22.1032 51.5567 9.44485 63.8879 6.23126C82.6456 1.34288 97.3599 24.2331 97.9737 36.9023C98.2436 42.4747 99.5632 56.0484 100.684 62.15C106.801 61.7036 119.064 63.6266 125.97 66.3281L125.97 66.3262C126.027 66.349 126.083 66.372 126.14 66.3953C126.185 66.4132 126.229 66.4311 126.274 66.4491L126.273 66.4506Z" fill="#FAFAFA"/>
<path d="M147.366 81.0074L146.993 81.3408L147.292 81.6749L147.657 81.4139L147.366 81.0074ZM126.273 66.4506L125.81 66.2633L125.624 66.7218L126.081 66.9121L126.273 66.4506ZM166.853 64.7268L166.51 64.3625L166.853 64.7268ZM212.678 66.337L213.105 66.0765L213.105 66.0765L212.678 66.337ZM204.001 95.7781L203.615 95.4599L204.001 95.7781ZM195.579 108.664L196.061 108.797L195.579 108.664ZM178.85 134.629L178.941 135.121L178.85 134.629ZM168.479 137.362L168.326 136.886L168.479 137.362ZM158.409 149.754L158.891 149.887L158.409 149.754ZM151.772 160.114L151.515 159.686L151.772 160.114ZM144.726 163.674L144.931 164.13L144.726 163.674ZM135.443 171.243L134.985 171.042L135.443 171.243ZM111.696 179.959L111.823 179.476L111.696 179.959ZM98.8422 179.986L98.7742 179.491L98.8422 179.986ZM80.6901 179.29L80.8414 178.813L80.3999 178.673L80.2265 179.103L80.6901 179.29ZM80.6812 179.312L80.4635 179.762L80.9446 179.995L81.1448 179.499L80.6812 179.312ZM80.5323 179.239L80.7522 178.79L80.7201 178.775L80.686 178.764L80.5323 179.239ZM80.3776 179.189L79.914 179.002L79.7139 179.497L80.2215 179.664L80.3776 179.189ZM80.3863 179.168L80.8499 179.355L81.0234 178.925L80.6085 178.72L80.3863 179.168ZM66.8438 167.06L67.2369 166.751L66.8438 167.06ZM57.6155 158.113L57.8596 157.676L57.6155 158.113ZM46.5861 135.348L46.1173 135.174L46.5861 135.348ZM45.1644 123.455L44.7002 123.641L45.1644 123.455ZM42.5679 116L42.085 116.13L42.5679 116ZM44.9896 103.937L45.4286 104.176L44.9896 103.937ZM46.352 88.0272L46.7926 87.7909L46.352 88.0272ZM40.7891 78.8577L41.196 78.5671L40.7891 78.8577ZM46.7891 48.5587L47.2281 48.7979L46.7891 48.5587ZM49.681 33.4385L50.1795 33.4774L49.681 33.4385ZM63.8879 6.23125L64.014 6.71509L63.8879 6.23125ZM97.9737 36.9023L98.4731 36.8781L97.9737 36.9023ZM100.684 62.15L100.193 62.2403L100.274 62.6813L100.721 62.6486L100.684 62.15ZM125.97 66.3281L125.787 66.7937L126.248 66.9739L126.433 66.5154L125.97 66.3281ZM125.97 66.3262L126.158 65.8626L125.694 65.6753L125.507 66.1389L125.97 66.3262ZM126.14 66.3953L125.95 66.8578L125.955 66.8599L126.14 66.3953ZM126.274 66.4491L126.737 66.6363L126.925 66.1727L126.461 65.9855L126.274 66.4491ZM147.738 80.6739C145.655 78.3464 142.056 75.3946 138.137 72.6745C134.216 69.9525 129.933 67.4344 126.466 65.9891L126.081 66.9121C129.458 68.3199 133.676 70.7953 137.567 73.496C141.461 76.1986 144.986 79.0986 146.993 81.3408L147.738 80.6739ZM166.51 64.3625C162.455 68.1744 152.096 77.0071 147.075 80.6008L147.657 81.4139C152.725 77.7862 163.12 68.9218 167.195 65.0911L166.51 64.3625ZM213.105 66.0765C207.921 57.5833 198.55 54.9843 189.412 55.5703C180.283 56.1557 171.232 59.9227 166.51 64.3625L167.195 65.0911C171.714 60.8427 180.527 57.1421 189.476 56.5682C198.415 55.995 207.336 58.5451 212.251 66.5975L213.105 66.0765ZM204.386 96.0963C207.993 91.7252 211.874 87.0272 214.002 82.044C216.146 77.0254 216.526 71.6821 213.105 66.0765L212.251 66.5975C215.469 71.8688 215.128 76.861 213.083 81.6512C211.022 86.4766 207.245 91.0608 203.615 95.4599L204.386 96.0963ZM196.061 108.797C196.593 106.866 197.719 104.842 199.202 102.712C200.684 100.585 202.498 98.3855 204.386 96.0963L203.615 95.4599C201.733 97.7414 199.891 99.9736 198.381 102.141C196.874 104.306 195.674 106.44 195.097 108.532L196.061 108.797ZM178.941 135.121C183.467 134.285 186.939 130.562 189.663 125.699C192.396 120.82 194.44 114.678 196.061 108.797L195.097 108.532C193.481 114.393 191.462 120.439 188.791 125.21C186.11 129.996 182.836 133.385 178.759 134.138L178.941 135.121ZM168.632 137.838C171.991 136.76 175.684 135.723 178.941 135.121L178.759 134.138C175.443 134.75 171.704 135.802 168.326 136.886L168.632 137.838ZM158.891 149.887C160.372 144.507 163.491 139.489 168.632 137.838L168.326 136.886C162.711 138.689 159.445 144.109 157.927 149.621L158.891 149.887ZM152.03 160.543C155.653 158.368 157.74 154.068 158.891 149.887L157.927 149.621C156.796 153.728 154.801 157.713 151.515 159.686L152.03 160.543ZM144.931 164.13C147.017 163.193 149.396 162.124 152.03 160.543L151.515 159.686C148.938 161.232 146.607 162.28 144.521 163.218L144.931 164.13ZM135.901 171.443C137.667 167.413 140.633 166.062 144.931 164.13L144.521 163.218C140.255 165.136 136.924 166.616 134.985 171.042L135.901 171.443ZM111.568 180.443C116.549 181.756 121.906 181.132 126.364 179.386C130.808 177.647 134.449 174.755 135.901 171.443L134.985 171.042C133.68 174.019 130.31 176.768 126 178.455C121.704 180.137 116.566 180.726 111.823 179.476L111.568 180.443ZM98.9103 180.482C103.314 179.876 107.344 179.328 111.568 180.443L111.823 179.476C107.376 178.303 103.149 178.89 98.7742 179.491L98.9103 180.482ZM80.5388 179.767C87.6709 182.031 93.5359 181.22 98.9103 180.482L98.7742 179.491C93.4021 180.229 87.7385 181.003 80.8414 178.813L80.5388 179.767ZM80.2265 179.103L80.2176 179.125L81.1448 179.499L81.1537 179.477L80.2265 179.103ZM80.8989 178.862C80.8498 178.838 80.8009 178.814 80.7522 178.79L80.3124 179.688C80.3626 179.713 80.413 179.738 80.4635 179.762L80.8989 178.862ZM80.2215 179.664C80.274 179.681 80.3263 179.698 80.3786 179.715L80.686 178.764C80.6353 178.747 80.5845 178.731 80.5338 178.714L80.2215 179.664ZM79.9227 178.98L79.914 179.002L80.8412 179.376L80.8499 179.355L79.9227 178.98ZM80.6085 178.72C74.1257 175.504 70.5888 171.014 67.2369 166.751L66.4508 167.369C69.8042 171.634 73.4606 176.291 80.1642 179.615L80.6085 178.72ZM67.2369 166.751C64.5071 163.28 61.8739 159.922 57.8596 157.676L57.3715 158.549C61.1844 160.682 63.7031 163.875 66.4508 167.369L67.2369 166.751ZM57.8596 157.676C53.5795 155.282 50.2922 151.289 48.37 147.096C46.4412 142.888 45.9258 138.569 47.0549 135.522L46.1173 135.174C44.8609 138.565 45.4725 143.174 47.4609 147.512C49.456 151.865 52.8762 156.035 57.3715 158.549L57.8596 157.676ZM47.0549 135.522C48.734 130.99 47.3656 127.612 45.6287 123.269L44.7002 123.641C46.4505 128.016 47.6463 131.048 46.1173 135.174L47.0549 135.522ZM45.6287 123.269C44.7791 121.146 43.8304 118.773 43.0508 115.87L42.085 116.13C42.8817 119.096 43.8509 121.518 44.7002 123.641L45.6287 123.269ZM43.0508 115.87C42.0565 112.168 43.3896 107.916 45.4286 104.176L44.5506 103.698C42.4748 107.505 40.9887 112.048 42.085 116.13L43.0508 115.87ZM45.4286 104.176C48.1654 99.1561 49.5799 92.9882 46.7926 87.7909L45.9113 88.2636C48.4636 93.0225 47.2215 98.7984 44.5506 103.698L45.4286 104.176ZM46.7926 87.7909C45.1159 84.6644 43.1567 81.3116 41.196 78.5671L40.3823 79.1483C42.3077 81.8435 44.244 85.1545 45.9113 88.2636L46.7926 87.7909ZM41.196 78.5671C38.7861 75.1937 38.7844 70.4822 40.1804 65.177C41.5719 59.8892 44.3195 54.137 47.2281 48.7979L46.35 48.3195C43.4315 53.6766 40.6364 59.5146 39.2133 64.9225C37.7948 70.3132 37.7067 75.4031 40.3823 79.1483L41.196 78.5671ZM47.2281 48.7979C48.2662 46.8923 48.885 44.524 49.3041 41.9191C49.7237 39.3116 49.9489 36.4262 50.1795 33.4774L49.1825 33.3995C48.9512 36.3582 48.7287 39.2006 48.3168 41.7602C47.9046 44.3223 47.3083 46.5604 46.35 48.3195L47.2281 48.7979ZM50.1795 33.4774C50.624 27.7917 51.0908 21.8703 52.9598 16.9673C54.8151 12.1002 58.0379 8.2725 64.014 6.71509L63.7618 5.74741C57.4067 7.4036 53.9691 11.5119 52.0253 16.6111C50.0952 21.6745 49.6242 27.75 49.1825 33.3995L50.1795 33.4774ZM64.014 6.71509C73.143 4.33602 81.3324 8.69812 87.3652 15.3194C93.4043 21.9477 97.1741 30.7314 97.4743 36.9265L98.4731 36.8781C98.1594 30.404 94.2653 21.4079 88.1044 14.6459C81.9371 7.87692 73.3905 3.23811 63.7618 5.74741L64.014 6.71509ZM97.4743 36.9265C97.7449 42.5127 99.0661 56.11 100.193 62.2403L101.176 62.0596C100.06 55.9869 98.7424 42.4368 98.4731 36.8781L97.4743 36.9265ZM100.721 62.6486C103.722 62.4296 108.273 62.7919 112.951 63.5521C117.626 64.3117 122.38 65.4607 125.787 66.7937L126.152 65.8625C122.653 64.4939 117.823 63.3307 113.111 62.565C108.403 61.8 103.763 61.424 100.648 61.6513L100.721 62.6486ZM125.507 66.1389L125.506 66.1408L126.433 66.5154L126.434 66.5135L125.507 66.1389ZM126.33 65.9329C126.272 65.9092 126.215 65.8857 126.158 65.8626L125.783 66.7898C125.838 66.8122 125.894 66.8348 125.95 66.8577L126.33 65.9329ZM125.955 66.8599C125.999 66.8774 126.043 66.895 126.087 66.9127L126.461 65.9855C126.416 65.9672 126.371 65.949 126.325 65.9308L125.955 66.8599ZM125.81 66.2618L125.81 66.2633L126.737 66.6378L126.737 66.6363L125.81 66.2618Z" fill="#D0D0D0"/>
<mask id="path-3-inside-1_411_1039" fill="white">
</mask>
<path d="M127.145 128.521L126.647 128.563L127.145 128.521ZM133.041 160.624L132.567 160.784L133.041 160.624ZM117.58 169.321L117.806 168.875L117.806 168.875L117.58 169.321ZM108.917 107.728C111.67 108.894 115.883 111.348 119.52 114.903C123.157 118.458 126.178 123.073 126.647 128.563L127.644 128.478C127.146 122.664 123.954 117.839 120.219 114.188C116.482 110.536 112.161 108.016 109.306 106.807L108.917 107.728ZM126.647 128.563C127.858 142.725 130.64 155.094 132.567 160.784L133.514 160.464C131.618 154.865 128.849 142.578 127.644 128.478L126.647 128.563ZM132.567 160.784C133.45 163.392 132.487 166.781 129.94 168.844C127.432 170.876 123.309 171.664 117.806 168.875L117.354 169.767C123.126 172.693 127.689 171.955 130.57 169.621C133.413 167.318 134.543 163.501 133.514 160.464L132.567 160.784ZM117.806 168.875C111.712 165.785 108.021 162.475 105.753 159.2C103.486 155.928 102.617 152.657 102.222 149.598C102.023 148.064 101.945 146.589 101.868 145.184C101.792 143.788 101.717 142.451 101.523 141.232C101.13 138.774 100.233 136.704 97.7762 135.447L97.3206 136.337C99.38 137.391 100.169 139.096 100.535 141.39C100.72 142.548 100.793 143.831 100.87 145.239C100.946 146.638 101.026 148.15 101.23 149.726C101.638 152.888 102.546 156.327 104.931 159.77C107.314 163.21 111.148 166.62 117.354 169.767L117.806 168.875Z" fill="#D0D0D0" mask="url(#path-3-inside-1_411_1039)"/>
<mask id="path-5-inside-2_411_1039" fill="white">
</mask>
<path d="M81.8119 110.208L82.1407 110.584L81.8119 110.208ZM55.2722 129.209L55.5015 129.653L55.2722 129.209ZM60.3541 146.204L60.5011 145.726L60.5011 145.726L60.3541 146.204ZM109.368 107.911C106.577 106.837 101.842 105.676 96.7567 105.708C91.6706 105.739 86.2921 106.961 82.1407 110.584L81.4831 109.831C85.8793 105.994 91.5267 104.74 96.7506 104.708C101.975 104.676 106.834 105.864 109.727 106.978L109.368 107.911ZM82.1407 110.584C71.433 119.931 60.8408 126.898 55.5015 129.653L55.0429 128.764C60.2958 126.053 70.8219 119.137 81.4831 109.831L82.1407 110.584ZM55.5015 129.653C53.0553 130.915 51.3939 134.023 51.793 137.276C52.1862 140.48 54.6049 143.911 60.5011 145.726L60.207 146.681C54.0223 144.778 51.252 141.077 50.8005 137.397C50.3549 133.766 52.1931 130.235 55.0429 128.764L55.5015 129.653ZM60.5011 145.726C67.0315 147.736 71.9862 147.919 75.8923 147.138C79.7956 146.359 82.6936 144.609 85.1023 142.683C86.3102 141.717 87.3914 140.71 88.4223 139.753C89.447 138.801 90.4294 137.891 91.4157 137.15C93.4055 135.654 95.4892 134.788 98.1297 135.59L97.8392 136.547C95.6254 135.875 93.8735 136.553 92.0166 137.949C91.0795 138.654 90.1357 139.526 89.1028 140.486C88.0761 141.439 86.9682 142.471 85.7268 143.464C83.2368 145.455 80.1952 147.298 76.0882 148.119C71.9841 148.939 66.8579 148.729 60.207 146.681L60.5011 145.726Z" fill="#D0D0D0" mask="url(#path-5-inside-2_411_1039)"/>
<path fill-rule="evenodd" clip-rule="evenodd" d="M107.253 111.751C105.464 110.505 101.67 108.156 99.6373 107.94C97.0224 107.663 87.1771 113.23 88.8029 118.367C89.0953 119.291 89.4921 120.068 89.9489 120.72C91.7825 123.336 94.8763 127.089 97.4011 129.046C97.9867 129.5 98.6994 129.927 99.5627 130.304L99.5607 130.309C99.6205 130.333 99.68 130.357 99.7392 130.38C99.7908 130.401 99.8431 130.423 99.8958 130.444L99.8976 130.44C100.781 130.768 101.59 130.956 102.327 131.036C105.502 131.382 110.335 130.831 113.471 130.222C114.252 130.071 115.078 129.787 115.93 129.325C120.667 126.759 117.451 115.916 115.378 114.299C113.766 113.042 109.406 112.097 107.253 111.751Z" fill="#FAFAFA"/>
<path d="M99.6373 107.94L99.69 107.443L99.6373 107.94ZM107.253 111.751L106.967 112.161L107.061 112.226L107.174 112.244L107.253 111.751ZM88.8029 118.367L88.3262 118.518L88.8029 118.367ZM89.9489 120.72L90.3583 120.433L89.9489 120.72ZM97.4011 129.046L97.7075 128.651L97.4011 129.046ZM99.5627 130.304L100.026 130.492L100.208 130.041L99.7629 129.846L99.5627 130.304ZM99.5607 130.309L99.0971 130.122L98.9098 130.585L99.3734 130.773L99.5607 130.309ZM99.7392 130.38L99.9325 129.918L99.9196 129.913L99.7392 130.38ZM99.8958 130.444L99.7085 130.908L100.172 131.095L100.359 130.631L99.8958 130.444ZM99.8976 130.44L100.072 129.971L99.6161 129.802L99.434 130.253L99.8976 130.44ZM102.327 131.036L102.381 130.539L102.327 131.036ZM113.471 130.222L113.376 129.732L113.471 130.222ZM115.93 129.325L115.692 128.886L115.93 129.325ZM115.378 114.299L115.685 113.905L115.378 114.299ZM99.5846 108.437C100.492 108.533 101.87 109.127 103.299 109.899C104.705 110.658 106.085 111.546 106.967 112.161L107.539 111.34C106.633 110.709 105.221 109.8 103.774 109.019C102.351 108.251 100.815 107.562 99.69 107.443L99.5846 108.437ZM89.2795 118.216C88.9299 117.111 89.1823 115.95 89.8722 114.787C90.5641 113.62 91.6721 112.496 92.9357 111.519C94.1961 110.544 95.5866 109.734 96.816 109.187C97.4305 108.913 97.9974 108.709 98.4815 108.581C98.9748 108.452 99.3462 108.412 99.5846 108.437L99.69 107.443C99.2747 107.399 98.7665 107.472 98.2272 107.614C97.6787 107.758 97.0601 107.983 96.4093 108.273C95.1081 108.852 93.6486 109.703 92.3239 110.728C91.0026 111.75 89.7907 112.963 89.0121 114.276C88.2315 115.593 87.8629 117.054 88.3262 118.518L89.2795 118.216ZM90.3583 120.433C89.9312 119.824 89.5569 119.092 89.2795 118.216L88.3262 118.518C88.6337 119.489 89.0531 120.313 89.5395 121.007L90.3583 120.433ZM97.7075 128.651C95.2421 126.74 92.1825 123.035 90.3583 120.433L89.5395 121.007C91.3825 123.636 94.5105 127.438 97.0948 129.441L97.7075 128.651ZM99.7629 129.846C98.9342 129.484 98.2577 129.077 97.7075 128.651L97.0948 129.441C97.7158 129.922 98.4647 130.37 99.3625 130.762L99.7629 129.846ZM99.0991 130.117L99.0971 130.122L100.024 130.496L100.026 130.492L99.0991 130.117ZM99.3734 130.773C99.4355 130.798 99.4973 130.822 99.5587 130.846L99.9196 129.913C99.8627 129.891 99.8055 129.869 99.748 129.846L99.3734 130.773ZM100.083 129.981C100.032 129.96 99.9821 129.939 99.9324 129.919L99.5459 130.841C99.5996 130.863 99.6538 130.886 99.7085 130.908L100.083 129.981ZM99.434 130.253L99.4322 130.257L100.359 130.631L100.361 130.627L99.434 130.253ZM99.7233 130.909C100.642 131.25 101.492 131.448 102.273 131.533L102.381 130.539C101.689 130.463 100.919 130.286 100.072 129.971L99.7233 130.909ZM102.273 131.533C105.523 131.887 110.414 131.325 113.566 130.713L113.376 129.732C110.256 130.337 105.482 130.877 102.381 130.539L102.273 131.533ZM113.566 130.713C114.398 130.552 115.272 130.251 116.168 129.765L115.692 128.886C114.884 129.323 114.106 129.59 113.376 129.732L113.566 130.713ZM116.168 129.765C117.518 129.034 118.268 127.727 118.62 126.238C118.972 124.752 118.944 123.037 118.703 121.384C118.461 119.727 118.002 118.101 117.469 116.781C117.202 116.12 116.913 115.529 116.618 115.044C116.329 114.567 116.014 114.161 115.685 113.905L115.07 114.693C115.259 114.841 115.499 115.127 115.764 115.563C116.024 115.991 116.289 116.532 116.541 117.155C117.046 118.403 117.484 119.952 117.713 121.528C117.943 123.109 117.96 124.687 117.647 126.007C117.336 127.323 116.711 128.334 115.692 128.886L116.168 129.765ZM115.685 113.905C114.793 113.209 113.211 112.638 111.653 112.202C110.071 111.759 108.423 111.433 107.333 111.257L107.174 112.244C108.236 112.415 109.845 112.735 111.384 113.165C112.947 113.603 114.351 114.132 115.07 114.693L115.685 113.905Z" fill="#D0D0D0"/>
</svg>
