<svg width="17" height="17" viewBox="0 0 17 17" fill="none" xmlns="http://www.w3.org/2000/svg">
<path d="M8.5 17C13.1944 17 17 13.1944 17 8.5C17 3.80558 13.1944 0 8.5 0C3.80558 0 0 3.80558 0 8.5C0 13.1944 3.80558 17 8.5 17Z" fill="#2B2B2B"/>
<path fill-rule="evenodd" clip-rule="evenodd" d="M3.84772 8.41046C6.32564 7.33087 7.97798 6.61914 8.80473 6.27526C11.1653 5.29343 11.6558 5.12288 11.9755 5.11725C12.0458 5.11601 12.203 5.13344 12.3048 5.21607C12.3908 5.28585 12.4145 5.38011 12.4258 5.44626C12.4371 5.51242 12.4512 5.66312 12.44 5.78088C12.3121 7.12493 11.7586 10.3866 11.477 11.8919C11.3579 12.5289 11.1233 12.7425 10.8961 12.7634C10.4025 12.8088 10.0277 12.4372 9.5496 12.1238C8.80149 11.6334 8.37886 11.3281 7.65269 10.8496C6.81347 10.2966 7.3575 9.99259 7.83577 9.49585C7.96093 9.36585 10.1358 7.38764 10.1779 7.20819C10.1832 7.18575 10.188 7.10209 10.1383 7.05791C10.0886 7.01374 10.0153 7.02884 9.96235 7.04086C9.88731 7.05789 8.6922 7.84781 6.377 9.41064C6.03777 9.64358 5.7305 9.75707 5.45521 9.75113C5.15171 9.74457 4.56791 9.57953 4.13392 9.43845C3.6016 9.26542 3.17853 9.17393 3.21537 8.88007C3.23456 8.72701 3.44534 8.57047 3.84772 8.41046Z" fill="white"/>
</svg>
