<svg width="15" height="13" viewBox="0 0 15 13" fill="none" xmlns="http://www.w3.org/2000/svg">
<path d="M13.2331 2.04983C13.8759 1.63981 14.3569 0.994185 14.5862 0.233505C13.9822 0.615898 13.3213 0.885267 12.6322 1.02996C11.6767 -0.0484094 10.1629 -0.310836 8.93661 0.38932C7.71031 1.08948 7.07513 2.57888 7.38598 4.02529C4.91176 3.89275 2.60658 2.64577 1.04408 0.594627C0.228635 2.09529 0.645343 4.01364 1.99637 4.97859C1.50782 4.96183 1.03011 4.8207 0.603069 4.56697C0.603069 4.58074 0.603069 4.59451 0.603069 4.60828C0.603352 6.17148 1.63594 7.51798 3.072 7.82778C2.61884 7.95932 2.14352 7.97868 1.68228 7.8844C2.08615 9.22121 3.24091 10.137 4.55708 10.1644C3.46699 11.0772 2.12076 11.5723 0.735013 11.5698C0.48939 11.5702 0.24396 11.5551 0 11.5247C1.4072 12.4895 3.04501 13.0016 4.71771 12.9998C7.04483 13.0168 9.28126 12.038 10.9268 10.2822C12.5723 8.52641 13.4895 6.14018 13.4733 3.65728C13.4733 3.51497 13.4702 3.37343 13.464 3.23265C14.0667 2.76794 14.5868 2.19225 15 1.53263C14.4385 1.79816 13.843 1.97249 13.2331 2.04983Z" fill="#2B2B2B"/>
</svg>
