<svg width="20" height="19" viewBox="0 0 20 19" fill="none" xmlns="http://www.w3.org/2000/svg">
<path d="M9.87905 18.4185C7.23928 18.4185 6.92809 18.4053 5.89794 18.3625C5.09461 18.3374 4.30167 18.1825 3.55327 17.9044C2.2584 17.4264 1.23451 16.4548 0.731085 15.2263C0.449195 14.5137 0.297153 13.7609 0.281467 13C0.221375 12.0249 0.221375 11.7052 0.221375 9.22046C0.221375 6.70922 0.235324 6.41606 0.281467 5.44394C0.297496 4.68407 0.449533 3.93232 0.731085 3.22078C1.23396 1.99064 2.25952 1.01815 3.55649 0.541581C4.30619 0.273053 5.09887 0.128448 5.90009 0.11405C6.92487 0.059082 7.26182 0.059082 9.87905 0.059082C12.5403 0.059082 12.8461 0.0723151 13.8602 0.11405C14.6634 0.128573 15.4582 0.273163 16.2102 0.541581C17.5068 1.01869 18.5321 1.99099 19.0356 3.22078C19.3222 3.94269 19.4751 4.70619 19.4874 5.47753C19.5475 6.45271 19.5475 6.77132 19.5475 9.25507C19.5475 11.7388 19.5324 12.0646 19.4874 13.0285C19.4714 13.7902 19.319 14.5436 19.0367 15.2568C18.532 16.4861 17.5065 17.4581 16.2102 17.936C15.4593 18.2029 14.6662 18.3471 13.8644 18.3625C12.8397 18.4185 12.5038 18.4185 9.87905 18.4185ZM9.84256 1.67047C7.21782 1.67047 6.94526 1.68268 5.92048 1.72645C5.30881 1.73414 4.70305 1.84122 4.12951 2.04303C3.28259 2.35045 2.61243 2.98359 2.2849 3.78573C2.07051 4.33571 1.95762 4.91663 1.95117 5.50298C1.8943 6.48935 1.8943 6.74791 1.8943 9.22046C1.8943 11.6635 1.90396 11.9597 1.95117 12.94C1.96078 13.5204 2.0736 14.0951 2.2849 14.6399C2.61291 15.4415 3.28296 16.0742 4.12951 16.3816C4.70266 16.5848 5.30866 16.6919 5.92048 16.6982C6.95921 16.7552 7.23285 16.7552 9.84256 16.7552C12.4748 16.7552 12.7474 16.743 13.7636 16.6982C14.3757 16.6911 14.9819 16.584 15.5556 16.3816C16.3974 16.0715 17.0632 15.4403 17.3906 14.642C17.6045 14.0915 17.7174 13.5103 17.7243 12.9237H17.7361C17.7822 11.9505 17.7822 11.691 17.7822 9.20417C17.7822 6.71737 17.7704 6.45576 17.7243 5.48364C17.7147 4.90387 17.6018 4.32982 17.3906 3.78573C17.064 2.98622 16.3981 2.3538 15.5556 2.04303C14.982 1.8402 14.3757 1.73309 13.7636 1.72645C12.7259 1.67047 12.4544 1.67047 9.84256 1.67047ZM9.87905 13.9223C7.87239 13.9235 6.06257 12.7779 5.29365 11.0196C4.52473 9.26136 4.94817 7.23685 6.36648 5.89026C7.78479 4.54367 9.9186 4.14024 11.7728 4.86813C13.6269 5.59601 14.8362 7.31183 14.8367 9.21537C14.8337 11.8122 12.6165 13.9172 9.87905 13.9223ZM9.87905 6.15954C8.10112 6.15954 6.65982 7.52677 6.65982 9.21333C6.65982 10.8999 8.10112 12.2671 9.87905 12.2671C11.657 12.2671 13.0983 10.8999 13.0983 9.21333C13.0941 7.5284 11.6553 6.16346 9.87905 6.15954ZM15.0298 5.43376C14.3918 5.43151 13.8761 4.93964 13.8773 4.3344C13.8785 3.72916 14.3961 3.23911 15.0341 3.23911C15.6721 3.23911 16.1897 3.72915 16.1909 4.33439C16.1912 4.6264 16.0689 4.90649 15.851 5.11278C15.6331 5.31907 15.3376 5.43457 15.0298 5.43376Z" fill="#FFF6DF"/>
</svg>
