<svg width="14" height="14" viewBox="0 0 14 14" fill="none" xmlns="http://www.w3.org/2000/svg">
<path d="M7 0C3.13425 0 0 3.13425 0 7C0 10.8657 3.13425 14 7 14C10.8657 14 14 10.8657 14 7C14 3.13425 10.8657 0 7 0ZM4.37267 3.15175C4.86383 3.15175 5.19108 3.479 5.19108 3.91533C5.19108 4.35167 4.86383 4.67892 4.31842 4.67892C3.82725 4.6795 3.5 4.35167 3.5 3.91533C3.5 3.479 3.82725 3.15175 4.37267 3.15175ZM5.25 9.91667H3.5V5.25H5.25V9.91667ZM11.0833 9.91667H9.436V7.36633C9.436 6.66108 8.99675 6.49833 8.83225 6.49833C8.66775 6.49833 8.11825 6.60683 8.11825 7.36633C8.11825 7.47483 8.11825 9.91667 8.11825 9.91667H6.41667V5.25H8.11883V5.901C8.33817 5.52125 8.77742 5.25 9.60108 5.25C10.4247 5.25 11.0833 5.901 11.0833 7.36633V9.91667Z" fill="white"/>
</svg>
