<svg width="21" height="22" viewBox="0 0 21 22" fill="none" xmlns="http://www.w3.org/2000/svg">
<path d="M21 10.8942C21 16.5157 16.4422 21.0735 10.8207 21.0735C5.1991 21.0735 0.641357 16.5157 0.641357 10.8942C0.641357 5.27259 5.1991 0.714844 10.8207 0.714844C16.4434 0.714844 21 5.27259 21 10.8942Z" fill="#FFF6DF"/>
<path d="M5.66341 11.2364L5.70732 11.1674L8.35537 7.02484C8.39407 6.96419 8.48505 6.97046 8.51433 7.03634C8.95672 8.02779 9.33845 9.26083 9.15962 10.0285C9.08327 10.3443 8.87411 10.772 8.63878 11.1674C8.60847 11.2249 8.575 11.2814 8.53943 11.3358C8.5227 11.3609 8.49446 11.3755 8.46413 11.3755H5.74079C5.66758 11.3755 5.62471 11.296 5.66341 11.2364Z" fill="#002030"/>
<path d="M17.4658 12.006V12.6617C17.4658 12.6994 17.4428 12.7328 17.4094 12.7475C17.2044 12.8353 16.5026 13.1574 16.2109 13.5632C15.4662 14.5996 14.8973 16.0816 13.6256 16.0816H8.32006C6.43967 16.0816 4.91589 14.5526 4.91589 12.6659V12.6052C4.91589 12.555 4.95667 12.5143 5.00688 12.5143H7.96449C8.02305 12.5143 8.06592 12.5686 8.06071 12.6262C8.03978 12.8186 8.07535 13.0152 8.16633 13.194C8.34202 13.5507 8.70598 13.7734 9.0992 13.7734H10.5634V12.6303H9.11594C9.04169 12.6303 8.99778 12.5446 9.04065 12.4839C9.05633 12.4599 9.07412 12.4348 9.09293 12.4065C9.22995 12.212 9.42551 11.9098 9.62004 11.5657C9.75286 11.3335 9.88148 11.0857 9.98503 10.8368C10.006 10.7918 10.0227 10.7457 10.0394 10.7008C10.0676 10.6213 10.0969 10.547 10.1178 10.4728C10.1388 10.41 10.1555 10.3442 10.1722 10.2824C10.2214 10.0712 10.2423 9.84738 10.2423 9.61522C10.2423 9.52423 10.2381 9.42906 10.2298 9.33807C10.2256 9.23872 10.213 9.13935 10.2005 9.04C10.1921 8.95216 10.1764 8.86535 10.1597 8.77436C10.1388 8.64154 10.1095 8.50978 10.076 8.37694L10.0645 8.32676C10.0394 8.23576 10.0185 8.14897 9.98922 8.05799C9.90658 7.77246 9.81143 7.49428 9.71102 7.23387C9.67441 7.13032 9.63258 7.03097 9.59074 6.93162C9.52905 6.78207 9.46629 6.64612 9.40877 6.51747C9.3795 6.4589 9.3544 6.40556 9.3293 6.35118C9.30106 6.28947 9.27178 6.22777 9.24249 6.16922C9.22158 6.12424 9.19751 6.08241 9.18078 6.04057L9.00195 5.71009C8.97685 5.66512 9.01868 5.61178 9.06783 5.62538L10.1869 5.92866H10.19L10.1942 5.92972L10.3416 5.97049L10.5038 6.01653L10.5634 6.03324V5.3681C10.5634 5.04703 10.8206 4.78662 11.1386 4.78662C11.2975 4.78662 11.4419 4.85146 11.5454 4.95708C11.6489 5.06272 11.7138 5.20705 11.7138 5.3681V6.35537L11.833 6.38882C11.8424 6.39198 11.8518 6.39615 11.8602 6.40242C11.8895 6.42439 11.9313 6.4568 11.9846 6.49656C12.0265 6.53001 12.0715 6.57081 12.1258 6.61265C12.2336 6.69943 12.3622 6.81135 12.5034 6.93999C12.541 6.9724 12.5776 7.00587 12.6111 7.03934C12.7931 7.20877 12.997 7.40747 13.1915 7.6271C13.2459 7.6888 13.2993 7.75155 13.3536 7.81743C13.408 7.88437 13.4656 7.95025 13.5157 8.01615C13.5816 8.104 13.6528 8.19498 13.7145 8.29015C13.7437 8.33513 13.7772 8.38114 13.8054 8.42611C13.8849 8.54637 13.955 8.67084 14.0219 8.79529C14.0502 8.85281 14.0794 8.91555 14.1046 8.97726C14.1788 9.14355 14.2374 9.31297 14.275 9.4824C14.2865 9.519 14.2949 9.55874 14.2991 9.59431V9.60267C14.3116 9.65286 14.3158 9.7062 14.32 9.76058C14.3367 9.93419 14.3284 10.1078 14.2907 10.2824C14.275 10.3567 14.2541 10.4268 14.229 10.501C14.2039 10.5722 14.1788 10.6464 14.1464 10.7165C14.0836 10.8618 14.0094 11.0072 13.9215 11.1432C13.8933 11.1934 13.8598 11.2467 13.8264 11.2969C13.7897 11.3502 13.7521 11.4004 13.7186 11.4496C13.6726 11.5124 13.6235 11.5782 13.5733 11.6368C13.5283 11.6985 13.4823 11.7602 13.4321 11.8146C13.362 11.8972 13.2951 11.9757 13.225 12.051C13.1832 12.1001 13.1382 12.1503 13.0922 12.1953C13.0472 12.2455 13.0012 12.2904 12.9594 12.3323C12.8893 12.4023 12.8307 12.4567 12.7816 12.5017L12.6665 12.6073C12.6498 12.622 12.6278 12.6303 12.6048 12.6303H11.7138V13.7734H12.8349C13.0859 13.7734 13.3244 13.6845 13.5168 13.5214C13.5827 13.4639 13.8703 13.215 14.2102 12.8395C14.2217 12.8269 14.2363 12.8175 14.2531 12.8134L17.3498 11.9181C17.4073 11.9014 17.4658 11.9453 17.4658 12.006Z" fill="#002030"/>
</svg>
