<svg width="21" height="22" viewBox="0 0 21 22" fill="none" xmlns="http://www.w3.org/2000/svg">
<g clip-path="url(#clip0_49_113)">
<path d="M10.6745 21.0735C16.2964 21.0735 20.8538 16.516 20.8538 10.8942C20.8538 5.27228 16.2964 0.714844 10.6745 0.714844C5.05261 0.714844 0.495178 5.27228 0.495178 10.8942C0.495178 16.516 5.05261 21.0735 10.6745 21.0735Z" fill="#FFF6DF"/>
<path fill-rule="evenodd" clip-rule="evenodd" d="M5.10291 10.7867C8.07039 9.4938 10.0492 8.64146 11.0393 8.22964C13.8662 7.05384 14.4536 6.84959 14.8364 6.84285C14.9206 6.84136 15.1089 6.86223 15.2309 6.96119C15.3339 7.04476 15.3622 7.15764 15.3757 7.23686C15.3893 7.31609 15.4062 7.49657 15.3928 7.63759C15.2396 9.24717 14.5767 13.1532 14.2395 14.956C14.0968 15.7188 13.8158 15.9746 13.5438 15.9996C12.9527 16.054 12.5038 15.6089 11.9313 15.2336C11.0354 14.6464 10.5292 14.2808 9.65961 13.7077C8.65459 13.0454 9.3061 12.6814 9.87886 12.0865C10.0288 11.9308 12.6333 9.56179 12.6837 9.34689C12.69 9.32001 12.6959 9.21982 12.6363 9.16692C12.5768 9.11402 12.489 9.13211 12.4256 9.14649C12.3357 9.16689 10.9045 10.1129 8.13189 11.9845C7.72564 12.2634 7.35767 12.3993 7.02798 12.3922C6.66453 12.3844 5.96539 12.1867 5.44565 12.0178C4.80817 11.8106 4.30152 11.701 4.34563 11.3491C4.36861 11.1658 4.62104 10.9783 5.10291 10.7867Z" fill="#002030"/>
</g>
<defs>
<clipPath id="clip0_49_113">
<rect width="20.3586" height="20.3586" fill="white" transform="translate(0.495178 0.714844)"/>
</clipPath>
</defs>
</svg>
