<svg width="14" height="14" viewBox="0 0 14 14" fill="none" xmlns="http://www.w3.org/2000/svg">
<path d="M4.40272 12.6877C9.68576 12.6877 12.5754 8.31078 12.5754 4.5151C12.5754 4.39078 12.5754 4.26702 12.567 4.14382C13.1291 3.73721 13.6144 3.23375 14 2.65702C13.4758 2.88942 12.9197 3.04176 12.3502 3.10894C12.9499 2.75001 13.3987 2.1854 13.613 1.52022C13.0492 1.85482 12.4324 2.09062 11.7891 2.21742C11.356 1.75692 10.7833 1.45199 10.1594 1.34982C9.53561 1.24764 8.89549 1.35392 8.33815 1.6522C7.7808 1.95048 7.3373 2.42414 7.07627 2.99987C6.81524 3.57561 6.75123 4.22132 6.89416 4.8371C5.75219 4.77982 4.63502 4.48304 3.61518 3.96602C2.59534 3.44901 1.69561 2.72332 0.9744 1.83606C0.607091 2.46839 0.494592 3.21694 0.659808 3.92931C0.825024 4.64167 1.25553 5.26428 1.86368 5.67038C1.40655 5.65699 0.959378 5.53367 0.56 5.31086V5.34726C0.560181 6.01042 0.789746 6.65311 1.20976 7.16631C1.62977 7.67951 2.21437 8.03163 2.8644 8.16294C2.44153 8.27829 1.99784 8.29515 1.56744 8.21222C1.75106 8.78291 2.10842 9.28196 2.58956 9.6396C3.0707 9.99724 3.65157 10.1956 4.25096 10.2069C3.65542 10.6751 2.97343 11.0212 2.24401 11.2254C1.51459 11.4297 0.752042 11.4882 0 11.3975C1.31357 12.2404 2.84196 12.6876 4.40272 12.6855" fill="#FFF6DF"/>
</svg>
