<svg width="22" height="18" viewBox="0 0 22 18" fill="none" xmlns="http://www.w3.org/2000/svg">
<path d="M19.0096 2.85389C19.9293 2.29739 20.6175 1.42113 20.9456 0.3887C20.0814 0.9077 19.1358 1.2733 18.1498 1.46968C16.7828 0.00607406 14.6169 -0.350102 12.8623 0.600178C11.1078 1.55046 10.199 3.57194 10.6437 5.53506C7.10369 5.35518 3.80552 3.66272 1.56994 0.878829C0.403235 2.91559 0.999446 5.51926 2.93245 6.82892C2.23345 6.80618 1.54996 6.61463 0.938962 6.27026C0.938962 6.28895 0.938962 6.30764 0.938962 6.32633C0.939366 8.44796 2.41676 10.2755 4.47142 10.696C3.82306 10.8745 3.14298 10.9008 2.48307 10.7728C3.0609 12.5872 4.71309 13.8302 6.59623 13.8673C5.03656 15.1062 3.11043 15.7781 1.12774 15.7748C0.776314 15.7753 0.425161 15.7549 0.0761108 15.7136C2.08949 17.023 4.43281 17.7181 6.82605 17.7156C10.1556 17.7388 13.3554 16.4102 15.7098 14.0272C18.0641 11.6442 19.3764 8.40548 19.3533 5.03559C19.3533 4.84244 19.3488 4.65034 19.34 4.45927C20.2022 3.82854 20.9465 3.04719 21.5376 2.15192C20.7343 2.51231 19.8822 2.74893 19.0096 2.85389Z" fill="#FFF6DF"/>
</svg>
