<svg width="142" height="31" viewBox="0 0 142 31" fill="none" xmlns="http://www.w3.org/2000/svg">
<path d="M22.6587 4.85742L24.1089 8.77295L21.2876 10.4341L20.5229 9.81445L6.68018 20.5591L27.3521 20.9019L3.9248 24.6196L0.628906 20.3481L22.6587 4.85742ZM28.6045 18.5156L30.0151 10.5923L32.4805 14.2178L29.4087 29.2866L27.0356 27.375L28.3804 19.7944L23.5815 23.1826L21.5908 19.9395L23.3179 10.4341L27.8662 6.65039L24.4121 19.5967L28.6045 18.5156ZM36.2114 15.0747L35.3677 19.3726L38.2021 22.418L40.8389 13.875L36.2114 15.0747ZM32.375 18.4233L35.7632 3.35449L38.1362 5.26611L36.4224 13.9937L41.8013 10.2891L43.6602 13.5322L41.6694 22.0752L37.1211 25.8589L32.375 18.4233ZM47.167 17.9224L51.5176 14.8374V13.3213L48.5513 12.7808L47.167 17.9224ZM47.0088 18.4893L46.3101 21.0864L55.0244 25.5161L45.2554 24.0659L43.3965 21.5215L45.5981 10.8428L53.8643 10.4341L54.062 16.9072L47.0088 18.4893ZM58.1489 14.165L55.6836 28.2451L53.772 20.8359L56.356 8.93115L58.729 10.8428L58.3599 12.9258L62.2358 9.60352L64.3584 12.7148L60.9307 15.7998L61.2734 13.0576L58.1489 14.165ZM82.0112 4.85742L83.4614 8.77295L80.6401 10.4341L79.8755 9.81445L66.0327 20.5591L86.7046 20.9019L63.2773 24.6196L59.9814 20.3481L82.0112 4.85742ZM90.9893 16.9336L86.6387 20.0186V21.5347L89.605 22.0752L90.9893 16.9336ZM92.835 22.6553L93.8765 22.8398L92.7559 23.0244L92.5581 24.0132L88.6953 25.4502L89.1963 23.6177L84.292 24.4219L84.0942 17.9487L91.1475 16.3667L91.8462 13.7695L83.1318 9.33984L92.9009 10.79L94.7598 13.3345L92.835 22.6553ZM99.9014 11.4888L97.3174 27.4277L95.063 20.8359L96.7637 12.3193L90.3037 14.0068L97.0537 10.856L98.5435 3.35449L100.917 5.26611L100.257 9.36621L108.286 5.60889L105.531 10.0122L99.9014 11.4888Z" fill="#FFF500"/>
<path d="M111.151 20.0742L116.268 15.415L116.077 14.3867L112.154 14.4502L111.151 20.0742ZM111.062 20.6074L109.488 29.4053L106.873 24.9365L110.187 11.7969L118.984 12.0635L119.67 16.1006L111.062 20.6074ZM125.686 18.1953L121.497 21.166V22.626L124.353 23.1465L125.686 18.1953ZM127.464 23.7051L128.467 23.8828L127.388 24.0605L127.197 25.0127L123.477 26.3965L123.96 24.6318L119.237 25.4062L119.047 19.1729L125.839 17.6494L126.512 15.1484L118.12 10.8828L127.527 12.2793L129.317 14.7295L127.464 23.7051ZM137.137 19.7188L138.495 12.0889L140.869 15.5801L137.911 30.0908L135.626 28.25L136.921 20.9502L132.3 24.2129L130.383 21.0898L132.046 11.9365L136.426 8.29297L133.1 20.7598L137.137 19.7188Z" fill="#FFF500"/>
</svg>
