<svg width="71" height="55" viewBox="0 0 71 55" fill="none" xmlns="http://www.w3.org/2000/svg">
<path fill-rule="evenodd" clip-rule="evenodd" d="M34.3033 3H16.116V4.54014H34.3033V3ZM34.3033 0H37.3033H55.4907H58.4907H63.12C66.986 0 70.12 3.13401 70.12 7V10.0892V13.0892V21.1873V24.1873V32.2855V35.2855V43.3836V46.3836V47.9862C70.12 51.8522 66.986 54.9862 63.12 54.9862H6.99999C3.134 54.9862 0 51.8522 0 47.9862V46.3836V43.3836V35.2855V32.2855V24.1873V21.1873V13.0892V10.0892V7C0 3.13401 3.13401 0 7 0H13.116H16.116H34.3033ZM3 13.0892V21.1873H4.03568V13.0892H3ZM4.03568 10.0892H3V7C3 4.79086 4.79086 3 7 3H13.116V4.54014H7.03568C5.37883 4.54014 4.03568 5.88329 4.03568 7.54015V10.0892ZM3 32.2855V24.1873H4.03568V32.2855H3ZM3 35.2855V43.3836H4.03568V35.2855H3ZM3 47.9862V46.3836H4.03568V47.446C4.03568 49.1029 5.37883 50.446 7.03568 50.446H13.116V51.9862H6.99999C4.79086 51.9862 3 50.1953 3 47.9862ZM16.116 51.9862H34.3033V50.446H16.116V51.9862ZM37.3033 51.9862V50.446H55.4907V51.9862H37.3033ZM67.12 10.0892V7C67.12 4.79086 65.3291 3 63.12 3H58.4907V4.54014H62.5799C64.2367 4.54014 65.5799 5.88329 65.5799 7.54014V10.0892H67.12ZM65.5799 13.0892H67.12V21.1873H65.5799V13.0892ZM65.5799 32.2855V24.1873H67.12V32.2855H65.5799ZM65.5799 35.2855H67.12V43.3836H65.5799V35.2855ZM65.5799 47.446V46.3836H67.12V47.9862C67.12 50.1953 65.3291 51.9862 63.12 51.9862H58.4907V50.446H62.5799C64.2367 50.446 65.5799 49.1029 65.5799 47.446ZM37.3033 3H55.4907V4.54014H37.3033V3ZM45.5705 16.1107C46.4305 15.2999 47.5392 15.1472 48.4282 15.1472H62.5799V7.54014H25.7007L25.7007 47.446L44.4059 47.446V19.4217C44.4059 18.1241 44.6966 16.9347 45.5705 16.1107ZM7.03568 7.54014H22.7007V14.1517H7.03568V7.54014ZM7.03568 17.1517L7.03568 25.2498H22.7007V17.1517H7.03568ZM7.03568 36.3479V28.2498H22.7007V36.3479H7.03568ZM7.03568 39.3479V47.446H22.7007V39.3479H7.03568ZM47.4059 47.446L62.5799 47.446V39.3479H47.4059V47.446ZM47.4059 36.3479H62.5799V28.2498H47.4059V36.3479ZM62.5799 25.2498V18.1472H48.4282C47.8039 18.1472 47.6514 18.2719 47.6286 18.2935L47.6284 18.2936C47.6181 18.3034 47.4059 18.5031 47.4059 19.4217V25.2498H62.5799Z" fill="#FFF500"/>
</svg>
