<svg width="296" height="95" viewBox="0 0 296 95" fill="none" xmlns="http://www.w3.org/2000/svg">
<path d="M11.14 94H7.64C6.14 94 5.28 93.4 4.64 92.1L2.8 88.38C2.46 87.7 2.26 87.06 2.26 86.28C2.26 85.4 2.42 84.86 2.82 84.06L4.66 80.36C5.34 78.98 6.2 78.44 7.74 78.44H11.14C11.58 78.44 12.14 78.68 12.14 79.44C12.14 80.16 11.6 80.44 11.14 80.44H7.8C6.94 80.44 6.8 80.52 6.42 81.28L4.68 84.76C4.42 85.3 4.26 85.66 4.26 86.28C4.26 86.84 4.44 87.18 4.68 87.66L6.38 91.12C6.78 91.94 6.98 92 7.88 92H11.14C11.58 92 12.14 92.24 12.14 93C12.14 93.72 11.6 94 11.14 94ZM16.4545 93L20.3745 79.46C20.5345 78.92 20.7545 78.44 21.3945 78.44C22.0545 78.44 22.2945 78.94 22.4345 79.46L26.2945 93C26.4345 93.48 25.8945 94 25.3345 94C24.7145 94 24.3945 93.48 24.2545 93L23.5145 90.6H19.2545L18.4945 93C18.3545 93.48 18.0345 94 17.4145 94C16.8545 94 16.3145 93.48 16.4545 93ZM22.9545 88.6L21.4145 83.18H21.3745L19.8145 88.6H22.9545ZM32.6491 85.56V93C32.6491 93.64 32.3691 94 31.6491 94C30.9291 94 30.6491 93.64 30.6491 93V78.44H37.3691C38.9491 78.44 40.5291 79.56 40.5291 81.34V82.72C40.5291 84.6 38.9691 85.56 37.3691 85.56H35.5291L40.0291 92C40.2491 92.3 40.5291 92.68 40.5291 93.06C40.5291 93.62 40.0691 94 39.5091 94C39.1091 94 38.8491 93.76 38.6291 93.44L33.1091 85.56H32.6491ZM32.6491 80.44V83.56H37.0891C37.6491 83.56 38.5291 83.52 38.5291 82.72V81.34C38.5291 80.54 37.7091 80.44 37.1091 80.44H32.6491ZM46.8036 92V80.44H46.0636C45.4036 80.44 44.8436 80.2 44.8436 79.44C44.8436 78.72 45.3836 78.44 46.0036 78.44H49.3436C50.9036 78.44 51.6836 79.08 52.3636 80.44L54.1236 83.96C54.5236 84.78 54.7236 85.36 54.7236 86.28C54.7236 87.08 54.5036 87.76 54.1436 88.48L52.3236 92.12C51.6236 93.54 50.7236 94 49.1636 94H45.8436C45.3236 94 44.8436 93.72 44.8436 93C44.8436 92.28 45.3236 92 45.8436 92H46.8036ZM48.8036 80.44V92H49.1836C50.0236 92 50.2236 91.9 50.5836 91.16L52.3436 87.6C52.5636 87.14 52.7236 86.8 52.7236 86.3C52.7236 85.62 52.5036 85.24 52.2236 84.66L50.5636 81.28C50.1436 80.42 49.9636 80.44 49.0436 80.44H48.8036ZM66.9181 87.22H61.0381V93C61.0381 93.64 60.7581 94 60.0381 94C59.3181 94 59.0381 93.64 59.0381 93V79.44C59.0381 78.8 59.3181 78.44 60.0381 78.44C60.7581 78.44 61.0381 78.8 61.0381 79.44V85.22H66.9181V79.44C66.9181 78.8 67.1981 78.44 67.9181 78.44C68.6381 78.44 68.9181 78.8 68.9181 79.44V93C68.9181 93.64 68.6381 94 67.9181 94C67.1981 94 66.9181 93.64 66.9181 93V87.22ZM80.5927 80.08L82.5927 84.06C82.9727 84.84 83.1127 85.42 83.1127 86.28C83.1127 87.24 82.8527 87.84 82.4527 88.66L80.6127 92.34C80.1327 93.3 79.3327 94 78.1727 94C77.0127 94 76.2127 93.3 75.7327 92.34L73.8927 88.66C73.4927 87.84 73.2327 87.24 73.2327 86.28C73.2327 85.42 73.3727 84.84 73.7527 84.06L75.7527 80.08C76.2327 79.14 77.0527 78.44 78.1727 78.44C79.2927 78.44 80.1127 79.14 80.5927 80.08ZM80.6527 84.66L78.8527 81.04C78.6927 80.72 78.5927 80.44 78.1727 80.44C77.7527 80.44 77.6527 80.72 77.4927 81.04L75.6927 84.66C75.3927 85.24 75.2327 85.62 75.2327 86.28C75.2327 86.8 75.3527 87.16 75.5727 87.6L77.4927 91.4C77.6327 91.68 77.7727 92 78.1727 92C78.5727 92 78.7127 91.68 78.8527 91.4L80.7727 87.6C80.9927 87.16 81.1127 86.8 81.1127 86.28C81.1127 85.62 80.9527 85.24 80.6527 84.66ZM89.4272 92H96.3072C96.8272 92 97.3072 92.28 97.3072 93C97.3072 93.72 96.8272 94 96.3072 94H87.4272V79.44C87.4272 78.8 87.7072 78.44 88.4272 78.44C89.1472 78.44 89.4272 78.8 89.4272 79.44V92ZM103.582 92V80.44H102.842C102.182 80.44 101.622 80.2 101.622 79.44C101.622 78.72 102.162 78.44 102.782 78.44H106.122C107.682 78.44 108.462 79.08 109.142 80.44L110.902 83.96C111.302 84.78 111.502 85.36 111.502 86.28C111.502 87.08 111.282 87.76 110.922 88.48L109.102 92.12C108.402 93.54 107.502 94 105.942 94H102.622C102.102 94 101.622 93.72 101.622 93C101.622 92.28 102.102 92 102.622 92H103.582ZM105.582 80.44V92H105.962C106.802 92 107.002 91.9 107.362 91.16L109.122 87.6C109.342 87.14 109.502 86.8 109.502 86.3C109.502 85.62 109.282 85.24 109.002 84.66L107.342 81.28C106.922 80.42 106.742 80.44 105.822 80.44H105.582ZM117.816 92H124.696C125.216 92 125.696 92.28 125.696 93C125.696 93.72 125.216 94 124.696 94H115.816V78.44H124.696C125.216 78.44 125.696 78.72 125.696 79.44C125.696 80.16 125.216 80.44 124.696 80.44H117.816V85.22H120.756C121.276 85.22 121.756 85.5 121.756 86.22C121.756 86.94 121.276 87.22 120.756 87.22H117.816V92ZM132.011 85.56V93C132.011 93.64 131.731 94 131.011 94C130.291 94 130.011 93.64 130.011 93V78.44H136.731C138.311 78.44 139.891 79.56 139.891 81.34V82.72C139.891 84.6 138.331 85.56 136.731 85.56H134.891L139.391 92C139.611 92.3 139.891 92.68 139.891 93.06C139.891 93.62 139.431 94 138.871 94C138.471 94 138.211 93.76 137.991 93.44L132.471 85.56H132.011ZM132.011 80.44V83.56H136.451C137.011 83.56 137.891 83.52 137.891 82.72V81.34C137.891 80.54 137.071 80.44 136.471 80.44H132.011ZM166.28 90.58L166.3 79.46C166.3 78.82 166.58 78.46 167.3 78.46C168.02 78.46 168.3 78.82 168.3 79.46V94.02H165.66L160.44 82.02V82H160.4V93C160.4 93.64 160.12 94 159.4 94C158.68 94 158.4 93.64 158.4 93V78.44H161.04L166.26 90.58H166.24H166.28ZM172.594 93L176.514 79.46C176.674 78.92 176.894 78.44 177.534 78.44C178.194 78.44 178.434 78.94 178.574 79.46L182.434 93C182.574 93.48 182.034 94 181.474 94C180.854 94 180.534 93.48 180.394 93L179.654 90.6H175.394L174.634 93C174.494 93.48 174.174 94 173.554 94C172.994 94 172.454 93.48 172.594 93ZM179.094 88.6L177.554 83.18H177.514L175.954 88.6H179.094ZM191.729 81.96L194.169 78.44H196.669V93C196.669 93.64 196.389 94 195.669 94C194.949 94 194.669 93.64 194.669 93V81.2H194.629L192.729 84.02V84.34C192.729 84.96 192.489 85.54 191.729 85.54C191.009 85.54 190.729 84.96 190.729 84.34V84.02L188.829 81.2H188.789V93C188.789 93.64 188.509 94 187.789 94C187.069 94 186.789 93.64 186.789 93V78.44H189.289L191.729 81.96ZM202.983 92H209.863C210.383 92 210.863 92.28 210.863 93C210.863 93.72 210.383 94 209.863 94H200.983V78.44H209.863C210.383 78.44 210.863 78.72 210.863 79.44C210.863 80.16 210.383 80.44 209.863 80.44H202.983V85.22H205.923C206.443 85.22 206.923 85.5 206.923 86.22C206.923 86.94 206.443 87.22 205.923 87.22H202.983V92Z" fill="#FFF500"/>
<path d="M5.61322 4.728V12.504H13.6292C14.8292 12.504 15.0692 13.008 15.0692 14.112V19.488C15.0692 20.616 14.5892 21 13.5092 21H4.77322C3.64522 21 3.21322 20.592 3.21322 19.488V3.528C3.21322 2.976 3.40522 2.328 4.24522 2.328H5.68522C6.30922 2.328 6.81322 2.904 6.81322 3.528C6.81322 4.248 6.30922 4.728 5.61322 4.728ZM12.6692 14.904H5.61322V18.6H12.6692V14.904ZM23.3667 10.464H25.6227V4.728H23.3667V10.464ZM22.1667 2.328H26.8227C27.6387 2.328 28.0227 2.904 28.0227 3.528V10.464C28.7667 10.464 29.3427 10.728 29.7747 11.136C30.2067 11.544 30.4227 12.144 30.4227 12.888V18.6C30.4227 20.064 29.5107 21 28.0227 21H20.9667C19.4787 21 18.5667 20.064 18.5667 18.6V12.888C18.5667 12.144 18.7827 11.544 19.2147 11.136C19.6467 10.728 20.2227 10.464 20.9667 10.464V3.528C20.9667 2.904 21.3507 2.328 22.1667 2.328ZM20.9667 18.6H28.0227V12.864H20.9667V18.6ZM41.0481 18.6H43.3761V13.752C43.3761 13.056 43.6881 12.552 44.5761 12.552C45.4641 12.552 45.7761 13.056 45.7761 13.752V19.8C45.7761 20.664 45.2001 21 44.5761 21H35.1201C34.4961 21 33.9201 20.664 33.9201 19.8C33.9201 18.936 34.4961 18.6 35.1201 18.6H38.6481V4.728H35.1201C34.4961 4.728 33.9201 4.392 33.9201 3.528C33.9201 2.664 34.4961 2.328 35.1201 2.328H41.0481V18.6ZM56.4015 18.6H58.7295V13.752C58.7295 13.056 59.0415 12.552 59.9295 12.552C60.8175 12.552 61.1295 13.056 61.1295 13.752V19.8C61.1295 20.664 60.5535 21 59.9295 21H50.4735C49.8495 21 49.2735 20.664 49.2735 19.8C49.2735 18.936 49.8495 18.6 50.4735 18.6H54.0015V4.728H50.4735C49.8495 4.728 49.2735 4.392 49.2735 3.528C49.2735 2.664 49.8495 2.328 50.4735 2.328H56.4015V18.6ZM84.7564 4.728V10.464H89.1724C89.9404 10.464 90.5164 10.584 91.0924 11.136C91.7644 11.76 91.8364 12.336 91.8364 13.176V18.312C91.8364 19.056 91.7644 19.584 91.2604 20.184C90.6604 20.904 90.0364 21 89.1724 21H83.8444C83.2204 21 82.8604 20.832 82.2604 20.568L81.3484 20.16C80.7004 19.872 79.9804 19.656 79.9804 18.816C79.9804 18.192 80.5084 17.616 81.1324 17.616C81.4204 17.616 81.6364 17.688 81.9004 17.808L82.6204 18.12C82.9564 18.264 83.5084 18.6 83.8924 18.6H89.4364V12.864H82.3564V2.328H90.6364C91.2604 2.328 91.8364 2.664 91.8364 3.528C91.8364 4.392 91.2604 4.728 90.6364 4.728H84.7564ZM97.7338 4.728V12.504H105.75C106.95 12.504 107.19 13.008 107.19 14.112V19.488C107.19 20.616 106.71 21 105.63 21H96.8938C95.7658 21 95.3338 20.592 95.3338 19.488V3.528C95.3338 2.976 95.5258 2.328 96.3658 2.328H97.8058C98.4298 2.328 98.9338 2.904 98.9338 3.528C98.9338 4.248 98.4298 4.728 97.7338 4.728ZM104.79 14.904H97.7338V18.6H104.79V14.904ZM120.143 4.728H113.087C113.087 5.256 112.655 5.928 111.887 5.928C111.119 5.928 110.687 5.256 110.687 4.728V3.528C110.687 3 111.119 2.328 111.887 2.328H122.543V9.288C122.543 10.128 122.567 10.224 121.895 10.8L118.535 13.704C117.911 14.256 117.863 14.304 117.863 15.144V19.8C117.863 20.568 117.527 21 116.663 21C115.799 21 115.463 20.568 115.463 19.8V14.016C115.463 13.224 115.487 13.152 116.087 12.624L119.399 9.768C120.191 9.072 120.143 9.096 120.143 8.04V4.728ZM130.841 10.464H133.097V4.728H130.841V10.464ZM129.641 2.328H134.297C135.113 2.328 135.497 2.904 135.497 3.528V10.464C136.241 10.464 136.817 10.728 137.249 11.136C137.681 11.544 137.897 12.144 137.897 12.888V18.6C137.897 20.064 136.985 21 135.497 21H128.441C126.953 21 126.041 20.064 126.041 18.6V12.888C126.041 12.144 126.257 11.544 126.689 11.136C127.121 10.728 127.697 10.464 128.441 10.464V3.528C128.441 2.904 128.825 2.328 129.641 2.328ZM128.441 18.6H135.497V12.864H128.441V18.6ZM166.204 18.6V10.872H157.948C157.276 10.872 156.748 10.296 156.748 9.672V3.528C156.748 2.904 157.276 2.328 157.948 2.328H167.404C168.076 2.328 168.604 2.904 168.604 3.528V19.8C168.604 20.448 168.124 21 167.404 21H166.204C165.484 21 165.004 20.448 165.004 19.8C165.004 19.08 165.508 18.6 166.204 18.6ZM159.148 8.472H166.204V4.728H159.148V8.472ZM179.229 18.6H181.557V13.752C181.557 13.056 181.869 12.552 182.757 12.552C183.645 12.552 183.957 13.056 183.957 13.752V19.8C183.957 20.664 183.381 21 182.757 21H173.301C172.677 21 172.101 20.664 172.101 19.8C172.101 18.936 172.677 18.6 173.301 18.6H176.829V4.728H173.301C172.677 4.728 172.101 4.392 172.101 3.528C172.101 2.664 172.677 2.328 173.301 2.328H179.229V18.6ZM189.854 2.328H196.91C198.23 2.328 199.31 3.408 199.31 4.728V18.6C199.31 19.944 198.278 21 196.91 21H189.854C188.486 21 187.454 19.944 187.454 18.6V4.728C187.454 3.408 188.534 2.328 189.854 2.328ZM189.854 18.6H196.91V4.728H189.854V18.6ZM209.936 18.6H212.264V13.752C212.264 13.056 212.576 12.552 213.464 12.552C214.352 12.552 214.664 13.056 214.664 13.752V19.8C214.664 20.664 214.088 21 213.464 21H204.008C203.384 21 202.808 20.664 202.808 19.8C202.808 18.936 203.384 18.6 204.008 18.6H207.536V4.728H204.008C203.384 4.728 202.808 4.392 202.808 3.528C202.808 2.664 203.384 2.328 204.008 2.328H209.936V18.6ZM235.915 12.864V18.6H244.171C244.795 18.6 245.371 18.936 245.371 19.8C245.371 20.664 244.795 21 244.171 21H233.515V13.176C233.515 11.376 234.427 10.464 236.227 10.464H242.971V4.728H234.715C234.091 4.728 233.515 4.392 233.515 3.528C233.515 2.664 234.091 2.328 234.715 2.328H242.683C243.475 2.328 244.027 2.448 244.627 3C245.299 3.624 245.371 4.272 245.371 5.136V10.056C245.371 10.92 245.299 11.568 244.627 12.192C244.027 12.744 243.475 12.864 242.683 12.864H235.915ZM255.996 18.6H258.324V13.752C258.324 13.056 258.636 12.552 259.524 12.552C260.412 12.552 260.724 13.056 260.724 13.752V19.8C260.724 20.664 260.148 21 259.524 21H250.068C249.444 21 248.868 20.664 248.868 19.8C248.868 18.936 249.444 18.6 250.068 18.6H253.596V4.728H250.068C249.444 4.728 248.868 4.392 248.868 3.528C248.868 2.664 249.444 2.328 250.068 2.328H255.996V18.6ZM273.678 4.728H265.422C264.798 4.728 264.222 4.392 264.222 3.528C264.222 2.664 264.798 2.328 265.422 2.328H273.678C275.046 2.328 276.078 3.36 276.078 4.728V9.336C276.078 10.296 275.886 10.992 275.142 11.664C275.886 12.336 276.078 13.032 276.078 13.992V18.6C276.078 19.968 275.046 21 273.678 21H265.422C264.798 21 264.222 20.664 264.222 19.8C264.222 18.936 264.798 18.6 265.422 18.6H273.678V14.616C273.678 13.272 273.15 12.864 272.478 12.864H267.774C267.15 12.864 266.574 12.528 266.574 11.664C266.574 10.8 267.15 10.464 267.774 10.464H272.478C273.15 10.464 273.678 10.056 273.678 8.712V4.728ZM286.703 18.6H289.031V13.752C289.031 13.056 289.343 12.552 290.231 12.552C291.119 12.552 291.431 13.056 291.431 13.752V19.8C291.431 20.664 290.855 21 290.231 21H280.775C280.151 21 279.575 20.664 279.575 19.8C279.575 18.936 280.151 18.6 280.775 18.6H284.303V4.728H280.775C280.151 4.728 279.575 4.392 279.575 3.528C279.575 2.664 280.151 2.328 280.775 2.328H286.703V18.6Z" fill="#FFF500"/>
</svg>
