<svg width="71" height="55" fill="none" xmlns="http://www.w3.org/2000/svg"><path fill-rule="evenodd" clip-rule="evenodd" d="M34.303 3H16.116v1.54h18.187V3Zm0-3H63.12a7 7 0 0 1 7 7v40.986a7 7 0 0 1-7 7H7a7 7 0 0 1-7-7V7a7 7 0 0 1 7-7h27.303ZM3 13.09v8.097h1.036V13.09H3Zm1.036-3H3V7a4 4 0 0 1 4-4h6.116v1.54h-6.08a3 3 0 0 0-3 3v2.55ZM3 32.285v-8.099h1.036v8.098H3Zm0 3v8.098h1.036v-8.099H3Zm0 12.7v-1.602h1.036v1.062a3 3 0 0 0 3 3h6.08v1.54H7a4 4 0 0 1-4-4Zm13.116 4h18.187v-1.54H16.116v1.54Zm21.187 0v-1.54h18.188v1.54H37.303ZM67.12 10.09V7a4 4 0 0 0-4-4h-4.63v1.54h4.09a3 3 0 0 1 3 3v2.55h1.54Zm-1.54 3h1.54v8.098h-1.54V13.09Zm0 19.197v-8.099h1.54v8.098h-1.54Zm0 3h1.54v8.098h-1.54v-8.099Zm0 12.16v-1.062h1.54v1.602a4 4 0 0 1-4 4h-4.63v-1.54h4.09a3 3 0 0 0 3-3ZM37.303 3h18.188v1.54H37.303V3Zm8.268 13.11c.86-.81 1.968-.963 2.857-.963H62.58V7.54H25.7v39.906h18.706V19.422c0-1.298.29-2.487 1.165-3.311ZM7.036 7.54H22.7v6.612H7.036V7.54Zm0 9.612v8.098H22.7v-8.098H7.036Zm0 19.196V28.25H22.7v8.098H7.036Zm0 3v8.098H22.7v-8.098H7.036Zm40.37 8.098H62.58v-8.098H47.406v8.098Zm0-11.098H62.58V28.25H47.406v8.098ZM62.58 25.25v-7.103H48.428c-.624 0-.777.125-.8.147-.01.01-.222.21-.222 1.128v5.828H62.58Z" fill="#FFF500"/></svg>