<svg width="308" height="76" viewBox="0 0 308 76" fill="none" xmlns="http://www.w3.org/2000/svg">
<path d="M49.9082 11.4609L53.1309 20.1621L46.8613 23.8535L45.1621 22.4766L14.4004 46.3535L60.3379 47.1152L8.27734 55.377L0.953125 45.8848L49.9082 11.4609ZM63.1211 41.8125L66.2559 24.2051L71.7344 32.2617L64.9082 65.748L59.6348 61.5L62.623 44.6543L51.959 52.1836L47.5352 44.9766L51.373 23.8535L61.4805 15.4453L53.8047 44.2148L63.1211 41.8125ZM80.0254 34.166L78.1504 43.7168L84.4492 50.4844L90.3086 31.5L80.0254 34.166ZM71.5 41.6074L79.0293 8.12109L84.3027 12.3691L80.4941 31.7637L92.4473 23.5312L96.5781 30.7383L92.1543 49.7227L82.0469 58.1309L71.5 41.6074ZM104.371 40.4941L114.039 33.6387V30.2695L107.447 29.0684L104.371 40.4941ZM104.02 41.7539L102.467 47.5254L121.832 57.3691L100.123 54.1465L95.9922 48.4922L100.885 24.7617L119.254 23.8535L119.693 38.2383L104.02 41.7539ZM128.775 32.1445L123.297 63.4336L119.049 46.9688L124.791 20.5137L130.064 24.7617L129.244 29.3906L137.857 22.0078L142.574 28.9219L134.957 35.7773L135.719 29.6836L128.775 32.1445ZM181.803 11.4609L185.025 20.1621L178.756 23.8535L177.057 22.4766L146.295 46.3535L192.232 47.1152L140.172 55.377L132.848 45.8848L181.803 11.4609ZM201.754 38.2969L192.086 45.1523V48.5215L198.678 49.7227L201.754 38.2969ZM205.855 51.0117L208.17 51.4219L205.68 51.832L205.24 54.0293L196.656 57.2227L197.77 53.1504L186.871 54.9375L186.432 40.5527L202.105 37.0371L203.658 31.2656L184.293 21.4219L206.002 24.6445L210.133 30.2988L205.855 51.0117ZM221.559 26.1973L215.816 61.6172L210.807 46.9688L214.586 28.043L200.23 31.793L215.23 24.791L218.541 8.12109L223.814 12.3691L222.35 21.4805L240.191 13.1309L234.068 22.916L221.559 26.1973Z" fill="#F1E9F3"/>
<path d="M247.983 44.5273L257.822 35.5674L257.456 33.5898L249.912 33.7119L247.983 44.5273ZM247.812 45.5527L244.785 62.4717L239.756 53.8779L246.128 28.6094L263.047 29.1221L264.365 36.8857L247.812 45.5527ZM275.936 40.9141L267.879 46.627V49.4346L273.372 50.4355L275.936 40.9141ZM279.354 51.5098L281.282 51.8516L279.207 52.1934L278.841 54.0244L271.688 56.6855L272.615 53.292L263.533 54.7812L263.167 42.7939L276.229 39.8643L277.522 35.0547L261.385 26.8516L279.476 29.5371L282.918 34.249L279.354 51.5098ZM297.955 43.8438L300.567 29.1709L305.133 35.8848L299.444 63.79L295.05 60.25L297.54 46.2119L288.653 52.4863L284.967 46.4805L288.165 28.8779L296.588 21.8711L290.191 45.8457L297.955 43.8438Z" fill="#F1EAF3"/>
</svg>
